<svg id="Capa_1" data-name="Capa 1" xmlns="http://www.w3.org/2000/svg" viewBox="0 0 486.36 343.89"><defs><style>.cls-1{fill:#fff;}</style></defs><title>Logos</title><path class="cls-1" d="M213.28,225.83h-1.72l1.34-12h1.72Z"/><path class="cls-1" d="M218.31,213.92a.53.53,0,0,1,.21.26l4.48,8.6c0-.14,0-.28,0-.42l0-.39.92-8.1h1.51l-1.35,12h-.87a.59.59,0,0,1-.34-.08.88.88,0,0,1-.24-.26l-4.47-8.6,0,.36c0,.11,0,.22,0,.32l-.93,8.26h-1.51l1.35-12H218A.87.87,0,0,1,218.31,213.92Z"/><path class="cls-1" d="M229.19,213.92a.53.53,0,0,1,.21.26l4.48,8.6,0-.42c0-.14,0-.27,0-.39l.92-8.1h1.51l-1.35,12h-.87a.59.59,0,0,1-.34-.08.88.88,0,0,1-.24-.26l-4.47-8.6,0,.36,0,.32-.93,8.26h-1.5l1.34-12h.9A.87.87,0,0,1,229.19,213.92Z"/><path class="cls-1" d="M247.79,219a9,9,0,0,1-.2,1.9,7.38,7.38,0,0,1-.57,1.68,6.53,6.53,0,0,1-.89,1.38,5.61,5.61,0,0,1-1.18,1.06,5.47,5.47,0,0,1-1.4.67A5.19,5.19,0,0,1,242,226a4.3,4.3,0,0,1-1.86-.4,4.17,4.17,0,0,1-1.4-1.1,5,5,0,0,1-.88-1.67,6.7,6.7,0,0,1-.31-2.1,9,9,0,0,1,.2-1.91,8.73,8.73,0,0,1,.57-1.68,6.22,6.22,0,0,1,.89-1.39,5.56,5.56,0,0,1,1.17-1.06,5.41,5.41,0,0,1,3-.91,4.15,4.15,0,0,1,1.85.4,4,4,0,0,1,1.4,1.11,5,5,0,0,1,.89,1.67A7.12,7.12,0,0,1,247.79,219Zm-1.77,0a5.71,5.71,0,0,0-.2-1.55,3.56,3.56,0,0,0-.57-1.19,2.67,2.67,0,0,0-.91-.76,2.79,2.79,0,0,0-1.21-.26,3.2,3.2,0,0,0-1.57.38,3.55,3.55,0,0,0-1.22,1.07,5.44,5.44,0,0,0-.79,1.68,7.91,7.91,0,0,0-.28,2.19,5.71,5.71,0,0,0,.2,1.55,3.56,3.56,0,0,0,.57,1.19,2.44,2.44,0,0,0,.9.76,2.63,2.63,0,0,0,1.21.26,3.32,3.32,0,0,0,1.58-.37A3.65,3.65,0,0,0,245,223a5.22,5.22,0,0,0,.79-1.68A7.93,7.93,0,0,0,246,219.07Z"/><path class="cls-1" d="M248.65,213.87H250a.48.48,0,0,1,.35.13.49.49,0,0,1,.16.31l1.65,7.93c.05.21.1.44.14.69s.07.5.1.77c.09-.27.17-.52.26-.77s.18-.48.28-.69l3.41-7.93a.71.71,0,0,1,.23-.3.65.65,0,0,1,.4-.14h1.37l-5.43,12H251.4Z"/><path class="cls-1" d="M266,225.83h-1.32a.52.52,0,0,1-.36-.12.66.66,0,0,1-.17-.32l-.53-2.68h-4.27l-1.12,2.68a.9.9,0,0,1-.24.31.58.58,0,0,1-.38.13h-1.34l5.34-12h1.74Zm-6.08-4.47h3.44l-.86-4.47c0-.17-.06-.37-.1-.59s-.07-.47-.11-.73c-.08.26-.17.51-.26.73s-.16.43-.23.6Z"/><path class="cls-1" d="M274.47,213.87l-.19,1.56h-3.11L270,225.83h-1.7l1.16-10.4h-3.12l.17-1.56Z"/><path class="cls-1" d="M276.3,225.83h-1.72l1.34-12h1.72Z"/><path class="cls-1" d="M289.05,219a9,9,0,0,1-.19,1.9,7.9,7.9,0,0,1-.57,1.68,6.56,6.56,0,0,1-.9,1.38,5.56,5.56,0,0,1-1.17,1.06,5.47,5.47,0,0,1-1.4.67,5.19,5.19,0,0,1-1.59.24,4.3,4.3,0,0,1-1.86-.4,4.08,4.08,0,0,1-1.4-1.1,5,5,0,0,1-.88-1.67,6.7,6.7,0,0,1-.31-2.1,9,9,0,0,1,.2-1.91,7.55,7.55,0,0,1,.57-1.68,6.22,6.22,0,0,1,.89-1.39,5.56,5.56,0,0,1,1.17-1.06A5.16,5.16,0,0,1,283,214a5.3,5.3,0,0,1,1.6-.24,4.15,4.15,0,0,1,1.85.4,4,4,0,0,1,1.4,1.11,5.23,5.23,0,0,1,.89,1.67A7.13,7.13,0,0,1,289.05,219Zm-1.76,0a5.71,5.71,0,0,0-.2-1.55,3.56,3.56,0,0,0-.57-1.19,2.67,2.67,0,0,0-.91-.76,2.79,2.79,0,0,0-1.21-.26,3.2,3.2,0,0,0-1.57.38,3.55,3.55,0,0,0-1.22,1.07,5.44,5.44,0,0,0-.79,1.68,7.91,7.91,0,0,0-.28,2.19,5.34,5.34,0,0,0,.2,1.55,3.75,3.75,0,0,0,.56,1.19,2.56,2.56,0,0,0,.91.76,2.63,2.63,0,0,0,1.21.26A3.35,3.35,0,0,0,285,224a3.65,3.65,0,0,0,1.22-1.07,5.44,5.44,0,0,0,.79-1.68A8.32,8.32,0,0,0,287.29,219.07Z"/><path class="cls-1" d="M292.75,213.92a.53.53,0,0,1,.21.26l4.49,8.6,0-.42c0-.14,0-.27,0-.39l.91-8.1H300l-1.36,12h-.87a.58.58,0,0,1-.33-.08.68.68,0,0,1-.24-.26l-4.48-8.6c0,.12,0,.24,0,.36l0,.32-.93,8.26h-1.51l1.35-12h.89A.84.84,0,0,1,292.75,213.92Z"/><path class="cls-1" d="M312.92,225.83h-1.73l.61-5.35h-5l-.6,5.35h-1.72l1.34-12h1.73l-.6,5.27h5l.59-5.27h1.73Z"/><path class="cls-1" d="M323.9,225.83h-1.32a.49.49,0,0,1-.36-.12.77.77,0,0,1-.18-.32l-.52-2.68h-4.27l-1.13,2.68a.79.79,0,0,1-.24.31.56.56,0,0,1-.37.13h-1.35l5.34-12h1.75Zm-6.09-4.47h3.45l-.86-4.47c0-.17-.07-.37-.1-.59s-.07-.47-.11-.73c-.09.26-.17.51-.26.73s-.17.43-.23.6Z"/><path class="cls-1" d="M331.5,215.89a1,1,0,0,1-.19.21.32.32,0,0,1-.22.07.44.44,0,0,1-.29-.13,3.35,3.35,0,0,0-.38-.31,2.38,2.38,0,0,0-.53-.3,1.91,1.91,0,0,0-.76-.14,2,2,0,0,0-.8.15,1.81,1.81,0,0,0-.59.4,1.66,1.66,0,0,0-.36.6,2,2,0,0,0-.13.75,1.17,1.17,0,0,0,.18.67,1.66,1.66,0,0,0,.48.47,4.67,4.67,0,0,0,.67.36l.77.32a7.85,7.85,0,0,1,.77.38,3.09,3.09,0,0,1,.67.52,2.33,2.33,0,0,1,.47.76,2.76,2.76,0,0,1,.18,1.06,5,5,0,0,1-.27,1.64,4.12,4.12,0,0,1-.78,1.35,3.8,3.8,0,0,1-1.24.91,3.89,3.89,0,0,1-1.63.34,3.59,3.59,0,0,1-.93-.12,3.72,3.72,0,0,1-.85-.31,3.37,3.37,0,0,1-.73-.5,3.31,3.31,0,0,1-.59-.65l.6-.89a.52.52,0,0,1,.19-.17.39.39,0,0,1,.23-.07.48.48,0,0,1,.34.18c.12.12.26.25.43.39a2.88,2.88,0,0,0,.62.4,2.36,2.36,0,0,0,1.76,0,1.74,1.74,0,0,0,.65-.44,1.92,1.92,0,0,0,.4-.7,2.63,2.63,0,0,0,.14-.91,1.29,1.29,0,0,0-.18-.71,1.54,1.54,0,0,0-.47-.48,2.63,2.63,0,0,0-.67-.34l-.76-.3c-.26-.11-.51-.23-.76-.36a2.81,2.81,0,0,1-.67-.52,2.44,2.44,0,0,1-.47-.77,3.11,3.11,0,0,1-.18-1.13,4.46,4.46,0,0,1,.25-1.45,3.67,3.67,0,0,1,.73-1.22,3.55,3.55,0,0,1,2.69-1.17,3.77,3.77,0,0,1,.83.09,3.65,3.65,0,0,1,.74.28,3.22,3.22,0,0,1,.64.42,3.78,3.78,0,0,1,.51.55Z"/><path class="cls-1" d="M344.38,225.83h-1.33a.48.48,0,0,1-.35-.12.67.67,0,0,1-.18-.32l-.53-2.68h-4.26l-1.13,2.68a.79.79,0,0,1-.24.31.58.58,0,0,1-.38.13h-1.34l5.34-12h1.75Zm-6.09-4.47h3.45l-.87-4.47c0-.17-.06-.37-.09-.59s-.08-.47-.11-.73l-.26.73-.24.6Z"/><path class="cls-1" d="M351.16,213.92a.53.53,0,0,1,.21.26l4.49,8.6,0-.42c0-.14,0-.27,0-.39l.91-8.1h1.52l-1.36,12h-.87a.56.56,0,0,1-.33-.08.78.78,0,0,1-.25-.26l-4.47-8.6c0,.12,0,.24,0,.36l0,.32-.93,8.26h-1.51l1.35-12h.89A.87.87,0,0,1,351.16,213.92Z"/><path class="cls-1" d="M368,225.83h-1.33a.48.48,0,0,1-.35-.12.6.6,0,0,1-.18-.32l-.53-2.68h-4.26l-1.13,2.68a.79.79,0,0,1-.24.31.58.58,0,0,1-.38.13h-1.34l5.34-12h1.75Zm-6.09-4.47h3.44l-.86-4.47c0-.17-.06-.37-.1-.59s-.07-.47-.1-.73c-.09.26-.18.51-.27.73s-.16.43-.23.6Z"/><path class="cls-1" d="M375,221.71l.09.41.18-.41a3.6,3.6,0,0,1,.2-.39l4-7.14a1,1,0,0,1,.28-.25.77.77,0,0,1,.34-.06h1.29l-1.35,12h-1.5l.93-8.25a4,4,0,0,1,.06-.43l.09-.49-4,7.15a.71.71,0,0,1-.65.42h-.24a.68.68,0,0,1-.35-.1.58.58,0,0,1-.22-.32l-2.44-7.14c0,.16,0,.31,0,.46s0,.29,0,.41l-.92,8.29h-1.51l1.35-12h1.47l.13.05a.47.47,0,0,1,.12.09,1.42,1.42,0,0,1,.11.16l2.45,7.14A2.85,2.85,0,0,1,375,221.71Z"/><path class="cls-1" d="M390.19,213.87l-.18,1.52h-4.59l-.42,3.68h3.67l-.17,1.46h-3.66l-.44,3.78H389l-.17,1.52h-6.33l1.34-12Z"/><path class="cls-1" d="M238.85,134.68a19.15,19.15,0,0,1-1.12,6.66,15.16,15.16,0,0,1-3.16,5.18,14.24,14.24,0,0,1-4.89,3.36,16.44,16.44,0,0,1-6.35,1.19H211.6V118.29h11.73a16.44,16.44,0,0,1,6.35,1.19,14.24,14.24,0,0,1,4.89,3.36,15.16,15.16,0,0,1,3.16,5.18A19.15,19.15,0,0,1,238.85,134.68Zm-5.15,0a16.4,16.4,0,0,0-.73-5.08,10.75,10.75,0,0,0-2.06-3.8,9.15,9.15,0,0,0-3.27-2.38,10.83,10.83,0,0,0-4.31-.83h-6.66v24.18h6.66a11,11,0,0,0,4.31-.82,8.91,8.91,0,0,0,3.27-2.38,10.93,10.93,0,0,0,2.06-3.8A16.33,16.33,0,0,0,233.7,134.68Z"/><path class="cls-1" d="M273.55,134.68a19.66,19.66,0,0,1-1.12,6.72,15.75,15.75,0,0,1-3.16,5.29,14.38,14.38,0,0,1-4.89,3.47,16.7,16.7,0,0,1-12.68,0,14.52,14.52,0,0,1-4.9-3.47,15.78,15.78,0,0,1-3.17-5.29,20.72,20.72,0,0,1,0-13.44,15.82,15.82,0,0,1,3.17-5.3,14.41,14.41,0,0,1,4.9-3.48,16.58,16.58,0,0,1,12.68,0,14.27,14.27,0,0,1,4.89,3.48,15.8,15.8,0,0,1,3.16,5.3A19.66,19.66,0,0,1,273.55,134.68Zm-5.15,0a16.71,16.71,0,0,0-.72-5.08,11.21,11.21,0,0,0-2.07-3.82,9,9,0,0,0-3.27-2.41,11.3,11.3,0,0,0-8.6,0,9,9,0,0,0-3.27,2.41,10.93,10.93,0,0,0-2.1,3.82,18.11,18.11,0,0,0,0,10.18,10.79,10.79,0,0,0,2.1,3.81,8.94,8.94,0,0,0,3.27,2.39,11.55,11.55,0,0,0,8.6,0,8.94,8.94,0,0,0,3.27-2.39,11.07,11.07,0,0,0,2.07-3.81A16.71,16.71,0,0,0,268.4,134.68Z"/><path class="cls-1" d="M300.62,143.76a1,1,0,0,1,.71.34l2,2.3a12.88,12.88,0,0,1-4.65,3.73,15.33,15.33,0,0,1-6.6,1.3,14.72,14.72,0,0,1-6.15-1.24,13.55,13.55,0,0,1-4.69-3.46,15.45,15.45,0,0,1-3-5.29,20.79,20.79,0,0,1-1.05-6.76,19.82,19.82,0,0,1,1.11-6.77,15.59,15.59,0,0,1,3.13-5.31,14,14,0,0,1,4.83-3.45,15.27,15.27,0,0,1,6.19-1.23,14.07,14.07,0,0,1,10.41,4.22l-1.66,2.48a1.86,1.86,0,0,1-.41.43,1,1,0,0,1-.64.18,1.67,1.67,0,0,1-1-.42,15.73,15.73,0,0,0-1.41-.93,10.79,10.79,0,0,0-2.13-.94,10.39,10.39,0,0,0-3.2-.42,10,10,0,0,0-4.07.82,8.91,8.91,0,0,0-3.19,2.39,11.27,11.27,0,0,0-2.08,3.83,16.17,16.17,0,0,0-.75,5.12,15.81,15.81,0,0,0,.78,5.16,11.46,11.46,0,0,0,2.13,3.82,9.24,9.24,0,0,0,3.19,2.38,9.51,9.51,0,0,0,4,.82,16,16,0,0,0,2.31-.15,8.71,8.71,0,0,0,1.89-.48,8.34,8.34,0,0,0,1.63-.83,10.25,10.25,0,0,0,1.52-1.23A1.26,1.26,0,0,1,300.62,143.76Z"/><path class="cls-1" d="M329.07,118.29v4.44h-9.68v28.34h-5V122.73h-9.7v-4.44Z"/><path class="cls-1" d="M361.33,134.68a19.42,19.42,0,0,1-1.12,6.72,15.73,15.73,0,0,1-3.15,5.29,14.32,14.32,0,0,1-4.9,3.47,16.68,16.68,0,0,1-12.67,0,14.42,14.42,0,0,1-4.9-3.47,15.46,15.46,0,0,1-3.17-5.29,20.72,20.72,0,0,1,0-13.44,15.5,15.5,0,0,1,3.17-5.3,14.31,14.31,0,0,1,4.9-3.48,16.56,16.56,0,0,1,12.67,0,14.22,14.22,0,0,1,4.9,3.48,15.78,15.78,0,0,1,3.15,5.3A19.42,19.42,0,0,1,361.33,134.68Zm-5.15,0a16.71,16.71,0,0,0-.72-5.08,10.88,10.88,0,0,0-2.07-3.82,9,9,0,0,0-3.26-2.41,11.3,11.3,0,0,0-8.6,0,9.11,9.11,0,0,0-3.28,2.41,10.91,10.91,0,0,0-2.09,3.82,18.11,18.11,0,0,0,0,10.18,10.78,10.78,0,0,0,2.09,3.81,9.06,9.06,0,0,0,3.28,2.39,11.55,11.55,0,0,0,8.6,0,8.9,8.9,0,0,0,3.26-2.39,10.74,10.74,0,0,0,2.07-3.81A16.71,16.71,0,0,0,356.18,134.68Z"/><path class="cls-1" d="M371.9,137.87v13.2h-5V118.29H376a18.53,18.53,0,0,1,5.27.66,9.89,9.89,0,0,1,3.63,1.88,7.32,7.32,0,0,1,2.1,2.92,10.08,10.08,0,0,1,.68,3.8,10.3,10.3,0,0,1-.48,3.19,9.31,9.31,0,0,1-1.4,2.69,9.11,9.11,0,0,1-2.27,2.09,11.2,11.2,0,0,1-3,1.39,5.15,5.15,0,0,1,1.62,1.66l8.38,12.5H386A2,2,0,0,1,384,150l-7.24-11a2.42,2.42,0,0,0-.8-.82,2.61,2.61,0,0,0-1.29-.25Zm0-3.87h4a9.19,9.19,0,0,0,3-.45,5.88,5.88,0,0,0,2.15-1.24,5,5,0,0,0,1.3-1.9,6.81,6.81,0,0,0,.43-2.45,5,5,0,0,0-1.68-4.09,7.79,7.79,0,0,0-5.09-1.42H371.9Z"/><path class="cls-1" d="M237.8,166.88a3.67,3.67,0,0,1-.91,1,2,2,0,0,1-1.23.35,3,3,0,0,1-1.43-.42l-1.73-.94a13.85,13.85,0,0,0-2.21-.94,8.82,8.82,0,0,0-2.83-.42,6.11,6.11,0,0,0-4.09,1.17,4,4,0,0,0-1.34,3.17,3,3,0,0,0,.8,2.11,6.86,6.86,0,0,0,2.13,1.44,21.53,21.53,0,0,0,3,1.11c1.13.34,2.28.72,3.46,1.13a32.4,32.4,0,0,1,3.45,1.46,11.51,11.51,0,0,1,3,2.14,10.14,10.14,0,0,1,2.12,3.16,11.28,11.28,0,0,1,.81,4.5,14.76,14.76,0,0,1-1,5.46,12.77,12.77,0,0,1-2.94,4.43,13.49,13.49,0,0,1-4.73,3,17.84,17.84,0,0,1-6.41,1.08,20.47,20.47,0,0,1-4-.4,23.77,23.77,0,0,1-3.94-1.14,23.41,23.41,0,0,1-3.59-1.75,15.28,15.28,0,0,1-2.91-2.25l2.89-4.57a2.78,2.78,0,0,1,.91-.82,2.27,2.27,0,0,1,1.22-.34,3.32,3.32,0,0,1,1.75.55c.59.37,1.25.77,2,1.22a16.85,16.85,0,0,0,2.55,1.21,9.53,9.53,0,0,0,3.41.55,6.52,6.52,0,0,0,4.14-1.17,4.46,4.46,0,0,0,1.47-3.71,3.49,3.49,0,0,0-.81-2.4,6.19,6.19,0,0,0-2.12-1.53,18.57,18.57,0,0,0-3-1.07c-1.12-.31-2.27-.65-3.44-1a25.51,25.51,0,0,1-3.44-1.39,10.83,10.83,0,0,1-3-2.16,10.18,10.18,0,0,1-2.13-3.36,13.25,13.25,0,0,1-.81-5,12,12,0,0,1,3.76-8.64,13.66,13.66,0,0,1,4.54-2.82,16.8,16.8,0,0,1,6.15-1,23.3,23.3,0,0,1,3.77.3,19.19,19.19,0,0,1,3.49.9,18.7,18.7,0,0,1,3.07,1.41,14.14,14.14,0,0,1,2.56,1.86Z"/><path class="cls-1" d="M272.38,183.47c.35.79.7,1.6,1,2.43.33-.85.67-1.68,1-2.49s.74-1.58,1.14-2.31l10.81-21.27A3.58,3.58,0,0,1,287,159a2,2,0,0,1,.68-.45,2.73,2.73,0,0,1,.85-.17q.48,0,1.11,0h7.46v42.1h-8.61V176.22c0-1.18.06-2.45.17-3.82l-11.15,21.65a3.79,3.79,0,0,1-1.4,1.53,4,4,0,0,1-2,.52h-1.33a4,4,0,0,1-2-.52,3.72,3.72,0,0,1-1.4-1.53l-11.21-21.68c.07.68.13,1.35.17,2s.06,1.28.06,1.84v24.21h-8.61v-42.1h7.45q.65,0,1.11,0a2.79,2.79,0,0,1,.86.17,2.12,2.12,0,0,1,.68.45,3.58,3.58,0,0,1,.59.85l10.84,21.36Q271.84,182.28,272.38,183.47Z"/><path class="cls-1" d="M318.22,200.43H308.4v-42.1h9.82Z"/><path class="cls-1" d="M339.32,192.63h15.6v7.8H329.55v-42.1h9.77Z"/><path class="cls-1" d="M390.17,158.33v7.51H372.89v9.83h13.24v7.22H372.89v10h17.28v7.51h-27.1v-42.1Z"/><path class="cls-1" d="M149.72,118.21a53.84,53.84,0,1,0,53.83,53.84A53.85,53.85,0,0,0,149.72,118.21Zm.11,92.21A53.71,53.71,0,0,1,99.45,175.3C111.85,186.8,129.91,194,150,194c19.79,0,37.6-7,50-18.19A53.68,53.68,0,0,1,149.83,210.42Z"/></svg>