<svg id="Capa_1" data-name="Capa 1" xmlns="http://www.w3.org/2000/svg" viewBox="0 0 486.36 343.89"><defs><style>.cls-1,.cls-2{fill:#fff;}.cls-2{fill-rule:evenodd;}</style></defs><title>Logos</title><path class="cls-1" d="M279.78,100.26a36.54,36.54,0,0,1-9.58-1.11l-1.39-.29-3.29-.68,3.35-.19a41.1,41.1,0,0,1,5.31.18c3.31.25,6.73.51,10.36-.71.48-.16,1.06-.42,1.63-.67a13.24,13.24,0,0,1,2.31-.87l.84-.18-.35.78a5.62,5.62,0,0,1-3.24,2.67,18.39,18.39,0,0,1-6,1.07M265,77.12a4,4,0,0,1,1.56-.53l.38-.07.85-.18.82-.18c4.91-1.09,7.54-1.61,8.64-1.76,3.07-.45,3-.05.7.89-.31.12-1,.34-1.92.58-3.14.84-9,2.15-10.81,2l-1.36-.07Zm2.5,3.7a4.28,4.28,0,0,1,1.37-.53l.61-.17h0l.23-.08.41-.11h0c3.1-.81,8.16-2.13,10.76-3.72l.24-.15.23-.16.36-.26a6.58,6.58,0,0,0,2.17-1.94A4.55,4.55,0,0,1,285,72.56l1.24-1-.57,1.46A7.92,7.92,0,0,1,284,75.52h0a10.32,10.32,0,0,1-2.55,2,54.58,54.58,0,0,1-5.19,2.26,32.78,32.78,0,0,1-5.72,1.47c-1.49.3-3.18.47-4.71.7Zm-44,9.82a9,9,0,0,1,2.94-8.07,20,20,0,0,1,10.25-4.74c1.83-.31,7.25-.7,12.57-1,5.1-.26,10.12-.41,11.79-.27l1.28.11-1.08.7c-1.38.88-5.1,1-9.69,1.13-7.71.22-17.93.52-22.79,4.59a14.78,14.78,0,0,0-1.72,1.68,9.36,9.36,0,0,0-1.16,1.61,20,20,0,0,0-1,2.35,10.61,10.61,0,0,0-.53,1.86l-.35,3.5Zm-25.92-.07a22.83,22.83,0,0,1,.53,3.3c.12,1,.24,2,.41,2.81,1.87,8.81,3.94,10.44,5.56,11.72a7.85,7.85,0,0,1,1.43,1.34l.62.8h-.21l-.08,0-.76-.14a6.8,6.8,0,0,1-1.33-.4c-3.1-1.31-5.11-5-6.24-8.81a24.52,24.52,0,0,1-1-9.84,4.16,4.16,0,0,1,.24-.87l.48-1.13Zm8.51-1.83a25.45,25.45,0,0,0-.55,4.15,24.85,24.85,0,0,0,.11,4.14c.08.67.18,1.34.32,2s.29,1.25.48,1.86c.09.3.18.56.28.81s.2.51.33.8a4.89,4.89,0,0,0,.52.92c.35.49.45.63,0,1.2l-.35.45-.34-.45a17.3,17.3,0,0,1-1.93-3h0a14.11,14.11,0,0,1-1.19-4,26.74,26.74,0,0,1,1.52-13.14c1.43-3.64,3.74-6.68,6.9-8.07l1.43-.62-.9,1.27a7,7,0,0,1-1.11,1.16,10.81,10.81,0,0,0-1.15,1.19,23.06,23.06,0,0,0-2.73,4.31,22.27,22.27,0,0,0-1.66,5.08m5.84,17.84,0,.09c0,.13.08.25.13.46l.52,2.13-2-2.68-.38-.73c-1.29-2.49-2.92-5.64-3.34-8.14a24.23,24.23,0,0,1-.26-6.29A22.34,22.34,0,0,1,208,85.48a16.12,16.12,0,0,1,2.65-4.69,24.69,24.69,0,0,1,3.39-3.2,23.74,23.74,0,0,1,5.2-2.83A14,14,0,0,1,224,73.55h1.66l-1.45.82a24.76,24.76,0,0,1-2.84,1.3,19.69,19.69,0,0,0-5.71,3.2,23.34,23.34,0,0,0-3.19,3A14.4,14.4,0,0,0,210,86.12a23.51,23.51,0,0,0-1.38,5.79,19.33,19.33,0,0,0,.12,5.54,39.2,39.2,0,0,0,1.79,5.2c.49,1.28,1,2.52,1.28,3.46h0c0,.1.16.46.16.47m46.77-3a36.25,36.25,0,0,1,6.67,1.33l1,.27,1,.26c2,.52,4.3,1.11,6.31,1.42,7.13,1.09,10.05-1.81,11.7-3.44a5.59,5.59,0,0,1,1.19-1l.93-.52-.3,1a6.73,6.73,0,0,1-1.86,2.87A11.55,11.55,0,0,1,282,108c-5.06,2.19-10.2.66-15.16-.83l-1.1-.33-1.94-.57-1.75-.51-.95-.28-.95-.27-.3-.08a2.31,2.31,0,0,1-1.52-.84l-.56-.74Zm-14.34-4.34a4.92,4.92,0,0,1,3.71-4.9,19.7,19.7,0,0,1,7-.52c4,.22,7.68.59,11.54,1l2.58.26a49.16,49.16,0,0,0,11.46.17c3.71-.53,7.08-1.93,9.2-5.06a10.19,10.19,0,0,0,.78-1.47,7.22,7.22,0,0,1,.53-1l1.08-1.55L292,88c-1.85,12.18-19.48,9.71-31.18,8.07-1.87-.26-3.58-.5-5-.66a20.92,20.92,0,0,0-5.64,0c-1.82.33-3.43,1.1-4.15,2.71l-.21.49a1.77,1.77,0,0,1-.68.94l-.76.7Zm-11.25,2.59-.16-.29a7.8,7.8,0,0,1-.61-5.93,8,8,0,0,1,3.81-4.53c.09,0,.18-.11.29-.16,5.16-2.66,12.4-2.64,20-2.62,8.85,0,18.21,0,25.19-4.17.55-.34,1.1-.68,1.6-1a12.13,12.13,0,0,0,1.36-1.06l.32-.3h0c.75-.73,2-2,2.78-2l.83-.08-.4.73a12.38,12.38,0,0,1-2.1,2.25,33.84,33.84,0,0,1-3.32,2.67c-8,5.23-19.46,5.21-29.31,5.19-7.48,0-14,0-17.11,2.25a7,7,0,0,0-2.18,2.64,5.54,5.54,0,0,0-.51,3.07,7.49,7.49,0,0,0,1.86,3.85,5.11,5.11,0,0,1,1.07,1.81l.26,1.15-.95-.7-.68-.49a5.42,5.42,0,0,1-2-2.21m-30.68,10.3Zm0,0h0Zm0,0h0Zm19.18-5.85c-1.38-.77-2.42-2.54-3.1-4.67a21,21,0,0,1-.86-7.57,20.63,20.63,0,0,1,1.62-6.73A10.21,10.21,0,0,1,222.64,83l.8-.55-.12,1a3.35,3.35,0,0,1-.83,1.5c-1,1.3-2.7,3.51-2.86,9.31a22,22,0,0,0,.6,6.24,33.5,33.5,0,0,0,2,5.3l.53,1.2Zm-19.2,5.86a1.37,1.37,0,0,0-.34.31c-1.71.88-2.6,4-3,8-1.29,7-.19,14.84.53,22,.06.6.11,1.05.13,1.31.22,2.27,1.08.56,2.14-2.46a22.55,22.55,0,0,1-.26-3.52,13.48,13.48,0,0,1,1.73-7.11c.79-2.42,1.64-5.83,1.28-8.51-.63-4.68-2.06-5.79-.51-9.78-.31-.11-.56-.2-.78-.26a1.27,1.27,0,0,0-.89,0Zm92.85,65.25a15.22,15.22,0,0,1,2.54,6.57c.13.59.26,1.21.41,1.84a32.36,32.36,0,0,1,.65,9.35A28.65,28.65,0,0,1,297,204c-.66,1.57-1.3,1.67-2.47,1.7-.35,1.73-.57,3.3-.78,4.81-.19,1.3-.36,2.57-.61,3.86h-1.76c.31-1.51.53-3.07.74-4.62.26-1.84.51-3.67.92-5.39l.06-.27.27-.06a3.74,3.74,0,0,1,.92-.06.94.94,0,0,0,1.11-.65,27,27,0,0,0,1.71-8.29,30.53,30.53,0,0,0-.6-8.81c-.74-3-.87-5.48-2.8-8l-1.21-3.07a38.27,38.27,0,0,0-4.82-7,4.3,4.3,0,0,1-.89-2.71,7.72,7.72,0,0,0-1.57-4.37c-3.58-9.39-2.93-.36-.25-11.06.5-2,.84-4.16,1.15-6.29,1.14-8,2.62-18.2.19-26.09a17.76,17.76,0,0,0-1.47-3.48h.06l-.56-1.13.18-.13a20.72,20.72,0,0,0,1.78-1.47c.39-.4.75-.77,1.07-1.15a11,11,0,0,0,.92-1.27c.73-1.15,1.4-2.38,2-3.63s1.21-2.54,1.75-3.81l1.66-5.13a50.27,50.27,0,0,0,.89-19.33,37.57,37.57,0,0,0-6-15.63c-2.38,4-4.68,7.14-8.89,9.28-4.37,2.22-10.79,3.36-21.5,3.36-1.77,0-3.55,0-5.34-.11s-3.54-.2-5.29-.38l-1.86-.21,1.76-.64a15.52,15.52,0,0,0,5.23-3.41A8.19,8.19,0,0,0,255,66c-11.41,2.57-13.79,2.36-18.78,1.91a113,113,0,0,0-11.39-.52c-.94,0-1.91,0-2.9.09-5.94.38-12.79,2-18.14,5.33s-9.13,8.53-9.13,16.13c0,.51,0,1,.05,1.52v.64a31.14,31.14,0,0,0,.73,8.43c.11.38.19.69.26,1s.19.82.34,1.26a34.19,34.19,0,0,0,1.64,3.94,18.77,18.77,0,0,0,2.25,3.53c.11.14.51.56.93,1l.24.26-1.88,3.72a19.06,19.06,0,0,0-1.47,3.48c-2.43,7.89-.94,18.11.2,26.09.31,2.13.65,4.28,1.15,6.29,2.67,10.7,3.33,1.67-.25,11.06a7.64,7.64,0,0,0-1.57,4.37,4.36,4.36,0,0,1-.89,2.71,38.27,38.27,0,0,0-4.82,7l-1.21,3.07c0,.1-.07.2-.1.3-.14.42-.29.84-.44,1.21a.8.8,0,0,1,.52.34c.82,1,.47,2.27.2,3.26,0,.13-.07.26-.09.35a54.71,54.71,0,0,0-.84,10.86c0,3.3.31,6.29,1,7.44.33.58.62.56.88.55.72,0,1.27-.06,1.46,2.1.08.93.15,1.92.23,2.9.17,2.3.34,4.58.67,6.82h-1.76c-.32-2.23-.48-4.48-.65-6.73-.07-.88-.13-1.76-.23-2.84,0-.48.84-.51.54-.5a2.43,2.43,0,0,1-2.65-1.44c-.87-1.52-1.19-4.81-1.2-8.33a60,60,0,0,1,1-11.63h0a4.43,4.43,0,0,0,.24-1.46l-1.7-.19,2.54-6.69.06-.14a38.08,38.08,0,0,1,5-7.2l.07-.09a1.91,1.91,0,0,0,.36-.69h0a5.94,5.94,0,0,0,.14-1.06,9.12,9.12,0,0,1,1.76-5,26.46,26.46,0,0,1,2-4.27,26.35,26.35,0,0,1-1.87-5.56h0c-.27-1.07-.48-2.14-.67-3.21s-.35-2.13-.51-3.25l0-.11c-1.16-8.13-2.65-18.5-.12-26.73a43.54,43.54,0,0,1,2.79-6.19l.11-.21a18.8,18.8,0,0,1-1.21-1.48,19.94,19.94,0,0,1-1.65-2.82c-.74-1.49-1.46-3.8-2.08-5.43a1.21,1.21,0,0,0-.05-.18c-.07-.29-.14-.59-.22-.88h0a25.17,25.17,0,0,1-.78-7.36c0-.67,0-1.35,0-2.08,0-.21,0-.48,0-.81v-.82a19.85,19.85,0,0,1,8.77-16.81c6.52-4.65,15.6-6.49,23.15-6.49,5.13,0,8.31.28,10.9.51,5,.43,7.71.67,18.88-1.85l2.81-.63-.75,2.78a10.25,10.25,0,0,1-3.09,4.65,16.11,16.11,0,0,1-1.44,1.18,103.09,103.09,0,0,0,13.84,0c5.12-.4,9.79-1.3,13-2.94a15.75,15.75,0,0,0,4.62-3.54h0a31.56,31.56,0,0,0,3.55-5.08l1.39-2.34,1.54,2.24a36.64,36.64,0,0,1,4,7.61,42.81,42.81,0,0,1,2.28,8.74,50.78,50.78,0,0,1,.52,10,51.86,51.86,0,0,1-1.44,10l0,.12-1.67,5.12,0,.07a48.61,48.61,0,0,1-2.46,5.22,27,27,0,0,1-2.54,4l-.1.11-2.11,1.92,1.25,2.48h-.18c.14.37.28.77.42,1.22,2.53,8.23,1,18.6-.12,26.73l0,.11c-.16,1.12-.32,2.22-.5,3.25s-.41,2.14-.68,3.21h0a26.35,26.35,0,0,1-1.87,5.56,27.12,27.12,0,0,1,2,4.27,9.49,9.49,0,0,1,1.75,5,7,7,0,0,0,.14,1.06h0a1.91,1.91,0,0,0,.36.69l.08.09a38.83,38.83,0,0,1,5,7.2l0,.12Zm-14.43-63.68h0l-.44,0c1.21,4.61-2.46,8.41.33,17a13.48,13.48,0,0,1,1.73,7.11,23.75,23.75,0,0,1-.25,3.52c1,3,1.92,4.73,2.13,2.46,0-.26.07-.71.13-1.31.73-7.15,1.83-15,.54-22a17.74,17.74,0,0,0-1.67-6.62l-1.29-.07-1.21-.07"/><path class="cls-1" d="M279.78,100.26a36.54,36.54,0,0,1-9.58-1.11l-1.39-.29-3.29-.68,3.35-.19a43,43,0,0,1,5.31.17c3.31.26,6.73.52,10.36-.7.48-.16,1.06-.42,1.63-.67a13.24,13.24,0,0,1,2.31-.87l.84-.18-.35.78a5.61,5.61,0,0,1-3.25,2.67,18.28,18.28,0,0,1-5.94,1.07"/><path class="cls-1" d="M265,77.12a4,4,0,0,1,1.56-.53l.38-.07.85-.18.82-.18c4.91-1.09,7.54-1.61,8.64-1.76,3.07-.45,3-.05.7.89-.31.12-1,.33-1.92.58-3.14.84-9,2.15-10.81,2l-1.36-.07Z"/><path class="cls-1" d="M267.53,80.82a4.28,4.28,0,0,1,1.37-.53l.61-.17h0l.23-.08.41-.11h0c3.1-.81,8.16-2.13,10.76-3.72l.24-.15.23-.16.36-.26a6.47,6.47,0,0,0,2.17-1.94A4.55,4.55,0,0,1,285,72.56l1.24-1-.57,1.46A7.92,7.92,0,0,1,284,75.52h0a10.32,10.32,0,0,1-2.55,2,54.58,54.58,0,0,1-5.19,2.26,32.78,32.78,0,0,1-5.72,1.47c-1.49.3-3.18.47-4.71.7Z"/><path class="cls-1" d="M223.5,90.64a9,9,0,0,1,2.94-8.07,20,20,0,0,1,10.25-4.74c1.83-.31,7.25-.7,12.57-1,5.1-.26,10.12-.41,11.79-.27l1.28.11-1.08.7c-1.38.88-5.1,1-9.69,1.13-7.71.22-17.93.52-22.79,4.59a15.47,15.47,0,0,0-1.72,1.67,9.84,9.84,0,0,0-1.16,1.62,20,20,0,0,0-1,2.35,10.61,10.61,0,0,0-.53,1.86l-.35,3.5Z"/><path class="cls-1" d="M197.58,90.57a22.83,22.83,0,0,1,.53,3.3c.12,1,.24,2,.41,2.81,1.87,8.81,3.94,10.44,5.56,11.72a7.85,7.85,0,0,1,1.43,1.34l.62.8h-.21l-.08,0-.76-.14a6.8,6.8,0,0,1-1.33-.4c-3.1-1.31-5.1-5-6.24-8.81a24.52,24.52,0,0,1-1-9.84,4.16,4.16,0,0,1,.24-.87l.48-1.13Z"/><path class="cls-1" d="M206.09,88.74a25.45,25.45,0,0,0-.55,4.15,24.85,24.85,0,0,0,.11,4.14c.08.67.18,1.34.32,2s.29,1.25.48,1.86c.09.3.18.56.28.81s.2.51.33.8a4.89,4.89,0,0,0,.52.92c.35.49.45.63,0,1.2l-.35.45-.35-.45a17.47,17.47,0,0,1-1.92-3h0a14.11,14.11,0,0,1-1.19-4,26.74,26.74,0,0,1,1.52-13.14c1.43-3.64,3.74-6.68,6.9-8.07l1.43-.62-.9,1.27a7,7,0,0,1-1.11,1.16,10.81,10.81,0,0,0-1.15,1.19,23.06,23.06,0,0,0-2.73,4.31,22.27,22.27,0,0,0-1.66,5.08"/><path class="cls-1" d="M211.93,106.58l0,.09c0,.13.08.25.13.46l.52,2.13-2-2.68-.38-.73c-1.29-2.5-2.92-5.64-3.34-8.14a24.23,24.23,0,0,1-.26-6.29A22.34,22.34,0,0,1,208,85.48a16.12,16.12,0,0,1,2.65-4.69,24.69,24.69,0,0,1,3.39-3.2,23.74,23.74,0,0,1,5.2-2.83A14,14,0,0,1,224,73.55h1.66l-1.45.82a24.76,24.76,0,0,1-2.84,1.3,19.69,19.69,0,0,0-5.71,3.2,23.34,23.34,0,0,0-3.19,3A14.4,14.4,0,0,0,210,86.12a23.51,23.51,0,0,0-1.38,5.79,19.33,19.33,0,0,0,.12,5.54,39.2,39.2,0,0,0,1.79,5.2c.49,1.27,1,2.52,1.28,3.46h0c0,.1.16.46.16.47"/><path class="cls-1" d="M258.7,103.61a36.25,36.25,0,0,1,6.67,1.33l1,.27,1,.26c2,.52,4.3,1.11,6.31,1.41,7.13,1.1,10.05-1.8,11.7-3.43a5.59,5.59,0,0,1,1.19-1l.93-.52-.3,1a6.73,6.73,0,0,1-1.86,2.87A11.55,11.55,0,0,1,282,108c-5.06,2.19-10.2.66-15.16-.83l-1.1-.33-1.94-.57-1.75-.51-.95-.28-.95-.27-.3-.08a2.31,2.31,0,0,1-1.52-.84l-.56-.73Z"/><path class="cls-1" d="M244.36,99.27a4.91,4.91,0,0,1,3.71-4.9,19.93,19.93,0,0,1,7-.53c4,.23,7.68.6,11.54,1l2.58.25a49.72,49.72,0,0,0,11.46.17c3.71-.53,7.08-1.93,9.2-5.06a10.19,10.19,0,0,0,.78-1.47,7.22,7.22,0,0,1,.53-1l1.08-1.55L292,88c-1.85,12.18-19.48,9.71-31.18,8.07-1.87-.27-3.58-.51-5-.66a20.92,20.92,0,0,0-5.64,0c-1.82.33-3.43,1.1-4.15,2.71l-.21.49a1.77,1.77,0,0,1-.68.94l-.76.7Z"/><path class="cls-1" d="M233.11,101.86l-.16-.29a7.75,7.75,0,0,1-.61-5.93,8,8,0,0,1,3.81-4.53c.09,0,.18-.11.29-.16,5.16-2.66,12.4-2.64,20-2.62,8.85,0,18.21,0,25.19-4.17.55-.34,1.1-.68,1.6-1a11.28,11.28,0,0,0,1.36-1.06c.09-.08.19-.19.32-.3h0c.75-.73,2-2,2.78-2l.83-.08-.4.73A12.16,12.16,0,0,1,286,82.63a32.75,32.75,0,0,1-3.31,2.67c-8,5.23-19.46,5.21-29.31,5.19-7.47,0-14,0-17.11,2.25a7,7,0,0,0-2.18,2.64,5.54,5.54,0,0,0-.51,3.07,7.49,7.49,0,0,0,1.86,3.85,5.11,5.11,0,0,1,1.07,1.81l.26,1.16-.95-.71-.68-.49a5.42,5.42,0,0,1-2-2.21"/><path class="cls-1" d="M202.43,112.16Z"/><path class="cls-1" d="M202.44,112.16h0Z"/><path class="cls-1" d="M202.45,112.15h0Z"/><path class="cls-1" d="M221.63,106.3c-1.38-.77-2.42-2.54-3.1-4.67a21,21,0,0,1-.86-7.57,20.63,20.63,0,0,1,1.62-6.73A10.11,10.11,0,0,1,222.64,83l.8-.56-.12,1a3.35,3.35,0,0,1-.83,1.5c-1,1.3-2.7,3.51-2.86,9.31a22,22,0,0,0,.6,6.24,33.5,33.5,0,0,0,2,5.3l.53,1.2Z"/><path class="cls-1" d="M202.43,112.16a1.06,1.06,0,0,0-.33.31c-1.72.88-2.61,4-3,8-1.29,7-.19,14.84.53,22,.06.6.11,1.05.13,1.31.22,2.27,1.08.56,2.14-2.46a22.55,22.55,0,0,1-.26-3.52,13.48,13.48,0,0,1,1.73-7.11c.79-2.42,1.64-5.83,1.28-8.51-.63-4.68-2.06-5.79-.51-9.78-.31-.11-.56-.2-.78-.26a1.27,1.27,0,0,0-.89,0Z"/><path class="cls-1" d="M280.85,113.73h0l-.44,0c1.21,4.61-2.46,8.41.33,17a13.48,13.48,0,0,1,1.73,7.11,23.75,23.75,0,0,1-.25,3.52c1,3,1.92,4.73,2.13,2.46,0-.26.07-.71.13-1.31.73-7.15,1.83-15,.54-22a17.74,17.74,0,0,0-1.67-6.62l-1.29-.07-1.21-.07"/><path class="cls-1" d="M192.08,194.59a84.56,84.56,0,0,1,1.11-10.28,18.48,18.48,0,0,0,.25-3.35l-.88,1.65c-1.51,2.81-1.79,9.24-1.35,12l.56,3.49Zm3.55-9.94a13.71,13.71,0,0,0,0,4.52,8.78,8.78,0,0,0,3.32,6.14l.08.07.27.26.3-.23c.23-.18.57-.13.42-.65-.07-.23-.36-.45-.56-.71l-1.32-1.91a10.17,10.17,0,0,1-.89-8,20.56,20.56,0,0,0,.41-2.55l.2-2.5-1,2.29a10,10,0,0,0-1.21,3.29m23-7.78c-.3.85-7.3,4.1-7.6,6l-.32,2.05,1.12-1.75c.85-1.33,7.91-3.47,7.67-6.26l.49-2.29Zm9.52,1.79c-7.68,2.63-14.84,10.87-24.37,8.48a23.41,23.41,0,0,1-2.25-.87l-2.36-.73,3,2.28c6.36,2.85,12.41-.42,17.36-3.09,2.16-1.16,4.29-2.41,6.42-3.62a24.18,24.18,0,0,1,4.8-1.76,15.14,15.14,0,0,1,2-.3l-1.45-.49-1.2-.43ZM213.06,191c-2.82.32-4.08.66-7.21.14l-3.42-.56,3.18,1.39a9.32,9.32,0,0,0,6.79.41l2.58-1.6Zm-5.18,4.44c-.89-.56-2.19-.83-3.07-1.33a11.1,11.1,0,0,1-5.9-7.28l-.46-1.49-.38,1.51c-.42,1.69,1,4.13,2.5,5.8a11.19,11.19,0,0,0,5.23,3.43,8.46,8.46,0,0,0,3.17,0Zm13.41-3.69-10.77,5.69,2.81-.51c3.57-.66,5.83-2.32,8.56-3.84l1.55-.94,5.94-3.76,3.17-1.75c3.48-1.75,4.54-1.87,5.49-2a7.15,7.15,0,0,0,1.49-.29l.38-.11,1.39-1.05-1.41.07c-6.24.29-13.62,5.16-18.6,8.46m-4.14-2.33c2-.06,2.3.07,4.1-.88h0a4.16,4.16,0,0,0,2.06-1.6l.7-1.11-1.22.47a26.6,26.6,0,0,0-4.4,2.27Zm9-4.6,2.47-.44c2-.36,4.45-1.83,7.13-2a7.55,7.55,0,0,1,1.32.07,6.08,6.08,0,0,0,2.77-.21l-1.07-.57c-3.35-1.78-7.68.37-10.44,1.94Zm9.68,1.9a32.29,32.29,0,0,0-5.9,3.26l-.34.42h0l0,0-.11.18-.68,1.09,1.2-.45a3.72,3.72,0,0,0,1-.43c.33-.18.84-.44,1.44-.74a40.7,40.7,0,0,0,4.48-2.53.32.32,0,0,0,.2-.15,3.06,3.06,0,0,0,.36-.33l.94-1.12-1.36.41a.48.48,0,0,0-.49.2,2.19,2.19,0,0,0-.76.16m-16.24,9.4-1,.27c-3.89,1-3.37,2.32-9.55,2.25l-1.35,0,1.09.8a2,2,0,0,0,1.54.54,14.6,14.6,0,0,0,7.77-2c.52-.31.6-.21.82-.61Zm28-9.07,9,4.62c.85.43,1.19.31,1.3-.13l.47-.35c-1.88-1.05-3.9-2.29-5.84-3.32s-3.9-2.25-6.43-2.2l-2.44.06,3.17,1.09.18.05h0a5.27,5.27,0,0,1,.57.18m2.95-1.44a64.68,64.68,0,0,1,11.13,6c4.33,2.7,8.3,5.19,11.21,5.42l1.71.13-1.44-.94a28.78,28.78,0,0,0-3.36-1.44,64.75,64.75,0,0,1-6.26-3.75c-5.27-3.4-11.57-7.46-16.51-7.52l-2.79,0Zm-3.08-2.92a12.22,12.22,0,0,1,6.74.75,17.73,17.73,0,0,0,3.08.92l6.26,1.22-6-2.06c-.39-.13-.91-.36-1.53-.63-2.71-1.19-7-3.06-8.89-.93l-.75.85Zm4.71-3.54c5,.1,9.42,2.86,13.84,5.45a31.73,31.73,0,0,0,8.53,3.91c2.56.64,8.59.91,10.45-1.44l1-1.23c-1.32,1-11.79,3.06-19.6-2.6a30.91,30.91,0,0,0-11.22-5.12c-1,.36-2,.7-3,1m12.14-2.26c-.25,2.79,6.81,4.93,7.66,6.26l1.13,1.75-.33-2.05c-.29-1.88-7.29-5.13-7.59-6l-1.37-2.27ZM267,188.44l-1.88-1.13-.43-.21-1.9-1-.52.23-.09.13c-.16.31.27.75.84,1.15l1.3.85a6.36,6.36,0,0,0,2.62,1l.11,0,0,0,1.24.19-1-.95h0Zm9.4,10.55c-6.4-.56-5.93-1.71-8.89-2.28l-4.9-.93,4.67,1.77a9.61,9.61,0,0,1,1.72.91c1.51.93,3,1.86,7.41,1.4l4.52-.48Zm-2.11-6.53c2.57,1.61,6.84.29,8.88-1.12l2.84-2a7.65,7.65,0,0,1-2.08,3c-2.69,2.47-4.12,2.16-5.33,3.15l-.88.72a12.09,12.09,0,0,0,1.9,0,9.57,9.57,0,0,0,4.89-2.5l.62.65h.2a.47.47,0,0,0,.32-.13l.21-.12a10.55,10.55,0,0,0,2-2.35,12.71,12.71,0,0,0,0-11.78l-.75-1.45h-.2l.12,1.68a10.88,10.88,0,0,0,.24,1.22c1.5,6.75.45,4-.91,7.16l-3.62,2c-2.42,1.32-5.31,1.08-8.19,1.05l-1.55,0Zm18.74-5.2a54.82,54.82,0,0,1,.76,10.17l.06,2.8.79-2.68c.65-2.19.51-6.08-.16-9.87s-1.78-7.17-3.24-9.12h-.88l1.13,3.22a28.67,28.67,0,0,1,1.54,5.48m-2,12.34.55-3.69-1,.84c-.26.19-.37.27-.56,1-.67,2.45-1.76,13.49-1.82,15.05l-.06,1.61h.24L289,213c.91-2,1.28-5.83,1.39-7.95a41.05,41.05,0,0,1,.6-5.42m-5,14.15a28.39,28.39,0,0,0,.13-9.37,9.72,9.72,0,0,1-.13-2l-.87-.1c-.1.69-.14,3.35-.15,4.13s0,1.59,0,2.42c-.07,1.89-.26,3.7-.36,5.59h1.28Zm-1.78.64a7.77,7.77,0,0,0-.54-3.85l-.79-1.23c0,1.7,0,3.43-.06,5.08Zm-3.75,0c-.18-1.3-.45-2.3-.77-3.92l-1.09-5.41.37,9.33Zm-4.58,0-.3-1-.11,1Zm-6.91,0-1.85-4.57a8.61,8.61,0,0,0-1.19-2.31l-.89-.91a8.2,8.2,0,0,0,.86,3.54,31.47,31.47,0,0,1,1.5,4.25Zm-73-3.72-1-10.75-.21-2.53-.65,2.46a19.07,19.07,0,0,0-.23,5.2,40.07,40.07,0,0,0,.89,6.67l.19.66a7.15,7.15,0,0,0,.57,1.69l.16.32h.74l-.32-2.39Zm3.29-10.46a27.85,27.85,0,0,0-2.13,10,19,19,0,0,0,.29,4.15h1.66a21.45,21.45,0,0,1-.4-6c.12-1.77,1-5.83,1.28-7.35l.13-.69-.1-1.65Zm9,6.93c-1.92,1.18-2.95,4.31-3.37,6.27l-.2,1h1.4a13.82,13.82,0,0,1,1.32-3.95c.23-.44.47-.87.69-1.28l1.4-2.78Zm2.47,3.25a28.47,28.47,0,0,0-1,4h1.46a15.39,15.39,0,0,1,2.57-7,5.28,5.28,0,0,0,1-1.63l.37-1-1,.48c-1.52.76-2.65,2.78-3.44,5.15M225,196.63s6.56,8.22,3.71,15.51a3.84,3.84,0,0,1-.45,1,8.46,8.46,0,0,1-.44.77h0l-.25.47h-1.47c.2-.37.41-.72.63-1.06a12.94,12.94,0,0,0-1.53-13.56Zm10.49.22s3.21,4.92,1.62,14.3c-.17,1-.4,2.11-.7,3.24h-.63c-.55-1.36-.45-1.16,0-3.24A25.27,25.27,0,0,0,233.32,195Zm14.08,1.72c-1.43,1.39-4.5,5.61-4.25,15.82h-1.4c-.21-9.49,2.42-14.18,4.14-16.23a44.22,44.22,0,0,1,4.13-3.48,15.27,15.27,0,0,1-2.62,3.89m.63,10s0,2.44.16,5.83h-1.55c-.08-3.49,0-5.93,0-5.94Zm-29.94,5.83A59.68,59.68,0,0,0,218.33,202l-.64,3.06a56.14,56.14,0,0,1,1.21,9.3Zm41.29,0c0-.8-.06-1.58-.06-2.31v-1.81l.82,1.61a9.88,9.88,0,0,1,.6,2.51Zm-6.77,0c-1-9.36,1.75-14.21,3.73-16.41.63-.7,2.33-2.66,2.19-2.31-.6,1.52,0,1.83-1.48,3.59-1.77,2.09-4,6.59-3,15.13Z"/><path class="cls-2" d="M273.8,164.23a14,14,0,0,0,6.25-3.24c-.9,4.95-.06,5.44-1,4.4s-3.16.47-7.44,1.16-2.09-1.16,2.2-2.32m-36.42,11.36c-3.45-.15-2.26-5.3-1.57-9.35s2.65-11.55,6.24-11.55,5.54,7.49,6.23,11.55,1.88,9.2-1.57,9.35c-5.73.25-2.92-5.53-4.66-5.53s1.07,5.78-4.67,5.53M204,161a14,14,0,0,0,6.26,3.24c4.29,1.16,6.49,3,2.2,2.32s-6.49-2.2-7.44-1.16-.12.55-1-4.4m58.12,7.65c2.45.29,3.73.83.88,2-6.39,2.53-7.66,3.53-7.34,1.74.35-2,5.56-2.26,2.08-4.12s-8.11-10.19-3.59-4.34a11.76,11.76,0,0,0,8,4.76M244.55,148.3s4.23,9.9,12.33,13.21,3.07,1.85.41,1.21-7.24-4.63-7.07-2.32.64,4.23-1,.81-8.8-16.33-4.69-12.91m.72-13.52c2.54-2.9,14.44-8.64,18.34-5.9,1.18.82-2.37.87-5.9,2.09-7.35,2.55,4.63,1.4-8.64,3.54-5.09.83-2.73,2.18-1.59,3,.47.31,4.18,2.52,2.14,2.84-2.43.38-4.94,1.11-6.19-1.73-.56-1.28.7-2.5,1.84-3.79m-23.34,33.86a11.76,11.76,0,0,0,8-4.76c4.52-5.85-.11,2.49-3.59,4.34s1.74,2.15,2.09,4.12c.31,1.79-1,.79-7.35-1.74-2.84-1.13-1.56-1.67.88-2m5.28-7.13c8.11-3.31,12.34-13.21,12.34-13.21,4.11-3.42-3.07,9.5-4.69,12.91s-1.16,1.51-1-.81-4.4,1.68-7.06,2.32-7.71,2.09.4-1.21m-6.73-32.63c3.91-2.74,15.8,3,18.35,5.9,1.13,1.29,2.39,2.51,1.83,3.79-1.24,2.84-3.76,2.11-6.19,1.73-2-.32,1.68-2.53,2.14-2.84,1.14-.77,3.51-2.12-1.58-3-13.28-2.14-1.29-1-8.64-3.54-3.53-1.22-7.08-1.27-5.91-2.09M245,144.2V144l.45-1.23a9.76,9.76,0,0,0,2,.12c2.65,0,4.12-.45,5.17-1.21a39.75,39.75,0,0,0,5.5-3.29c1.54-1,3.64-2.34,5.5-3.37a39.39,39.39,0,0,1,6.43-1.94,10.1,10.1,0,0,1,3.09.62,11.63,11.63,0,0,1,2.91,3.72c-.29.26,3.07,3.06,2,7.54-5.33,21.57-13.59,5.45-22.74,9.82-1.9-1.36-2.36-3.08-4.43-4.18L245.46,145a7.68,7.68,0,0,0-.49-.79m-5.85-.19v.19c-.23.35-.38.58-.49.79l-5.34,5.62c-2.07,1.1-2.52,2.82-4.43,4.18-9.14-4.37-17.4,11.75-22.73-9.82-.82-3.31,1.87-9,4.86-11.26a10.23,10.23,0,0,1,3.1-.62,39.39,39.39,0,0,1,6.43,1.94c1.86,1,3.95,2.37,5.5,3.37a39.18,39.18,0,0,0,5.5,3.29c1,.76,2.52,1.19,5.17,1.21a9.82,9.82,0,0,0,2-.12Zm38.24-30.28c-3.65,0-5-.36-9.41-2-7.33-2.64-8.83-4.32-19.94-5.41a83.21,83.21,0,0,0-16-.45c-11.79,1.07-15.8,4.74-22.28,6.24a12.8,12.8,0,0,1-1.94.29,7.56,7.56,0,0,0-1.88,7.89,47.71,47.71,0,0,0,3.1,7.58,5.23,5.23,0,0,1,.54.12c2.4.69,4.88,1.13,7.24,1.74s3.48,1.1,1.37,1.61c-1,.18-12.11-.79-12.9,5.35a20.72,20.72,0,0,0,0,7.77c.58,3.05-1.89,14.31-2.7,15.34-2.32,4.61-4.37,8.68,3.37,15,2.46,2,1.81,1.47,4.14,0,3.68-2.31,4.66-2.73,9-2.31l7.18,1.37c5.15,1.59,9.25,4,14.08,4.55l1.65.1h.22c5.54-.08,10-2.89,15.64-4.65,1.73-.9,5.2-1.09,7.22-1.38,4.31-.61,7,.72,10.13,3.11,1.21.93,1.4.54,3-.79,7.73-6.32,5.68-10.39,3.36-15-.81-1-3.27-12.29-2.69-15.34a20.51,20.51,0,0,0,0-7.77c-.78-6.14-11.95-5.17-12.9-5.35-2.11-.51-.93-1,1.38-1.61s4.83-1.05,7.24-1.74a5.23,5.23,0,0,1,.54-.12,47.85,47.85,0,0,0,3.09-7.58,7.25,7.25,0,0,0-.86-6.61"/><path class="cls-1" d="M199.63,258.44a.31.31,0,0,1-.35-.35v-5.15a.31.31,0,0,1,.35-.34h8.24a4,4,0,0,0,3-1.3,4.35,4.35,0,0,0,1.22-3.1,4,4,0,0,0-1.25-3,4.12,4.12,0,0,0-3-1.22h-6.29a.44.44,0,0,1-.5-.5v-5.19a.38.38,0,0,1,.1-.23.32.32,0,0,1,.25-.12h2.8a4,4,0,0,0,2.92-1.25,4.24,4.24,0,0,0-3-7.19h-3.59a1.72,1.72,0,0,0-1.22.5,1.59,1.59,0,0,0-.53,1.2v1.3a.3.3,0,0,1-.12.24.36.36,0,0,1-.23.1h-4.34c-.27,0-.4-.11-.4-.34v-8.64c0-.23.13-.35.4-.35h10a10.08,10.08,0,0,1,5.15,1.37,10.36,10.36,0,0,1,3.72,3.72,10.2,10.2,0,0,1-.23,10.59,10.48,10.48,0,0,1,4,3.81,10.07,10.07,0,0,1,1.44,5.22,9.92,9.92,0,0,1-1.37,5.14,10.3,10.3,0,0,1-8.91,5.1Z"/><path class="cls-1" d="M227.64,258.44a1,1,0,0,1-.72-.3,1,1,0,0,1-.33-.75v-32.9a1,1,0,0,1,.33-.73,1,1,0,0,1,.72-.32H233a1,1,0,0,1,.75.32,1.06,1.06,0,0,1,.3.73v26.56a1,1,0,0,0,.3.72.91.91,0,0,0,.7.33h12.08a1,1,0,0,1,.75.3,1,1,0,0,1,.3.69v4.3a1,1,0,0,1-1.05,1.05Z"/><path class="cls-1" d="M268.28,258.44a1.05,1.05,0,0,1-.65-.23,1.1,1.1,0,0,1-.4-.52l-2.5-9.29a1.51,1.51,0,0,0-.55-.75,1.37,1.37,0,0,0-.84-.3H255.8a.78.78,0,0,1-.58-.22.73.73,0,0,1-.22-.53v-3.84a.8.8,0,0,1,.22-.55.73.73,0,0,1,.58-.25h6a.9.9,0,0,0,.72-.32.77.77,0,0,0,.13-.78l-2.8-10.18a1.2,1.2,0,0,0-.5-.7,1.4,1.4,0,0,0-.85-.3h-.35a1.35,1.35,0,0,0-.8.3,1.23,1.23,0,0,0-.49.7L255,237.37a.77.77,0,0,1-.38.45.82.82,0,0,1-.62.05l-4.69-1.15a.67.67,0,0,1-.48-.35.71.71,0,0,1-.07-.6l3.14-11.53a1.21,1.21,0,0,1,.43-.55,1,1,0,0,1,.62-.25h10.73a1.2,1.2,0,0,1,.65.22,1,1,0,0,1,.45.53L274,257.74v.1a.53.53,0,0,1-.6.6Z"/><path class="cls-1" d="M295.44,258.89a17,17,0,0,1-8.84-2.4A18.12,18.12,0,0,1,280.18,232a18.05,18.05,0,0,1,6.42-6.54,16.93,16.93,0,0,1,8.84-2.42,17.11,17.11,0,0,1,7.21,1.55,17.69,17.69,0,0,1,5.82,4.24.73.73,0,0,1-.05,1l-3.6,3.1a.77.77,0,0,1-.55.24.63.63,0,0,1-.5-.24,11.25,11.25,0,0,0-8.33-3.7,10.89,10.89,0,0,0-5.72,1.57,11.8,11.8,0,0,0,0,20.22,11.23,11.23,0,0,0,10.06.7,11.51,11.51,0,0,0,3.64-2.47,1.4,1.4,0,0,1,.95-.4.94.94,0,0,1,.7.25l.95.8,2,1.8a1.1,1.1,0,0,1,.5.94.82.82,0,0,1-.25.6,17.42,17.42,0,0,1-12.83,5.6"/><path class="cls-1" d="M336.27,258.44a4.45,4.45,0,0,1-1.52-.28,1.91,1.91,0,0,1-.77-.67L328.69,250a1.78,1.78,0,0,1-.35-.9,1.52,1.52,0,0,1,.4-1l.92-1.07q.52-.63,1-1.17l1.05-1.25a.85.85,0,0,1,.7-.4.88.88,0,0,1,.75.45l9,12.73a.78.78,0,0,1,.11.35c0,.43-.3.66-.9.7Zm-19.17,0a.87.87,0,0,1-.62-.28.86.86,0,0,1-.27-.62V224.39a.94.94,0,0,1,.27-.68.86.86,0,0,1,.62-.27h5.4a.86.86,0,0,1,.62.27.94.94,0,0,1,.27.68v11.48L333.53,224a1.35,1.35,0,0,1,1.1-.55h7.14c.36,0,.58.07.64.2a.34.34,0,0,1-.05.4l-18.17,21.27a3.59,3.59,0,0,0-.8,2.39v9.84a.91.91,0,0,1-.24.62.87.87,0,0,1-.65.28Z"/><path class="cls-1" d="M163.86,235a.53.53,0,0,1,.41.19.67.67,0,0,1,.17.46V258.2a.64.64,0,0,1-.17.45.58.58,0,0,1-.41.17h-3.39a.6.6,0,0,1-.41-.17.64.64,0,0,1-.17-.45V244.67c0-.2,0-.31-.13-.31s-.17.08-.31.24c-.37.55-1,1.4-1.79,2.57s-1.44,2-1.83,2.52a2.68,2.68,0,0,1-.57.59,1.46,1.46,0,0,1-.73.13H154a2.28,2.28,0,0,1-.84-.1,1.62,1.62,0,0,1-.5-.45l-3.72-5.22c-.09-.21-.19-.31-.31-.31s-.13.1-.13.31v4.23a.6.6,0,0,1-.18.45.54.54,0,0,1-.4.17h-3.35a.65.65,0,0,1-.62-.62V235.65a.6.6,0,0,1,.19-.46.57.57,0,0,1,.43-.19h3.41a.46.46,0,0,1,.26.12.67.67,0,0,1,.22.26l5.2,8.57a.71.71,0,0,0,.18.21.6.6,0,0,0,.4.13h0a.44.44,0,0,0,.38-.17,1.22,1.22,0,0,0,.17-.24l5.16-8.47a2.43,2.43,0,0,1,.2-.29.35.35,0,0,1,.28-.12h3.45Zm6,23.89a.66.66,0,0,1-.46-.19.61.61,0,0,1-.18-.43V235.55a.6.6,0,0,1,.18-.43.62.62,0,0,1,.46-.19H177a7.86,7.86,0,0,1,3.91,1,7.57,7.57,0,0,1,2.84,2.75,7.37,7.37,0,0,1,1,3.83,6.88,6.88,0,0,1-.82,3.31,8.62,8.62,0,0,1-2.22,2.67.53.53,0,0,0-.2.44.4.4,0,0,0,0,.17.3.3,0,0,1,0,.11l4,8.85a1,1,0,0,1,.1.44c0,.25-.15.38-.44.38h-3a2,2,0,0,1-.57-.07.67.67,0,0,1-.32-.34l-3.59-8a.38.38,0,0,0-.25-.27,2.93,2.93,0,0,0-.67-.11h-2.73a1.24,1.24,0,0,0-.7.14.58.58,0,0,0-.19.51v7.52a.63.63,0,0,1-.19.43.66.66,0,0,1-.46.19ZM177,245.7a3.18,3.18,0,0,0,2.29-.94,3.12,3.12,0,0,0,0-4.5,3.2,3.2,0,0,0-2.29-.92h-3.18c-.41,0-.61.23-.61.68v5.13a.56.56,0,0,0,.13.39.5.5,0,0,0,.38.16Z"/><path class="cls-1" d="M355.91,217.18H130.44a1,1,0,0,0-.73.31,1,1,0,0,0-.3.73v48.67a1,1,0,0,0,1,1H355.91a1,1,0,0,0,.74-.31,1.07,1.07,0,0,0,.3-.73V218.22a1,1,0,0,0-1-1m-225.47-2.71H355.91a3.76,3.76,0,0,1,3.75,3.75v48.67a3.76,3.76,0,0,1-3.75,3.75H130.44a3.76,3.76,0,0,1-3.75-3.75V218.22a3.76,3.76,0,0,1,3.75-3.75"/><path class="cls-1" d="M348.07,276.27h-1.9v9.06h6.4v-1.64h-4.5Zm-18.4,2h0l1.13,3.59h-2.31ZM328,283.46h3.34l.59,1.87H334l-3.19-9.06h-2.18l-3.23,9.06h2Zm-16.48-.88h0l-3.59-6.31h-2v9.06h1.77v-6.46h0l3.7,6.46h1.9v-9.06h-1.77Zm-24.84-1.78c0-2.54,1.44-3.17,2.46-3.17s2.46.63,2.46,3.17-1.44,3.17-2.46,3.17-2.46-.63-2.46-3.17m-1.89,0c0,4.25,3.15,4.77,4.35,4.77s4.36-.52,4.36-4.77-3.16-4.77-4.36-4.77-4.35.52-4.35,4.77m-12.35-4.53h-1.89v9.06h1.89Zm-21.6,6.27c0,1.12.57,3,3.87,3,.8,0,3.58-.24,3.58-3,0-1.62-1.14-2.13-2.38-2.43l-2.21-.54c-.38-.09-1-.24-1-.95s.86-1.09,1.58-1.09c1.65,0,1.81,1,1.86,1.37H258c0-1.11-.76-2.93-3.54-2.93-2.94,0-3.48,1.78-3.48,2.79,0,2,1.41,2.32,2.87,2.66l1,.23c1,.22,1.64.41,1.64,1.12,0,1-1,1.18-1.9,1.18-1.65,0-1.9-1-1.91-1.47Zm-19.4,0c0,1.12.57,3,3.87,3,.8,0,3.58-.24,3.58-3,0-1.62-1.14-2.13-2.38-2.43l-2.21-.54c-.37-.09-1-.24-1-.95s.85-1.09,1.57-1.09c1.66,0,1.81,1,1.86,1.37h1.82c0-1.11-.76-2.93-3.54-2.93-2.94,0-3.48,1.78-3.48,2.79,0,2,1.41,2.32,2.88,2.66l1,.23c1,.22,1.64.41,1.64,1.12,0,1-1,1.18-1.89,1.18-1.66,0-1.91-1-1.92-1.47Zm-12.27-6.27h-6.66v9.06h6.88v-1.6h-5v-2.35h4.41v-1.6h-4.41v-1.91h4.8Zm-23.46,5.25h4v-1.6h-4v-2.05h4.56v-1.6h-6.45v9.06h1.89Zm-21.2-.72c0-2.54,1.44-3.17,2.46-3.17s2.46.63,2.46,3.17S178,284,177,284s-2.46-.63-2.46-3.17m-1.9,0c0,4.25,3.16,4.77,4.36,4.77s4.35-.52,4.35-4.77S178.17,276,177,276s-4.36.52-4.36,4.77M155,280.26v-2.43h2.36c1.12,0,1.33.71,1.33,1.19,0,.9-.48,1.24-1.46,1.24Zm-1.85,5.07H155v-3.55h2c1.4,0,1.48.48,1.48,1.72a6,6,0,0,0,.2,1.83h2.1v-.24c-.41-.15-.41-.48-.41-1.8,0-1.7-.4-2-1.15-2.3a2.16,2.16,0,0,0,1.4-2.16,2.55,2.55,0,0,0-2.85-2.56h-4.58Zm-17.51-4.83v-2.67h1.51c1.17,0,1.66.37,1.66,1.25,0,.41,0,1.42-1.41,1.42Zm0,1.56h2.17a2.78,2.78,0,0,0,2.9-2.89,2.65,2.65,0,0,0-2.82-2.9h-4.14v9.06h1.89Z"/></svg>