<svg id="Capa_1" data-name="Capa 1" xmlns="http://www.w3.org/2000/svg" viewBox="0 0 486.36 343.89"><defs><style>.cls-1{fill:#fff;fill-rule:evenodd;}</style></defs><title>Logos</title><path class="cls-1" d="M190.67,126.53c-1.31,19.86,9.8,37.17,29.73,45.3,12.64,5.17,32.73,2.7,43.33-6.13a43.24,43.24,0,0,0,10.84-14.38c.77-1.73,2-4,3.08-6.78h-22.9c-9.21,0-24.87,1-27.1-12.38-2.62-15.85,17.27-21.71,26.83-8.68,2.39,3.32,1.27,15,2.28,4.59.69-7.09-2-14.34-11.84-18.35-2.81-1.12-8.06-2-10.49-2.35,6.52-4.32,21.82-.12,23.1,2.35-5.48-10.26-19.24-12.11-20.4-12,5-1.93,16,.93,20,2.28a38.37,38.37,0,0,1,16.58,11.25,35.11,35.11,0,0,1,5.75,8.68,37.07,37.07,0,0,0-4.55-10.68c-7.1-11.3-16.93-16.85-29.57-21-7.87-2.62-18.94-1.74-26,1.27-11.14,4.82-18.93,11-24.56,22.25C192.72,115.77,190.67,121.6,190.67,126.53Z"/><path class="cls-1" d="M91.2,194.81v9.48c0,3.59-.76,6.14-2.26,7.66s-3.81,2.18-7.1,2.18-5.62-.68-6.93-2-1.84-3.13-1.84-5.64V194.81c0-1.49-.15-2.37-.42-2.62a2.46,2.46,0,0,0-1.25-.33l-1.59-.11v-1c1.85.06,3.45.1,4.81.1s3,0,4.82-.1v1l-1.58.11a2,2,0,0,0-1.3.39,5.16,5.16,0,0,0-.37,2.56v11.28a6.44,6.44,0,0,0,1.12,4.13q1.56,1.88,5.41,1.87a7.56,7.56,0,0,0,4.91-1.33c1.38-1.14,2.06-3,2.06-5.46V194.81a6.63,6.63,0,0,0-.27-2.43c-.14-.28-.6-.45-1.39-.52l-1.46-.11v-1c2.12.06,3.39.1,3.8.1s1.85,0,3.95-.1v1l-1.45.11c-.81.07-1.27.24-1.4.52a6.63,6.63,0,0,0-.27,2.43Zm7.33.58,1.42-.08,12.63,15.58V198.54a5.27,5.27,0,0,0-.22-1.95c-.11-.22-.48-.35-1.11-.41l-1.17-.08v-.79l3,.08c.42,0,1.48,0,3.16-.08v.79l-1.15.08c-.64.06-1,.19-1.13.41a5.51,5.51,0,0,0-.22,1.95V213c0,.12,0,.34.06.67a2.11,2.11,0,0,0,0,.3l-2.36-.42L99.08,198.16v12.16a5.56,5.56,0,0,0,.22,2c.11.21.48.36,1.12.42l1.16.08v.78c-1.66-.05-2.72-.08-3.16-.08s-1.43,0-3,.08v-.78l1.17-.08c.63-.06,1-.21,1.1-.42a5.15,5.15,0,0,0,.23-2V198.54a5.27,5.27,0,0,0-.22-1.95c-.11-.22-.48-.35-1.11-.41l-1.17-.08v-.79c1,0,2.09.06,3.15.08Zm23.89,3.15v11.78c0,1.19.11,1.89.33,2.1a1.94,1.94,0,0,0,1,.27l1.27.08v.78c-1.37-.05-2.66-.08-3.86-.08s-2.48,0-3.84.08v-.78l1.27-.08a1.71,1.71,0,0,0,1-.32,4.41,4.41,0,0,0,.29-2.05V198.54a3.92,3.92,0,0,0-.33-2.1,2.07,2.07,0,0,0-1-.26l-1.27-.08v-.79c1.48.05,2.76.08,3.84.08s2.38,0,3.86-.08v.79l-1.27.08a1.67,1.67,0,0,0-1,.31,4.24,4.24,0,0,0-.29,2Zm10.35-2.44-1.47.08c-.57,0-.85.2-.85.52a.65.65,0,0,0,.07.29l5.16,13.3,4.8-12.4a3.08,3.08,0,0,0,.23-1c0-.41-.3-.63-.91-.67l-1.37-.08v-.79l1,0c.73,0,1.24,0,1.55,0h.28l2.85-.08v.79l-.8.08a.87.87,0,0,0-.55.3,5.74,5.74,0,0,0-.86,1.59l-4.57,11q-1.05,2.55-1.68,4.59h-1.31a44.57,44.57,0,0,0-1.52-4.32l-4.94-12.13a2.25,2.25,0,0,0-.49-.8,1,1,0,0,0-.66-.27l-1-.08v-.79c1.76.05,2.93.08,3.49.08s1.73,0,3.5-.08v.79Zm26.34-.71a18.32,18.32,0,0,0-.41,4h-.92v-1.7q0-.53-.15-.66a4.69,4.69,0,0,0-1.77-.44,18.33,18.33,0,0,0-2.41-.17,16.82,16.82,0,0,0-3.24.22v7c.88.05,1.84.07,2.87.07a9.18,9.18,0,0,0,2.95-.28,1.89,1.89,0,0,0,.2-.68l.14-1.37h.78c-.05,1.52-.07,2.54-.07,3s0,1.44.07,2.91h-.78l-.14-1.55-.2-.65a8.49,8.49,0,0,0-3.08-.33c-1.16,0-2.08,0-2.74.08v7.36a11.84,11.84,0,0,0,2.51.21c2.87,0,4.52-.11,5-.34.24-.12.46-.54.65-1.28.06-.23.16-.79.29-1.67h.91a22.75,22.75,0,0,0-.42,4.31c-2.16.05-3.62.08-4.38.08l-4.2-.05-1.81,0c-.7,0-1.8,0-3.29.08v-.78l.95-.08a1.68,1.68,0,0,0,1.05-.34,4.29,4.29,0,0,0,.28-2V198.54a3.92,3.92,0,0,0-.33-2.1,2,2,0,0,0-1-.26l-1.27-.08v-.79c2.25.05,3.81.08,4.69.08l3.47,0,2.59,0c1.11,0,2.2,0,3.25.08Zm7.13,1.23v13.7a3.92,3.92,0,0,0,.33,2.1,2,2,0,0,0,1,.27l1.27.08v.78c-1.37-.05-2.65-.08-3.86-.08s-2.48,0-3.84.08v-.78l1.27-.08a1.66,1.66,0,0,0,1-.32,4.27,4.27,0,0,0,.29-2.05V198.54c0-1.18-.11-1.88-.32-2.07a1.71,1.71,0,0,0-1-.29l-1.08-.08v-.79c2.38.05,3.9.08,4.54.08.88,0,2,0,3.47,0l1.19,0a7,7,0,0,1,3.17.61,3.41,3.41,0,0,1,2,3.31,4.53,4.53,0,0,1-2.11,3.83,6.82,6.82,0,0,1-1.41.79,15.92,15.92,0,0,1-1.59.46l6,7.76a2.15,2.15,0,0,0,1.6.7v.78c-1-.05-1.66-.08-1.9-.08s-.87,0-1.78.08c-.28-.39-.63-.86-1.06-1.41l-4.84-6.49c-.18-.24-.4-.52-.69-.84s-.46-.53-.66-.78l.15-.32.74,0a6.21,6.21,0,0,0,3.07-.66,3.56,3.56,0,0,0,1.92-3.27,3.18,3.18,0,0,0-1.29-2.73,5,5,0,0,0-3-.76,11.65,11.65,0,0,0-2.58.31Zm23.58,3H189l-.16-1.5a1.58,1.58,0,0,0-.41-1A4.86,4.86,0,0,0,184.9,196a4.19,4.19,0,0,0-2.17.55,3.49,3.49,0,0,0-1.8,3.24,2.7,2.7,0,0,0,.91,2.18,6.9,6.9,0,0,0,3.42,1.11,15.46,15.46,0,0,1,3.61.78,4.33,4.33,0,0,1,1.78,1.28,3.82,3.82,0,0,1,.64,2.34,5.79,5.79,0,0,1-2.08,4.57,7.63,7.63,0,0,1-2.59,1.45,9.84,9.84,0,0,1-3.2.52,11.18,11.18,0,0,1-4.55-1,20.32,20.32,0,0,0,.21-2.87c0-.25,0-.63,0-1.14h.83l.22,1.75a1.84,1.84,0,0,0,1,1.23,6.05,6.05,0,0,0,3.27.87,4.84,4.84,0,0,0,3.64-1.4,3.62,3.62,0,0,0,1.08-2.68,2.86,2.86,0,0,0-1-2.3,4.38,4.38,0,0,0-1.72-.83,17.2,17.2,0,0,0-1.91-.35,13.55,13.55,0,0,1-3.46-.82,4.22,4.22,0,0,1-1.61-1.23,4.07,4.07,0,0,1-.68-2.47,5.34,5.34,0,0,1,1.86-4.2,6.46,6.46,0,0,1,2.2-1.25,8.12,8.12,0,0,1,2.69-.45,10.33,10.33,0,0,1,3.13.53c.41.13.94.32,1.59.58a20.53,20.53,0,0,0-.37,3.7Zm7.72-1.13v11.78a3.92,3.92,0,0,0,.33,2.1,2,2,0,0,0,1,.27l1.27.08v.78c-1.37-.05-2.66-.08-3.86-.08s-2.49,0-3.85.08v-.78l1.27-.08a1.66,1.66,0,0,0,1-.32,4.15,4.15,0,0,0,.29-2.05V198.54q0-1.78-.33-2.1a2,2,0,0,0-1-.26l-1.27-.08v-.79c1.48.05,2.76.08,3.85.08s2.38,0,3.86-.08v.79l-1.27.08a1.67,1.67,0,0,0-1,.31,4.2,4.2,0,0,0-.3,2Zm4.67,14.4.8-.42c.43-.22.65-.74.66-1.55V198.54c0-1.18-.13-1.88-.34-2.07a1.67,1.67,0,0,0-1-.29l-1.05-.08v-.79c2.6.06,4.4.08,5.41.08s2.16,0,3.58-.06l1,0a10,10,0,0,1,6.37,1.95,7.34,7.34,0,0,1,2.8,6.11,10.69,10.69,0,0,1-1.46,5.46q-2.74,4.74-9.29,4.73l-1.23,0c-1.14,0-2-.06-2.59-.06s-1.8,0-3.63.08v-.61Zm3.95-16.37v15.62a13,13,0,0,0,2.69.22,12.44,12.44,0,0,0,4-.5,6.65,6.65,0,0,0,3.51-2.75,9.34,9.34,0,0,0,1.3-5.11c0-2.6-.62-4.53-1.85-5.76a5.19,5.19,0,0,0-1.56-1.09,9.18,9.18,0,0,0-2.26-.6,18.25,18.25,0,0,0-2.85-.23,15.39,15.39,0,0,0-2.93.2Zm23.38-1.48h-.85q-.91,2.29-2.41,5.68l-4.67,10.62c-.34.82-.82,1.25-1.41,1.3l-1,.08v.78c1.5-.05,2.45-.08,2.86-.08s1.46,0,3.18.08v-.78l-1-.08a2.59,2.59,0,0,1-1-.24A.53.53,0,0,1,223,212a11,11,0,0,1,.92-2.77l.73-1.75h7.56l1.2,3a7,7,0,0,1,.55,1.67c0,.31-.35.49-1.07.54l-1.23.08v.78c1.94-.05,3.16-.08,3.65-.08s1.6,0,3.33.08v-.78l-.89-.08a1.23,1.23,0,0,1-.87-.62,15.73,15.73,0,0,1-1-2.06l-6.35-14.92Zm-4.41,11.32,3.33-7.82,3.31,7.82Zm15.61,6.53.81-.42c.42-.22.64-.74.65-1.55V198.54a4,4,0,0,0-.33-2.07,1.7,1.7,0,0,0-1-.29l-1.05-.08v-.79c2.59.06,4.4.08,5.4.08s2.17,0,3.58-.06l1,0a10,10,0,0,1,6.37,1.95,7.35,7.35,0,0,1,2.81,6.11,10.79,10.79,0,0,1-1.46,5.46q-2.75,4.74-9.29,4.73l-1.23,0c-1.15,0-2-.06-2.59-.06s-1.8,0-3.64.08v-.61Zm4-16.37v15.62a12.91,12.91,0,0,0,2.69.22,12.37,12.37,0,0,0,3.94-.5,6.61,6.61,0,0,0,3.51-2.75,9.25,9.25,0,0,0,1.3-5.11c0-2.6-.62-4.53-1.85-5.76a5,5,0,0,0-1.56-1.09,9.09,9.09,0,0,0-2.25-.6,18.28,18.28,0,0,0-2.86-.23,15.2,15.2,0,0,0-2.92.2Zm27.55-5.7,1.78-.1,15.78,19.48V194.81a6.63,6.63,0,0,0-.27-2.43c-.14-.28-.6-.45-1.4-.52l-1.45-.11v-1c2.12.06,3.39.1,3.79.1s1.86,0,4-.1v1l-1.44.11c-.8.07-1.27.24-1.41.52a6.63,6.63,0,0,0-.27,2.43v18.1c0,.15,0,.43.06.83q0,.24,0,.39l-2.94-.54-15.53-19.26v15.2a6.7,6.7,0,0,0,.27,2.44c.14.27.6.45,1.4.52l1.45.1v1c-2.08-.07-3.4-.1-3.95-.1s-1.79,0-3.79.1v-1l1.45-.1c.79-.07,1.25-.25,1.38-.52a6.23,6.23,0,0,0,.29-2.44V194.81a6.54,6.54,0,0,0-.28-2.43c-.13-.28-.6-.45-1.39-.52l-1.45-.11v-1c1.3,0,2.61.08,3.93.1Zm33.47,4.22L312.08,210a16.16,16.16,0,0,0,1,2.06,1.27,1.27,0,0,0,.87.62l.9.08v.78c-1.74-.05-2.85-.08-3.33-.08s-1.72,0-3.65.08v-.78l1.22-.08q1.08-.08,1.08-.54a7,7,0,0,0-.55-1.67l-1.2-3h-7.56l-.73,1.75a10.61,10.61,0,0,0-.92,2.77.53.53,0,0,0,.24.47,2.54,2.54,0,0,0,1,.24l1,.08v.78c-1.72-.05-2.78-.08-3.18-.08s-1.36,0-2.86.08v-.78l1-.08c.6-.05,1.07-.48,1.41-1.3l4.68-10.62q1.48-3.39,2.41-5.68Zm-4.4,11.32H308l-3.3-7.82-3.33,7.82Zm29.73,4.85-.25-.27a9.69,9.69,0,0,1-5.43,1.58,9.44,9.44,0,0,1-3.82-.76,7.59,7.59,0,0,1-2.89-2.19,8.52,8.52,0,0,1-1.81-5.62,9.68,9.68,0,0,1,.7-3.73,7,7,0,0,1,2-2.74,7.32,7.32,0,0,1,4.77-1.56,8.72,8.72,0,0,1,4.4,1.07c.54.31.81.64.81,1v1.88h.81a22.12,22.12,0,0,1,.5-4,19.32,19.32,0,0,0-6.06-1.08,12.21,12.21,0,0,0-6.22,1.58,8.68,8.68,0,0,0-4.56,8,9.14,9.14,0,0,0,2,6,8.41,8.41,0,0,0,2.85,2.28,11.93,11.93,0,0,0,5.47,1.24,12.54,12.54,0,0,0,5.95-1.42l.75-1.31Zm6.7-12.72v11.78a3.92,3.92,0,0,0,.33,2.1,2,2,0,0,0,1,.27l1.27.08v.78c-1.37-.05-2.65-.08-3.86-.08s-2.48,0-3.84.08v-.78l1.27-.08a1.66,1.66,0,0,0,1-.32,4.27,4.27,0,0,0,.29-2.05V198.54a3.92,3.92,0,0,0-.33-2.1,2,2,0,0,0-1-.26l-1.27-.08v-.79c1.48.05,2.76.08,3.84.08s2.38,0,3.86-.08v.79l-1.27.08a1.67,1.67,0,0,0-1,.31,4.24,4.24,0,0,0-.29,2Zm13.8-3.68a10.87,10.87,0,0,1,5.38,1.34,7.47,7.47,0,0,1,2.43,2.17,8.8,8.8,0,0,1,1.61,5.37,10.57,10.57,0,0,1-.86,4.24,10,10,0,0,1-9.33,6,9.29,9.29,0,0,1-6-2,8.66,8.66,0,0,1-2.24-2.77,10.31,10.31,0,0,1-1.07-4.72,9.59,9.59,0,0,1,2.05-6.22c1.85-2.29,4.51-3.44,8-3.44Zm-.64,1.11a6,6,0,0,0-5.23,2.42,6.74,6.74,0,0,0-1,2.26,11.26,11.26,0,0,0-.36,2.91,12.1,12.1,0,0,0,1.2,5.46,7.39,7.39,0,0,0,1.92,2.44,6.48,6.48,0,0,0,4.27,1.43,5.9,5.9,0,0,0,4.32-1.66,6.81,6.81,0,0,0,1.6-2.75,12.64,12.64,0,0,0,.55-3.85,11.48,11.48,0,0,0-1-5.12,6.2,6.2,0,0,0-2.19-2.48,7.23,7.23,0,0,0-4-1.06Zm14.23-.58,1.42-.08,12.63,15.58V198.54a5.27,5.27,0,0,0-.22-1.95c-.11-.22-.48-.35-1.11-.41l-1.17-.08v-.79l3,.08c.42,0,1.48,0,3.16-.08v.79l-1.15.08c-.64.06-1,.19-1.13.41a5.51,5.51,0,0,0-.22,1.95V213c0,.12,0,.34.06.67,0,.13,0,.23,0,.3l-2.35-.42-12.43-15.41v12.16a5.56,5.56,0,0,0,.22,2c.11.21.48.36,1.12.42l1.16.08v.78c-1.66-.05-2.72-.08-3.16-.08s-1.43,0-3,.08v-.78l1.17-.08c.63-.06,1-.21,1.1-.42a5.15,5.15,0,0,0,.23-2V198.54a5.27,5.27,0,0,0-.22-1.95c-.11-.22-.48-.35-1.11-.41L362,196.1v-.79c1,0,2.09.06,3.15.08Zm27.79-.3h-.84q-.93,2.29-2.41,5.68L385,211.39c-.34.82-.81,1.25-1.4,1.3l-1,.08v.78c1.5-.05,2.45-.08,2.86-.08s1.46,0,3.18.08v-.78l-1-.08a2.59,2.59,0,0,1-1-.24.53.53,0,0,1-.24-.47,10.61,10.61,0,0,1,.92-2.77l.73-1.75h7.56l1.2,3a7,7,0,0,1,.55,1.67c0,.31-.36.49-1.07.54l-1.23.08v.78c1.93-.05,3.15-.08,3.65-.08s1.6,0,3.33.08v-.78l-.9-.08a1.27,1.27,0,0,1-.87-.62,16.16,16.16,0,0,1-1-2.06l-6.36-14.92Zm-4.4,11.32,3.33-7.82,3.31,7.82Zm19.78,5.83a9.79,9.79,0,0,0,2.17.21c3.5,0,5.44-.17,5.83-.49a3.12,3.12,0,0,0,.48-1.4,2,2,0,0,0,.08-.29l.31-1.31H418c-.23,2.07-.41,3.58-.55,4.51-2.16.05-3.64.08-4.44.08s-2.41,0-4.85-.07H407c-.63,0-1.5,0-2.63.08v-.61l.82-.42c.43-.23.65-.74.66-1.54V198.54c0-1.19-.12-1.89-.34-2.1a2,2,0,0,0-1-.26l-1.27-.08v-.79c1.47.05,2.75.08,3.85.08s2.38,0,3.86-.08v.79l-1.27.08a1.67,1.67,0,0,0-1,.31,4.2,4.2,0,0,0-.3,2Z"/><path class="cls-1" d="M124.94,229.85l-3.3,15.58a7.19,7.19,0,0,0-.21,1.23c0,.39.12.59.37.59a1.9,1.9,0,0,0,1-.45L124,246l.26.5-2.13,1.58a4,4,0,0,1-2,1c-.46,0-.69-.28-.69-.87a11.84,11.84,0,0,1,.42-2.68l.59-2.38a29.35,29.35,0,0,1-2.41,3.28q-2.43,2.7-4.17,2.7c-.78,0-1.17-.84-1.17-2.53a16.25,16.25,0,0,1,.36-3.38,11.7,11.7,0,0,1,1-2.85,9,9,0,0,1,1.65-2.17,9.38,9.38,0,0,1,2.23-1.63,3.59,3.59,0,0,1,1.6-.38,7.13,7.13,0,0,1,2.16.36l.74-4a4.1,4.1,0,0,0,0-.62q0-.63-.9-.63h-1.25l.1-.55a16.92,16.92,0,0,0,2.13-.32,10,10,0,0,0,2.07-.79l.31.29ZM121.43,238a6,6,0,0,0-2.78-.61,2.48,2.48,0,0,0-1.55.4,6.18,6.18,0,0,0-1.6,2.95,17.54,17.54,0,0,0-.9,5.46c0,.67.22,1,.66,1a2.38,2.38,0,0,0,1.07-.42,7.86,7.86,0,0,0,1.4-1.08,11.56,11.56,0,0,0,2.65-3.86,10.78,10.78,0,0,0,.73-2.3l.32-1.55Zm12.78,8.34a17.7,17.7,0,0,1-2.76,1.94,5.54,5.54,0,0,1-2.61.77,3,3,0,0,1-2.21-.81,3.29,3.29,0,0,1-.84-2.43,15.14,15.14,0,0,1,.81-4.41,7.19,7.19,0,0,1,1-2.11,8.66,8.66,0,0,1,3.2-2.55,4.92,4.92,0,0,1,2.21-.64,2.3,2.3,0,0,1,1.68.63,1.88,1.88,0,0,1,.54,1.42q0,2.37-3.26,3.8a10.49,10.49,0,0,1-1.81.67l-2.15.53a12,12,0,0,0-.2,2.08,2.83,2.83,0,0,0,.65,2.06,1.86,1.86,0,0,0,1.35.53,6.74,6.74,0,0,0,3.58-1.53l.63-.44.21.49Zm-6.09-3.81a12.53,12.53,0,0,0,2.86-.91,4.45,4.45,0,0,0,1.34-1,3,3,0,0,0,.94-2.07,1.4,1.4,0,0,0-.36-1,1.21,1.21,0,0,0-.9-.34,2.9,2.9,0,0,0-1,.21,3,3,0,0,0-.9.53,7.2,7.2,0,0,0-1.72,3.63l-.24,1Zm38.06-12.72c-.55,1-1,1.92-1.45,2.82l-5.83,12.39c-.23.49-.83,1.87-1.78,4.17h-.65l-9.15-19.39v15a6.7,6.7,0,0,0,.27,2.44c.14.27.6.45,1.4.52l1.45.1v1c-2.08-.07-3.4-.1-3.95-.1s-1.79,0-3.8.1v-1l1.46-.1c.79-.07,1.26-.25,1.39-.52a6.61,6.61,0,0,0,.28-2.44V230.14a6.54,6.54,0,0,0-.28-2.43c-.13-.28-.6-.45-1.39-.52l-1.46-.11v-1c1.72.06,2.76.1,3.13.1s1.4,0,3.1-.1l8.67,18.23,8.59-18.23c1.61.06,2.65.1,3.13.1s1.5,0,3-.1v1l-1.36.11c-.8.07-1.27.24-1.41.52a6.47,6.47,0,0,0-.27,2.43v14.72a5,5,0,0,0,.41,2.63,2.48,2.48,0,0,0,1.27.33l1.57.1v1c-1.7-.07-3.35-.1-5-.1s-2.89,0-4.2.1v-1l1.12-.1a2.21,2.21,0,0,0,1.32-.41,5.6,5.6,0,0,0,.35-2.55v-15Zm17.72.57,6.36,14.92a16.16,16.16,0,0,0,1,2.06,1.27,1.27,0,0,0,.87.62l.9.08v.78c-1.74,0-2.85-.08-3.33-.08s-1.72,0-3.66.08v-.78l1.23-.08q1.08-.08,1.08-.54a7,7,0,0,0-.55-1.67l-1.2-3h-7.56l-.73,1.75a10.82,10.82,0,0,0-.93,2.77.54.54,0,0,0,.25.47,2.54,2.54,0,0,0,1,.24l1,.08v.78c-1.72,0-2.78-.08-3.18-.08s-1.36,0-2.86.08v-.78l1-.08c.6-.05,1.07-.48,1.41-1.3l4.68-10.62q1.48-3.39,2.41-5.68Zm-4.4,11.32h6.63l-3.3-7.82-3.33,7.82ZM199.28,232v13.7a3.92,3.92,0,0,0,.33,2.1,1.92,1.92,0,0,0,1,.27l1.26.08v.78c-1.37,0-2.65-.08-3.85-.08s-2.49,0-3.85.08v-.78l1.27-.08a1.66,1.66,0,0,0,1-.32,4.15,4.15,0,0,0,.29-2V233.87c0-1.18-.11-1.87-.32-2.07a1.68,1.68,0,0,0-1-.29l-1.08-.08v-.79c2.39.05,3.9.08,4.54.08.88,0,2,0,3.47-.05l1.19,0a7,7,0,0,1,3.17.61,3.41,3.41,0,0,1,2,3.31,4.53,4.53,0,0,1-2.11,3.83,6.57,6.57,0,0,1-1.41.79,15.92,15.92,0,0,1-1.59.46l5.95,7.76a2.17,2.17,0,0,0,1.6.7v.78c-1,0-1.66-.08-1.9-.08s-.86,0-1.78.08c-.28-.39-.63-.86-1.06-1.41L201.59,241q-.27-.36-.69-.84l-.67-.78.15-.32.75,0a6.2,6.2,0,0,0,3.06-.66,3.56,3.56,0,0,0,1.92-3.27,3.19,3.19,0,0,0-1.28-2.73,5,5,0,0,0-3-.76,11.65,11.65,0,0,0-2.58.31Zm21.56,16.32.8-.42c.43-.22.65-.74.66-1.55V233.87c0-1.18-.13-1.87-.34-2.07a1.67,1.67,0,0,0-1-.29l-1.05-.08v-.79c2.6.06,4.4.08,5.41.08s2.16,0,3.58-.06l1,0a10,10,0,0,1,6.37,2,7.34,7.34,0,0,1,2.8,6.11,10.69,10.69,0,0,1-1.46,5.46q-2.75,4.74-9.29,4.73l-1.23,0c-1.14,0-2-.06-2.59-.06s-1.8,0-3.63.08v-.61Zm3.95-16.37v15.62a13,13,0,0,0,2.69.22,12.44,12.44,0,0,0,4-.5,6.68,6.68,0,0,0,3.51-2.74,9.4,9.4,0,0,0,1.3-5.12q0-3.9-1.85-5.76a5.19,5.19,0,0,0-1.56-1.09,9.18,9.18,0,0,0-2.26-.6,18.25,18.25,0,0,0-2.85-.23,15.39,15.39,0,0,0-2.93.2Zm29.44-1.18a17.72,17.72,0,0,0-.41,4h-.92V233a.94.94,0,0,0-.16-.66,4.68,4.68,0,0,0-1.76-.44,18.57,18.57,0,0,0-2.41-.17,16.68,16.68,0,0,0-3.24.22v7c.87,0,1.83.07,2.86.07a9.18,9.18,0,0,0,2.95-.28,1.73,1.73,0,0,0,.21-.68l.14-1.37h.78c-.05,1.52-.08,2.54-.08,3.05s0,1.44.08,2.91h-.78l-.14-1.55-.21-.65a8.38,8.38,0,0,0-3.07-.33c-1.17,0-2.08,0-2.74.08v7.36a11.78,11.78,0,0,0,2.51.21c2.86,0,4.52-.11,5-.34.24-.12.46-.54.65-1.28.06-.23.15-.79.29-1.66h.91a22.56,22.56,0,0,0-.42,4.3c-2.16,0-3.62.08-4.38.08l-4.21,0-1.8,0c-.7,0-1.8,0-3.29.08v-.78l.94-.08a1.69,1.69,0,0,0,1.06-.34,4.29,4.29,0,0,0,.28-2V233.87c0-1.19-.12-1.89-.34-2.1a2,2,0,0,0-1-.26l-1.27-.08v-.79c2.25.05,3.81.08,4.69.08l3.48-.05,2.59,0c1.11,0,2.19,0,3.25.08Zm7.13,16.85a9.63,9.63,0,0,0,2.16.21c3.5,0,5.45-.17,5.83-.49a3.21,3.21,0,0,0,.49-1.4s0-.15.07-.29l.31-1.31h.85c-.22,2.07-.41,3.58-.55,4.51-2.16,0-3.64.08-4.44.08s-2.41,0-4.85-.07H260c-.62,0-1.5,0-2.63.08v-.61l.83-.42c.42-.23.64-.74.65-1.53V233.87c0-1.19-.12-1.89-.34-2.1a2,2,0,0,0-1-.26l-1.27-.08v-.79c1.47.05,2.76.08,3.85.08s2.38,0,3.86-.08v.79l-1.27.08a1.67,1.67,0,0,0-1,.31,4.12,4.12,0,0,0-.29,2.05v13.7Zm24-19.83v17.12c0,1.48.14,2.36.41,2.63a2.39,2.39,0,0,0,1.25.33l1.59.1v1c-1.71-.07-3.32-.1-4.82-.1s-3.11,0-4.81.1v-1l1.59-.1a2.12,2.12,0,0,0,1.3-.4,5.37,5.37,0,0,0,.36-2.56V230.14a6.18,6.18,0,0,0-.29-2.34c-.2-.35-.69-.55-1.45-.61l-1.48-.11v-1c3.09.06,5.09.1,6,.1s2.57,0,4.64-.08l.91,0a8.8,8.8,0,0,1,4,.84,4.46,4.46,0,0,1,2.69,4.26,6.37,6.37,0,0,1-1.76,4.45,8,8,0,0,1-6.16,2.53,9.86,9.86,0,0,1-1.92-.21l-.32-1.17a7.13,7.13,0,0,0,2,.33,4.59,4.59,0,0,0,3.93-1.91,5.27,5.27,0,0,0,.92-3.11,4.43,4.43,0,0,0-1.7-3.81,6.19,6.19,0,0,0-3.72-.94,13.87,13.87,0,0,0-3.22.38Zm18.39,19.83a9.75,9.75,0,0,0,2.16.21c3.51,0,5.45-.17,5.84-.49a3.12,3.12,0,0,0,.48-1.4s0-.15.08-.29l.31-1.31h.84c-.22,2.07-.4,3.58-.55,4.51-2.16,0-3.64.08-4.43.08s-2.42,0-4.86-.07h-1.21c-.63,0-1.5,0-2.63.08v-.61l.82-.42c.42-.23.64-.74.65-1.53V233.87a3.92,3.92,0,0,0-.33-2.1,2,2,0,0,0-1-.26l-1.27-.08v-.79c1.47.05,2.75.08,3.84.08s2.38,0,3.86-.08v.79l-1.27.08a1.67,1.67,0,0,0-1,.31,4.24,4.24,0,0,0-.29,2.05v13.7Zm20.88-17.15L331,245.34a16.16,16.16,0,0,0,1,2.06,1.26,1.26,0,0,0,.88.62l.89.08v.78c-1.73,0-2.85-.08-3.33-.08s-1.72,0-3.65.08v-.78L328,248c.71-.05,1.07-.23,1.07-.54a7,7,0,0,0-.55-1.67l-1.2-3h-7.56l-.73,1.75a10.61,10.61,0,0,0-.92,2.77.53.53,0,0,0,.24.47,2.59,2.59,0,0,0,1,.24l1,.08v.78c-1.72,0-2.78-.08-3.18-.08s-1.36,0-2.86.08v-.78l1-.08c.59-.05,1.06-.48,1.41-1.3l4.67-10.62q1.49-3.39,2.41-5.68Zm-4.4,11.32h6.64l-3.31-7.82-3.33,7.82Zm19-9.82c.06.72.1,1.59.1,2.63v11.1a4.49,4.49,0,0,1-.29,2,1.71,1.71,0,0,1-1,.32l-1.27.08v.78c1.36,0,2.64-.08,3.84-.08s2.49,0,3.86.08v-.78l-1.27-.08a1.85,1.85,0,0,1-1-.27c-.22-.21-.32-.91-.33-2.1v-11.1c0-1.08,0-2,.1-2.63H346a1.28,1.28,0,0,1,.8.19,1,1,0,0,1,.24.68l.12,2.08h.8c0-1.51.07-2.92.2-4.23l-5.68.08h-4.14l-5.34-.08c.12,1.31.18,2.72.19,4.23H334l.1-2.08a1,1,0,0,1,.22-.64,1.09,1.09,0,0,1,.83-.23Zm18.35-1.5,6.35,14.92a14.5,14.5,0,0,0,1,2.06,1.23,1.23,0,0,0,.87.62l.89.08v.78c-1.73,0-2.84-.08-3.33-.08s-1.71,0-3.65.08v-.78L361,248c.72-.05,1.07-.23,1.07-.54a7,7,0,0,0-.55-1.67l-1.2-3h-7.56l-.73,1.75a10.61,10.61,0,0,0-.92,2.77.53.53,0,0,0,.24.47,2.59,2.59,0,0,0,1,.24l1,.08v.78c-1.72,0-2.78-.08-3.18-.08s-1.36,0-2.86.08v-.78l1-.08c.59-.05,1.07-.48,1.41-1.3l4.67-10.62q1.5-3.39,2.41-5.68Zm-4.41,11.32h6.64l-3.31-7.82Z"/><path class="cls-1" d="M367.93,262.28a1.94,1.94,0,0,0-.49-1.39,1.68,1.68,0,0,0-1.26-.51,2,2,0,0,0-1.34.5,1.61,1.61,0,0,0-.56,1.25,1.83,1.83,0,0,0,.51,1.31,1.7,1.7,0,0,0,1.29.55,1.88,1.88,0,0,0,1.29-.51,1.59,1.59,0,0,0,.56-1.2Zm-13.24,0a1.94,1.94,0,0,0-.5-1.39,1.67,1.67,0,0,0-1.26-.51,2,2,0,0,0-1.33.5,1.62,1.62,0,0,0-.57,1.25,1.79,1.79,0,0,0,.52,1.31,1.67,1.67,0,0,0,1.29.55,1.84,1.84,0,0,0,1.28-.51,1.56,1.56,0,0,0,.57-1.2Zm-13.25,0a1.94,1.94,0,0,0-.49-1.39,1.68,1.68,0,0,0-1.26-.51,2,2,0,0,0-1.34.5,1.64,1.64,0,0,0-.56,1.25,1.79,1.79,0,0,0,.52,1.31,1.67,1.67,0,0,0,1.28.55,1.88,1.88,0,0,0,1.29-.51,1.55,1.55,0,0,0,.56-1.2Zm-13.24,0a1.94,1.94,0,0,0-.49-1.39,1.69,1.69,0,0,0-1.27-.51,2,2,0,0,0-1.33.5,1.62,1.62,0,0,0-.57,1.25,1.84,1.84,0,0,0,.52,1.31,1.7,1.7,0,0,0,1.29.55,1.88,1.88,0,0,0,1.29-.51,1.59,1.59,0,0,0,.56-1.2Zm-13.24,0a1.94,1.94,0,0,0-.5-1.39,1.67,1.67,0,0,0-1.26-.51,2,2,0,0,0-1.33.5,1.62,1.62,0,0,0-.57,1.25,1.79,1.79,0,0,0,.52,1.31,1.67,1.67,0,0,0,1.29.55,1.84,1.84,0,0,0,1.28-.51,1.56,1.56,0,0,0,.57-1.2Zm-13.25,0a1.94,1.94,0,0,0-.49-1.39,1.68,1.68,0,0,0-1.26-.51,2,2,0,0,0-1.34.5,1.64,1.64,0,0,0-.56,1.25,1.79,1.79,0,0,0,.52,1.31,1.67,1.67,0,0,0,1.28.55,1.88,1.88,0,0,0,1.29-.51,1.55,1.55,0,0,0,.56-1.2Zm-13.24,0a1.94,1.94,0,0,0-.49-1.39,1.69,1.69,0,0,0-1.27-.51,2,2,0,0,0-1.33.5,1.62,1.62,0,0,0-.57,1.25,1.84,1.84,0,0,0,.52,1.31,1.7,1.7,0,0,0,1.29.55,1.88,1.88,0,0,0,1.29-.51,1.59,1.59,0,0,0,.56-1.2Zm-13.24,0a1.94,1.94,0,0,0-.5-1.39,1.67,1.67,0,0,0-1.26-.51,2,2,0,0,0-1.33.5,1.62,1.62,0,0,0-.57,1.25,1.79,1.79,0,0,0,.52,1.31,1.67,1.67,0,0,0,1.29.55,1.84,1.84,0,0,0,1.28-.51,1.56,1.56,0,0,0,.57-1.2Zm-13.25,0a1.94,1.94,0,0,0-.49-1.39,1.68,1.68,0,0,0-1.26-.51,2,2,0,0,0-1.34.5,1.64,1.64,0,0,0-.56,1.25,1.79,1.79,0,0,0,.52,1.31,1.67,1.67,0,0,0,1.28.55,1.88,1.88,0,0,0,1.29-.51,1.55,1.55,0,0,0,.56-1.2Zm-13.24,0a1.94,1.94,0,0,0-.49-1.39,1.69,1.69,0,0,0-1.27-.51,2,2,0,0,0-1.33.5,1.62,1.62,0,0,0-.57,1.25,1.84,1.84,0,0,0,.52,1.31,1.7,1.7,0,0,0,1.29.55,1.88,1.88,0,0,0,1.29-.51,1.59,1.59,0,0,0,.56-1.2Zm-13.24,0a1.94,1.94,0,0,0-.5-1.39,1.67,1.67,0,0,0-1.26-.51,2,2,0,0,0-1.33.5,1.62,1.62,0,0,0-.57,1.25,1.79,1.79,0,0,0,.52,1.31,1.67,1.67,0,0,0,1.29.55,1.84,1.84,0,0,0,1.28-.51,1.56,1.56,0,0,0,.57-1.2Zm-13.25,0a1.94,1.94,0,0,0-.49-1.39,1.68,1.68,0,0,0-1.26-.51,2,2,0,0,0-1.34.5,1.64,1.64,0,0,0-.56,1.25,1.79,1.79,0,0,0,.52,1.31,1.67,1.67,0,0,0,1.28.55,1.88,1.88,0,0,0,1.29-.51,1.55,1.55,0,0,0,.56-1.2Zm-13.24,0a1.94,1.94,0,0,0-.49-1.39,1.69,1.69,0,0,0-1.27-.51,2,2,0,0,0-1.33.5,1.62,1.62,0,0,0-.57,1.25,1.84,1.84,0,0,0,.52,1.31,1.7,1.7,0,0,0,1.29.55,1.88,1.88,0,0,0,1.29-.51,1.59,1.59,0,0,0,.56-1.2Zm-13.24,0a1.94,1.94,0,0,0-.5-1.39,1.67,1.67,0,0,0-1.26-.51,2,2,0,0,0-1.33.5,1.62,1.62,0,0,0-.57,1.25,1.79,1.79,0,0,0,.52,1.31,1.67,1.67,0,0,0,1.28.55,1.85,1.85,0,0,0,1.29-.51,1.56,1.56,0,0,0,.57-1.2Zm-13.25,0a1.94,1.94,0,0,0-.49-1.39,1.68,1.68,0,0,0-1.26-.51,2,2,0,0,0-1.34.5,1.64,1.64,0,0,0-.56,1.25,1.79,1.79,0,0,0,.52,1.31,1.67,1.67,0,0,0,1.28.55,1.88,1.88,0,0,0,1.29-.51,1.55,1.55,0,0,0,.56-1.2Zm-13.24,0a1.94,1.94,0,0,0-.49-1.39,1.69,1.69,0,0,0-1.27-.51,2,2,0,0,0-1.33.5,1.62,1.62,0,0,0-.57,1.25,1.84,1.84,0,0,0,.52,1.31,1.7,1.7,0,0,0,1.29.55,1.88,1.88,0,0,0,1.29-.51,1.59,1.59,0,0,0,.56-1.2Zm-13.24,0a1.94,1.94,0,0,0-.5-1.39,1.67,1.67,0,0,0-1.26-.51,2,2,0,0,0-1.33.5,1.62,1.62,0,0,0-.57,1.25,1.79,1.79,0,0,0,.52,1.31,1.67,1.67,0,0,0,1.28.55,1.85,1.85,0,0,0,1.29-.51,1.56,1.56,0,0,0,.57-1.2Zm-13.25,0a1.94,1.94,0,0,0-.49-1.39,1.68,1.68,0,0,0-1.26-.51,2,2,0,0,0-1.34.5,1.64,1.64,0,0,0-.56,1.25,1.83,1.83,0,0,0,.51,1.31,1.7,1.7,0,0,0,1.29.55,1.88,1.88,0,0,0,1.29-.51,1.55,1.55,0,0,0,.56-1.2Zm-13.24,0a1.94,1.94,0,0,0-.49-1.39,1.69,1.69,0,0,0-1.27-.51,2,2,0,0,0-1.33.5,1.61,1.61,0,0,0-.56,1.25,1.83,1.83,0,0,0,.51,1.31,1.7,1.7,0,0,0,1.29.55,1.88,1.88,0,0,0,1.29-.51,1.59,1.59,0,0,0,.56-1.2Zm-13.24,0a1.94,1.94,0,0,0-.5-1.39,1.67,1.67,0,0,0-1.26-.51,2,2,0,0,0-1.33.5,1.62,1.62,0,0,0-.57,1.25,1.79,1.79,0,0,0,.52,1.31,1.67,1.67,0,0,0,1.29.55,1.84,1.84,0,0,0,1.28-.51A1.56,1.56,0,0,0,116.31,262.28Z"/></svg>