<svg id="Capa_1" data-name="Capa 1" xmlns="http://www.w3.org/2000/svg" viewBox="0 0 486.36 343.89"><defs><style>.cls-1,.cls-2{fill:#fff;}.cls-2{fill-rule:evenodd;}</style></defs><title>Logos</title><rect class="cls-1" x="197.83" y="134.27" width="2.54" height="73.13"/><path class="cls-2" d="M160.63,134.88c15,1.7,29.68,14.73,30.2,34.71-.52,19.86-15.63,35.1-34.76,35.1a35,35,0,0,1-34.77-35.1C122,149.17,136.2,137,151,134.89l-17.86,10.66.07,25.79,4.28,2.68v-6.7l-2.39,1.85v-7.38l6.47-4.11,6.48,4.11v7.38l-2.42-1.85v11.9c.45,0,6,3.95,6.14,3.67V159.4l-2.5,1.52v-7.57l6.68-4.09,6.26,4.78v6.88l-2.41-1.63v23.84l6.7-4.22V167.32l-2.41,1.85v-7.38l6.46-4.09,6.48,4.09V169l-2.42-1.83v6.61l4.4-2.7,0-25.49Zm-5.92-2.11-1.53.76c-18.07,1.77-32.7,15.8-33.1,36a36,36,0,1,0,71.94,0c-.37-22.32-18-35.16-33.34-35.83l-1.37-1.06c20.59,1.39,35.37,16.94,35.47,36.89a36.74,36.74,0,1,1-73.47,0C119.59,149.36,134.63,133.9,154.71,132.77Z"/><path class="cls-2" d="M351.49,188.72,346,169.82l-5.45,18.9Zm-7.82-21.62c-.7,0-1.41-.44-1.41-.88,0,0,.71-1,1.06-1,.7,0,1.67-.88,2.37-1.32a19.9,19.9,0,0,0,2.37-2.28,1.63,1.63,0,0,1,.71-1.32,7.63,7.63,0,0,1,1,2.72l9.5,34.19a20.91,20.91,0,0,0,2.11,5.89c.61.88,1.31,1.76,1.67,1.76.7,0,1.67.44,2.72.44a1.29,1.29,0,0,1,1.32,1.32,2.73,2.73,0,0,1-1.32.52h-16a2.72,2.72,0,0,1-1.31-.52,1.29,1.29,0,0,1,1.31-1.32h1.06a16.52,16.52,0,0,0,2.37-.44c.7,0,1-1.32,1-2.73,0-.88-.27-2.19-.27-3.6l-2.1-8.09H340.24l-1.32,4.93a17.78,17.78,0,0,0-1.05,5.88c0,1.32.35,2.73,1.05,3.17a5.58,5.58,0,0,0,3.08.88c.26,0,.61.44.61,1.32a1.25,1.25,0,0,1-1,.52H330.13a1.32,1.32,0,0,1-1.05-.52v-.88a3.08,3.08,0,0,1,1.05-.44h1.67c.71,0,1.32-.88,1.67-1.32.71-.88,1.41-2.29,2-3.16a22.22,22.22,0,0,0,1.75-5.45l7.74-27a1.65,1.65,0,0,0-1.67-1.31Zm-30.5,2.72c0-1.85-.35-3.6-1.05-4.13a3.64,3.64,0,0,0-3.08-1.32,10,10,0,0,0-3,.88c-1.05,1-2.37,2.29-3.43,3.16a10,10,0,0,0-3.07,4.49c0,.44-.62,1.4-1,1.4a1.75,1.75,0,0,1-.35-1v-.44l3.34-11.25a6.57,6.57,0,0,1,1.05-2.2,1.63,1.63,0,0,1,.71,1.32,4.69,4.69,0,0,0,3.69,1.84h17.31c.71,0,1.32-.52,2-.52a1.68,1.68,0,0,0,1.41-1.32c0-.44.62-.88.62-.88l.7.44c0,.44.7,1.32.7,2.28l3,10.29.35.44c0,.52-.35,1-.61,1a4,4,0,0,1-.71-1.4,16.42,16.42,0,0,0-2.72-4.05,12.66,12.66,0,0,0-3.43-3.16,7.12,7.12,0,0,0-4-1.32,2.19,2.19,0,0,0-2.37,1.85,18.64,18.64,0,0,0-.71,5.8v28.83a6.31,6.31,0,0,0,1.41,3.6,4.29,4.29,0,0,0,3.34,1.32c.35,0,1.05-.44,1.41-.44s.7.44.7,1.32h0l-.7.52H306.32c-.27,0-1-.52-1-1s.7-.88,1.32-.88h1.76a16.81,16.81,0,0,0,2.37-.44,6.26,6.26,0,0,0,1.67-3.17,30.59,30.59,0,0,0,.7-6.76Zm-20.74-9a5.48,5.48,0,0,1,.35-1.76,8.56,8.56,0,0,1,1.06,1.76l3.69,13.09v.44l-.35.44c-.36,0-.62-.44-.62-.88a19.44,19.44,0,0,0-5.1-7.2,12.28,12.28,0,0,0-8.17-3.61c-1.67,0-3.34,1.32-4.4,2.64a11.12,11.12,0,0,0-2,6.33,6.25,6.25,0,0,0,1,3.16,19.08,19.08,0,0,0,2.37,2.29c1.06.44,2.73,1.32,4.13,1.75,1.67.44,3.34,1.32,4.05,1.32a18.17,18.17,0,0,1,6.41,3.61,14.79,14.79,0,0,1,3.43,5,17.35,17.35,0,0,1,1.32,5.8c0,2.72-.62,5.89-2,7.64a16.52,16.52,0,0,1-4.75,4.57,15.07,15.07,0,0,1-6.06,1.32c-.71,0-2-.44-3.43-.44-1.67,0-3.08-.88-3.69-.88a2.57,2.57,0,0,0-2.73,2.2,3.85,3.85,0,0,1-.7,1.85c-.35,0-1-1-1-1.85l-4.48-14v-.88a1.68,1.68,0,0,1,.35-.88c.35,0,1.06.44,1.06.88A13.15,13.15,0,0,0,274.5,199a14,14,0,0,0,3.69,4.57c1.41,1.32,3.43,2.64,4.75,2.64.7,0,2,.44,3.42.44a10.78,10.78,0,0,0,5.45-1.76,7.35,7.35,0,0,0,2.64-5.89c0-.44.35-1.32.35-1.76a7.06,7.06,0,0,0-1-4,10.12,10.12,0,0,0-2.73-2.73,55.72,55.72,0,0,0-5.1-2.72c-2-.88-4.39-1.76-5.8-2.2a13,13,0,0,1-6.06-4.48,15.59,15.59,0,0,1-2-7.73,19.81,19.81,0,0,1,1.32-6.68,12,12,0,0,1,4.13-4,12.9,12.9,0,0,1,6.06-1.4H285c.7,0,1.76.44,2.72.44a15,15,0,0,1,2.38,1,1.85,1.85,0,0,0,2-1.84Zm-36.3,27.95-5.36-18.9-5.45,18.9ZM248.4,167.1c-.71,0-1.41-.44-1.41-.88,0,0,.7-1,1-1,.71,0,1.67-.88,2.38-1.32,1-.88,2-1.84,2.37-2.28a1.63,1.63,0,0,1,.7-1.32,7.5,7.5,0,0,1,1,2.72L264,197.24a26.09,26.09,0,0,0,2,5.89c.71.88,1.41,1.76,1.76,1.76.62,0,1.67.44,2.73.44a1.3,1.3,0,0,1,1.32,1.32,2.78,2.78,0,0,1-1.32.52h-16a2.37,2.37,0,0,1-1.32-.52,1.25,1.25,0,0,1,1.32-1.32h1.06a16.81,16.81,0,0,0,2.37-.44c.61,0,1-1.32,1-2.73,0-.88-.36-2.19-.36-3.6l-2-8.09H245l-1.32,4.93a17.78,17.78,0,0,0-1.05,5.88c0,1.32.35,2.73,1.05,3.17a5.25,5.25,0,0,0,3,.88c.35,0,.7.44.7,1.32a1.25,1.25,0,0,1-1,.52H234.77a1.25,1.25,0,0,1-1-.52v-.88a3.36,3.36,0,0,1,1-.44h1.76c.62,0,1.32-.88,1.67-1.32.7-.88,1.32-2.29,2-3.16a18.66,18.66,0,0,0,1.67-5.45l7.82-27A1.73,1.73,0,0,0,248,167.1Zm-33.58,6.76c0-1.84-.35-4-.35-5a5.54,5.54,0,0,0-1.05-2.63c-.27-.53-1-1.41-1.67-1.41s-1.67-.44-2.38-.44l-.7.44a.91.91,0,0,1-1-.88,1.25,1.25,0,0,1,1.32-1.32h22.41c.71,0,1.32-1,1.67-1,0,0,.71-.88.71-1.32s.7-.88.7-.88a10.46,10.46,0,0,1,.61,1.32l4.14,12.57a2.6,2.6,0,0,1,.26,1s-.26.44-.62.44l-.7-.88a11.71,11.71,0,0,0-2.72-4,18.8,18.8,0,0,0-4.75-3.6,13.19,13.19,0,0,0-6.06-1.85,3.55,3.55,0,0,0-3.43,1.85c-.7.88-1,3.07-1,5.36v10.81h5a5.38,5.38,0,0,0,4.13-1.85,10.49,10.49,0,0,0,2-5.36,6.15,6.15,0,0,1,.36-1.84c.35,0,.61,1,.61,1.84v17.14c0,.88-.26,1.32-.61,1.32a5.52,5.52,0,0,1-.36-1.85,13.15,13.15,0,0,0-1.4-5.36c-.62-1.32-2.64-2.28-4.75-2.28h-5v16.7a4.31,4.31,0,0,0,1.67,3.16c.7.88,2.37,1.32,4,1.32.71,0,1.06.44,1.06,1.32,0,0-.35.52-.7.52H209c-.7,0-1.32-.52-1.32-1l.36-.44c.26,0,1-.44,1.31-.44h1.06c.61,0,1.67-.44,2-.44.7,0,1.32-1.32,1.67-2.29a24.92,24.92,0,0,0,.7-5.8Zm143.84-20.1a6.64,6.64,0,0,0,3.06-.79,6,6,0,0,0,1.86-3.05,27.2,27.2,0,0,0,.6-5.28V144a32.58,32.58,0,0,0-.44-3.65,8.6,8.6,0,0,0-.95-2.62,5.56,5.56,0,0,0-1.83-1.87,6.56,6.56,0,0,0-2.89-.59c-.64,0-1.23.2-1.55.2a1.3,1.3,0,0,0-.91.83,8.21,8.21,0,0,0-.32,2.42v11.19c0,1.23.16,2.22.16,2.61s.48,1,.79,1S357.59,153.76,358.66,153.76Zm-5.79-15.23a5.21,5.21,0,0,0-.31-1.82c-.16-.4-.48-1-.76-1a3.83,3.83,0,0,0-1.7-.4,1.13,1.13,0,0,1-.44-.2.56.56,0,0,1,.59-.59H359a8.7,8.7,0,0,1,3.37.79,7.65,7.65,0,0,1,2.46,2.22,12,12,0,0,1,1.51,3.06,16.28,16.28,0,0,1,.63,3.88,16.09,16.09,0,0,1-.47,3.85,10.52,10.52,0,0,1-1.55,3.45,6.56,6.56,0,0,1-2.42,2,8.71,8.71,0,0,1-3.37.84h-8.89c-.31,0-.59-.24-.59-.44s.28-.4.59-.4h.6c.32,0,.79-.19.95-.19s.6-.6.76-1a11.64,11.64,0,0,0,.31-2.61Zm-9.2,7.74-2.46-8.53-2.42,8.53Zm-3.53-9.76c-.28,0-.6-.2-.6-.4,0,0,.32-.43.48-.43s.75-.4,1.07-.6a14.25,14.25,0,0,0,1.07-1,.73.73,0,0,1,.28-.59,2.91,2.91,0,0,1,.48,1.22l4.28,15.43a10.18,10.18,0,0,0,.91,2.66c.32.4.6.8.76.8s.79.19,1.23.19a.59.59,0,0,1,.63.6,1.26,1.26,0,0,1-.63.24h-7.18a1.26,1.26,0,0,1-.64-.24.6.6,0,0,1,.64-.6h.43a5.89,5.89,0,0,0,1.07-.19c.32,0,.48-.6.48-1.23,0-.4-.16-1-.16-1.63l-.91-3.65h-5.2l-.63,2.22a9,9,0,0,0-.44,2.66,2,2,0,0,0,.44,1.43,2.61,2.61,0,0,0,1.39.39c.15,0,.31.2.31.6a.59.59,0,0,1-.47.24H334a.49.49,0,0,1-.44-.24V154a1.13,1.13,0,0,1,.44-.2h.75c.32,0,.64-.39.8-.59.28-.4.59-1,.91-1.43a9.5,9.5,0,0,0,.75-2.46l3.53-12.18a.78.78,0,0,0-.75-.59Zm-12.53,17.25a6.57,6.57,0,0,0,3.05-.79,6,6,0,0,0,1.86-3.05,27.2,27.2,0,0,0,.6-5.28V144a25.18,25.18,0,0,0-.48-3.65,7.69,7.69,0,0,0-.91-2.62,6,6,0,0,0-1.82-1.87,6.64,6.64,0,0,0-2.9-.59c-.63,0-1.23.2-1.55.2a1.25,1.25,0,0,0-.91.83,8.21,8.21,0,0,0-.32,2.42v11.19c0,1.23.16,2.22.16,2.61s.48,1,.76,1C325.62,153.57,326.53,153.76,327.61,153.76Zm-5.84-15.23a5.12,5.12,0,0,0-.27-1.82c-.16-.4-.48-1-.8-1a3.61,3.61,0,0,0-1.66-.4,1.41,1.41,0,0,1-.48-.2.59.59,0,0,1,.64-.59h8.72a8.88,8.88,0,0,1,3.37.79,7.14,7.14,0,0,1,2.42,2.22,10.89,10.89,0,0,1,1.55,3.06,16.23,16.23,0,0,1,.6,3.88,16,16,0,0,1-.44,3.85,10.52,10.52,0,0,1-1.55,3.45,6.48,6.48,0,0,1-2.42,2,9.09,9.09,0,0,1-3.37.84H319.2c-.32,0-.64-.24-.64-.44s.32-.4.64-.4h.59a6.88,6.88,0,0,0,.91-.19c.32,0,.64-.6.8-1a11.36,11.36,0,0,0,.27-2.61Zm-9.16.8a7,7,0,0,0-.47-3.22,2,2,0,0,0-1.51-.83H310a1.37,1.37,0,0,1-.59-.2v-.4l.32-.19h7.93c.32,0,.48.19.48.39s-.32.4-.64.4a13.29,13.29,0,0,0-1.35.2c-.32,0-.63.63-.79,1a10.29,10.29,0,0,0-.28,2.42v11.58a7.58,7.58,0,0,0,.28,2c.16.44.47,1,.79,1s.91.19,1.51.19l.32.2.16.4a.6.6,0,0,1-.48.24h-7.93s-.32-.24-.32-.44.32-.4.32-.4c.59,0,1.34-.19,1.66-.19s.76-.6.91-1a7.43,7.43,0,0,0,.32-2.22Zm-7.06-5.68a2.46,2.46,0,0,1,.16-.79,3.85,3.85,0,0,1,.48.79l1.66,5.91v.2l-.16.2c-.12,0-.27-.2-.27-.4a8.75,8.75,0,0,0-2.31-3.25,5.54,5.54,0,0,0-3.68-1.63,2.88,2.88,0,0,0-2,1.19,5.05,5.05,0,0,0-.91,2.86,2.55,2.55,0,0,0,.48,1.43,4.92,4.92,0,0,0,1.07,1,16.41,16.41,0,0,0,1.82.79c.76.2,1.51.6,1.83.6a8.08,8.08,0,0,1,2.89,1.62,6.75,6.75,0,0,1,1.55,2.27,7.78,7.78,0,0,1,.63,2.61,5.94,5.94,0,0,1-.95,3.45,7,7,0,0,1-2.14,2.07,6.9,6.9,0,0,1-2.74.59c-.31,0-.91-.2-1.54-.2a9.47,9.47,0,0,1-1.67-.39,1.19,1.19,0,0,0-1.23,1,1.68,1.68,0,0,1-.32.83c-.16,0-.43-.43-.43-.83l-2-6.31v-.4a.9.9,0,0,1,.12-.39c.16,0,.48.2.48.39a5.87,5.87,0,0,0,1.07,2,7,7,0,0,0,1.67,2.06,4,4,0,0,0,2.14,1.19c.31,0,1,.2,1.54.2a4.91,4.91,0,0,0,2.46-.79,3.33,3.33,0,0,0,1.23-2.66c0-.2.12-.6.12-.8a2.93,2.93,0,0,0-.43-1.82,4.12,4.12,0,0,0-1.23-1.23,20.32,20.32,0,0,0-2.3-1.23c-.92-.4-2-.79-2.58-1a6.05,6.05,0,0,1-2.78-2,7.12,7.12,0,0,1-.91-3.49,9.24,9.24,0,0,1,.59-3,5.38,5.38,0,0,1,1.87-1.82,5.72,5.72,0,0,1,2.73-.64h.64c.28,0,.75.2,1.19.2a6.69,6.69,0,0,1,1.07.44.87.87,0,0,0,.95-.84Zm-21.26,10.16h2.14a3.07,3.07,0,0,0,1.55-.6,1.9,1.9,0,0,0,.75-1.23.74.74,0,0,1,.32-.59,1,1,0,0,1,.16.59v1c.28,0,.75-.63,1.07-1.23a6.49,6.49,0,0,0,.59-2.45,2.49,2.49,0,0,0-.15-.6,2.9,2.9,0,0,0-.92-2.42,3.76,3.76,0,0,0-2.57-1c-.48,0-1.08.2-1.39.2a1.43,1.43,0,0,0-1.07.63,1.73,1.73,0,0,0-.48,1.39Zm-2.46-4.05c0-1-.12-2-.12-2.46a5.66,5.66,0,0,0-.63-1.43,1.09,1.09,0,0,0-.6-.39c-.32,0-.79-.2-1.07-.2a1.61,1.61,0,0,1-.79-.2.59.59,0,0,1,.63-.59h8.25a13.65,13.65,0,0,1,3.22.39,3.82,3.82,0,0,1,2,1.63,4.43,4.43,0,0,1,.95,2.42c0,3-1.55,5.08-4.28,5.51l3.33,7.1a3.39,3.39,0,0,0,.79,1.23,2.09,2.09,0,0,0,1.23.8c.28,0,.91.19,1.19.19a1.41,1.41,0,0,1,.48.2l.16.4a.6.6,0,0,1-.48.24h-4.56a1.3,1.3,0,0,1-.48-.24,1.61,1.61,0,0,1-.31-.6c0-.19-.28-.59-.28-.79l-3.69-8.33h-2.46v5.87a5.13,5.13,0,0,0,.48,2.66,2,2,0,0,0,1.5.79h.64a.38.38,0,0,1,.43.4s-.11.24-.27.24h-7.82a1.26,1.26,0,0,1-.63-.24c0-.2.32-.4.63-.4.6,0,1.07-.2,1.39-.2a2.65,2.65,0,0,0,.91-1,8.22,8.22,0,0,0,.28-2.26ZM209,139.33a8.18,8.18,0,0,0-.31-2.42c-.16-.6-.44-1.23-.6-1.23a2.37,2.37,0,0,0-1.23-.4h-.59a.63.63,0,0,1-.48-.2c0-.4.16-.59.48-.59h8.41c.15,0,.27.19.27.39s-.12.4-.27.4H213c-.28,0-.59.4-.75.59a1.83,1.83,0,0,0-.6,1.23c0,.64-.16,1.63-.16,2.86v9.12a7.4,7.4,0,0,0,.44,2.86,2.89,2.89,0,0,0,1.39,1.43,7.22,7.22,0,0,0,2.3.39c3,0,4.76-1.62,4.76-4.88V141a19.23,19.23,0,0,0-.32-3.65,4.28,4.28,0,0,0-.91-1.62,3.84,3.84,0,0,0-1.71-.4,1.07,1.07,0,0,1-.43-.2.54.54,0,0,1,.43-.59h6.15v0s.08,0,.12,0h5.24c.12,0,.27.19.27.39,0,0-.15,0-.15.4l.15.4,7.34,15V141a19.92,19.92,0,0,0-.28-3.65,2.59,2.59,0,0,0-.79-1.62,2.2,2.2,0,0,0-1.07-.4h-.59a.63.63,0,0,1-.48-.2c0-.4.16-.59.32-.59h6s.11.08.19.15a1.5,1.5,0,0,0,.24-.15h8l0,0a.38.38,0,0,1,.28-.08h7.38c.24,0,.4.23.4.63a.61.61,0,0,1-.4.16c-.63,0-1.27.24-1.59.24a1.74,1.74,0,0,0-.55,1.43c0,.39.16.79.16,1l3.65,13.17,3.17-11.59a12.23,12.23,0,0,0,.32-2.22c0-1.19-.64-2.06-1.67-2.06-.32,0-.48-.16-.48-.4s.16-.39.32-.39h5.79a.2.2,0,0,1,.12,0h8.17a7.7,7.7,0,0,0,1.35-.24.77.77,0,0,0,.64-.6c0-.19.28-.39.28-.39s.47.39.63.79l1.51,5.08v.43s-.12.2-.28.2c0,0-.32-.2-.32-.43a4.4,4.4,0,0,0-1.39-2,6.51,6.51,0,0,0-2-1.43,11,11,0,0,0-2.46-.59,2.08,2.08,0,0,0-1.66.59,4.87,4.87,0,0,0-.48,2.46v5.08h2c.6,0,1.19-.2,1.51-.2a1.7,1.7,0,0,0,1.23-.83,4.39,4.39,0,0,0,.47-2.22c0-.4.12-.83.28-.83s.32.23.32.63v8.33c0,.4-.16.59-.48.59a1.18,1.18,0,0,1-.12-.59,4.41,4.41,0,0,0-.95-3,3.17,3.17,0,0,0-2.26-1h-2v6.31a5,5,0,0,0,.63,2.66,3.06,3.06,0,0,0,2.15.79h.15l.28-.2a7.71,7.71,0,0,0,2.14-.39,8.71,8.71,0,0,0,2.15-1.63,8.93,8.93,0,0,0,1.38-2.86l.32-.39.32-.2a.91.91,0,0,1,.12.4.84.84,0,0,0-.12.39l-2.3,7.14a.58.58,0,0,1-.48.6c-.16,0-.31-.2-.31-.6a1.28,1.28,0,0,0-.6-1,3,3,0,0,0-1.39-.39c-.59,0-1.23-.2-1.82-.2h-7.66a1,1,0,0,1-.59-.24c0-.2.16-.6.43-.6h1.07a6,6,0,0,0,.8-.19,2,2,0,0,0,.59-1.43,11.79,11.79,0,0,0,.32-2.86v-9.95a8.11,8.11,0,0,0-.32-2.42c-.16-.6-.47-1.23-.59-1.23s-.44-.2-.68-.28a.57.57,0,0,1-.27.08s0-.12,0-.16a.14.14,0,0,1-.08,0h-.32c-.28.12-.52.24-.75.36a8.49,8.49,0,0,0-1.12,1.27,27.93,27.93,0,0,0-1,2.61l-3.65,12.38a1.63,1.63,0,0,0,.4.4s.32.47.63.47l.16.16-.16.24-.31.16a2.84,2.84,0,0,0-1,.39,7,7,0,0,0-1,1.27c0,.16-.31.4-.47.4l-.08-.24L251,137.7a5.21,5.21,0,0,0-.63-1.43c-.32-.4-.64-.79-.88-.79s-.79-.24-1.11-.24a.19.19,0,0,0-.16,0,.73.73,0,0,1-.31,0c-.6,0-1.07.2-1.39.2s-.6.63-.76,1a8.64,8.64,0,0,0-.31,2.42v11.58a6.37,6.37,0,0,0,.31,2c.16.44.48,1,.76,1s.91.19,1.55.19l.31.2.12.4a.48.48,0,0,1-.43.24h-8s-.32-.24-.32-.44.32-.4.32-.4c.64,0,1.39-.19,1.71-.19s.75-.6.91-1a7.43,7.43,0,0,0,.32-2.22v-11a6.8,6.8,0,0,0-.48-3.22,2,2,0,0,0-1.55-.83h-.59a2,2,0,0,1-.6-.12c0,.08-.19.12-.31.12a2.1,2.1,0,0,0-2,1.43,13.44,13.44,0,0,0-.47,4v10.59a1.8,1.8,0,0,0,1.55,1,.41.41,0,0,1,.43.43s-.16.4-.43.4a2.88,2.88,0,0,0-1,.4,9.09,9.09,0,0,0-1.07,1,1.16,1.16,0,0,1-.43.59,3,3,0,0,1-.76-1l-8.57-17.65v11.58a22,22,0,0,0,.28,3.85c.16.83.64,1.43.91,1.43a3.29,3.29,0,0,0,1.55.39c.16,0,.32.2.32.6,0,0-.16.24-.32.24h-5.83a.57.57,0,0,1-.44-.24c0-.4.16-.6.44-.6s.79-.19,1.07-.19a4.44,4.44,0,0,0,1.07-1.83,14.74,14.74,0,0,0,.48-4.48V136.31a2.24,2.24,0,0,0-2.14-1h-1.67c-.32,0-.63.4-.79.59a3.25,3.25,0,0,0-.6,1.63,18.2,18.2,0,0,0-.32,3.25v7.54a15.59,15.59,0,0,1-.31,3.05,6.53,6.53,0,0,1-1.07,1.83,2.25,2.25,0,0,1-1.51,1,7.33,7.33,0,0,1-2.14.44H215c-.91,0-1.82-.24-2.42-.24a3.34,3.34,0,0,1-1.86-.79,5.67,5.67,0,0,1-1.19-1.63,7.94,7.94,0,0,1-.48-2.86Z"/></svg>