<svg id="Capa_1" data-name="Capa 1" xmlns="http://www.w3.org/2000/svg" viewBox="0 0 486.36 343.89"><defs><style>.cls-1{fill:#fff;fill-rule:evenodd;}</style></defs><title>Logos</title><path class="cls-1" d="M316,240.05v-28.2H304.32v28.2Z"/><path class="cls-1" d="M254.34,228.34V212.28H243.06v12.28a22.65,22.65,0,0,1-.36,5.5c-.78,2.57-3.5,3.71-6.28,3.71-3.86,0-5.64-1.5-6.36-3.86a14.21,14.21,0,0,1-.35-2.5c-.08-.92,0-1.92,0-3V212.28H218.28v16.13a10.77,10.77,0,0,0,3.21,8.22c3.43,3.35,9.22,4.35,14.57,4.35,6.5,0,11.5-.93,15.07-4.43,1.85-1.78,3.21-4.14,3.21-8.21Z"/><path class="cls-1" d="M198.93,226.34a9.77,9.77,0,0,0-1.71-.14H184.36a10.46,10.46,0,0,0-1.71.14,11.38,11.38,0,0,0,1.07-1.21l5.79-9.57a16,16,0,0,0,1.28-2.5,18.28,18.28,0,0,0,1.29,2.57l5.92,9.64a7.89,7.89,0,0,0,.93,1.07Zm21.57,13.71-25.71-38.56H180.37l3.78,4.5a1.76,1.76,0,0,0,.36.22,1.42,1.42,0,0,0-.36.21l-22.42,33.63h13l3.5-5.78a1.81,1.81,0,0,0,.22-.72,6.59,6.59,0,0,0,.85.15H202.5a1.8,1.8,0,0,0,.79-.15,1,1,0,0,0,.14.58l3.64,5.92Z"/><path class="cls-1" d="M301.18,225.56c0-3.14-1.28-6.79-5.28-11.86l-9.64-12.21H272.84l7.64,8.57a26.63,26.63,0,0,0,2.92,2.72,12.59,12.59,0,0,0-6.07-1.5,26.54,26.54,0,0,0-12.92,3.14c-4.28,2.35-7.14,6.28-7.14,11.49a13.27,13.27,0,0,0,4.07,9.43c5.14,5.14,14.49,5.64,17.92,5.64,5.07,0,13-1.14,17.5-5.21a13.41,13.41,0,0,0,4.42-10.21Zm-11.14.35a7.21,7.21,0,0,1-4.35,6.36,13.76,13.76,0,0,1-6.43,1.36,15.07,15.07,0,0,1-6.5-1.43c-2.42-1.22-4.28-3.57-4.28-6.14,0-3.07,2.36-5.5,5.14-6.71a13.55,13.55,0,0,1,5.43-1.08,16.48,16.48,0,0,1,5.64.93c3.21,1.36,5.35,3.93,5.35,6.71Z"/><path class="cls-1" d="M312.27,109.57a37,37,0,0,0-23,8,37.15,37.15,0,0,0-46.06,0,37.15,37.15,0,0,0-46.06,0,37.14,37.14,0,1,0,0,58.28,37.15,37.15,0,0,0,46.06,0,37.15,37.15,0,0,0,46.06,0,37.14,37.14,0,1,0,23-66.28ZM191,169.78a28.63,28.63,0,1,1,0-46.14,37.15,37.15,0,0,0,0,46.14Zm6.08-6.06a28.63,28.63,0,0,1,0-34,28.59,28.59,0,0,1,0,34Zm40,6.06a28.66,28.66,0,0,1-33.9,0,37.15,37.15,0,0,0,0-46.14,28.62,28.62,0,0,1,33.9,0,37.15,37.15,0,0,0,0,46.14Zm6.08-6.06a28.63,28.63,0,0,1,0-34,28.63,28.63,0,0,1,0,34Zm40,6.06a28.66,28.66,0,0,1-33.9,0,37.15,37.15,0,0,0,0-46.14,28.62,28.62,0,0,1,33.9,0,37.15,37.15,0,0,0,0,46.14Zm6.08-6.06a28.59,28.59,0,0,1,0-34,28.63,28.63,0,0,1,0,34Zm23,11.62a28.88,28.88,0,0,1-17-5.56,37.12,37.12,0,0,0,0-46.14,28.63,28.63,0,1,1,17,51.7Z"/></svg>