<svg id="Capa_1" data-name="Capa 1" xmlns="http://www.w3.org/2000/svg" viewBox="0 0 486.36 343.89"><defs><style>.cls-1{fill:#fff;}</style></defs><title>Logos</title><path class="cls-1" d="M242.94,83.14a59.06,59.06,0,1,1-59.12,58.44A59.17,59.17,0,0,1,242.94,83.14Zm53.63,58.57a51.35,51.35,0,0,0-2.26-15,52.74,52.74,0,0,0-25.08-31.23,55,55,0,0,0-23.83-7c-1.27-.08-1.74.21-1.51,1.57,1.23,7.22,2.4,14.45,3.59,21.67,1.29,7.84,2.61,15.67,3.84,23.51a4.12,4.12,0,0,0,1.54,2.86q18,14.64,35.86,29.37c.87.72,1.16.62,1.64-.34A56,56,0,0,0,296.57,141.71Zm-107.34.46a57.72,57.72,0,0,0,6.05,24.75c.54,1.13.91,1.29,2,.42q17.63-14.57,35.37-29a4.87,4.87,0,0,0,1.83-3.36q1.74-10.84,3.56-21.67c1.28-7.68,2.54-15.36,3.92-23,.28-1.6-.28-1.85-1.63-1.74a58.16,58.16,0,0,0-16.86,3.67A53.77,53.77,0,0,0,189.23,142.17Zm53.06,53.71a68,68,0,0,0,12.43-1.46A54,54,0,0,0,288,171.27c1-1.55,1-1.58-.79-2.27l-43-16.15a3.35,3.35,0,0,0-2.53,0q-21.72,8.17-43.47,16.28c-1.1.4-1.31.8-.6,1.86C208.34,187.17,223.68,195,242.29,195.88Z"/><path class="cls-1" d="M134.19,254.33c.85-2.32,1.65-4.48,2.43-6.65,1.88-5.19,3.77-10.38,5.61-15.58.29-.82.62-1,1.55-.93a48.29,48.29,0,0,0,5.11.05c0,.23,0,.39-.06.4-2.94.74-3.2,1.08-3.13,4.14.12,6.21.27,12.41.35,18.61,0,2.69-.31,5.5,3.62,5.93-3.23-.05-6.31,0-9.52.12.48-.59,1-.48,1.51-.64a2.37,2.37,0,0,0,1.82-2.4q-.15-11.62-.33-23.27a4,4,0,0,0-.3-.78c-3.22,8.93-6.32,17.56-9.58,26.63-3.21-9.09-6.25-17.74-9.29-26.35-.54.1-.52.35-.53.53-.32,7.07-.66,14.14-.94,21.21-.14,3.51-.09,3.51,3.79,5.13a40,40,0,0,0-8.29.07c0-.18,0-.32,0-.33,3.27-1.23,3.25-1.23,3.43-4.7q.54-10.36,1.12-20.73a2.65,2.65,0,0,0-2.29-3c-.43-.09-.93.12-1.53-.55,1.62,0,3,0,4.39,0,2.48,0,2.47,0,3.31,2.34q3.42,9.71,6.85,19.4A2.16,2.16,0,0,0,134.19,254.33Z"/><path class="cls-1" d="M302.09,244.79c.09.43.46.38.73.48,3.3,1.18,5,3.53,5,6.84a7.61,7.61,0,0,1-5.05,7.57,14,14,0,0,1-4.88.73c-3.37,0-6.74,0-10.11,0a2.58,2.58,0,0,1-.57-.13c.08-.18.1-.33.15-.34,3.18-.58,3.42-.83,3.43-4.13q0-10.28.05-20.53c0-2.47-.19-2.67-3.4-3.81.14-.33.43-.22.66-.22,3.78,0,7.55-.08,11.32,0,5.19.15,8.23,4.58,6.55,9.36A6.47,6.47,0,0,1,303.3,244C302.89,244.22,302.31,244.28,302.09,244.79Zm-5.81.67v.08c-.67,0-1.33,0-2,0s-.95.26-.95.91c0,3.66,0,7.33,0,11a2,2,0,0,0,2.17,2.11,28.18,28.18,0,0,0,3.56,0,5.93,5.93,0,0,0,5.47-4.28,9.7,9.7,0,0,0,.14-5.34,5.23,5.23,0,0,0-4.58-4.17C298.84,245.58,297.56,245.54,296.28,245.46Zm-3-7.18v2.64c0,3.8,0,3.8,3.88,3.75,4.07,0,6-1.58,6.35-5.6.32-4.19-1-7-6-7-1,0-2,0-2.95,0s-1.28.37-1.25,1.28C293.35,235,293.33,236.62,293.32,238.28Z"/><path class="cls-1" d="M241.41,259.74l-4.17.77a.91.91,0,0,1-1.18-.89c-.07-.51-.06-1-.12-1.54,0-.24,0-.55-.29-.65s-.42.2-.58.39c-3.65,4.41-9,3.79-11.32-1.45a14.34,14.34,0,0,1,.89-14.05c2-3.19,7.77-4.25,10.16.17.14.25.22.59.82.57,0-3.05.07-6.11,0-9.17,0-1.07-.65-1.36-2.93-2,1.75-.29,3.23-.56,4.71-.79.76-.11.66.49.67.93,0,1.29,0,2.58,0,3.87Q238,246,238,256C238.05,258.5,238.58,259.11,241.41,259.74Zm-5.73-9.13a16.37,16.37,0,0,0-1.29-7.48,4.44,4.44,0,0,0-4.45-2.73,4,4,0,0,0-3.9,3,19.44,19.44,0,0,0,.17,13.63,4.16,4.16,0,0,0,4.32,2.87,4.43,4.43,0,0,0,4.15-3.18A15.06,15.06,0,0,0,235.68,250.61Z"/><path class="cls-1" d="M337.67,260.41a56,56,0,0,0-8.09,0c.91-.41,2-.35,2.61-1.32a5.36,5.36,0,0,0,.38-2.88q0-6.13,0-12.27c0-2.81-.17-3-3.24-3.51,1.81-.47,3.19-.84,4.59-1.18.7-.18.59.42.63.77.09.84.12,1.69.2,2.9,1.41-1.6,2.62-2.86,4.42-3.25,4.39-.94,7.53,1.75,7.75,6.85.15,3.41.05,6.83.06,10.24,0,2.63.27,2.95,2.82,3.64a80.14,80.14,0,0,0-8.21-.13,12.51,12.51,0,0,0,1.36-.25,1.81,1.81,0,0,0,1.49-1.9c0-4.24,0-8.49-.06-12.73,0-2.38-1.35-4-3.24-4.34a5,5,0,0,0-5.61,2.9,7.91,7.91,0,0,0-.65,3.16c0,3.16,0,6.31,0,9.47C334.91,259.29,335.12,259.56,337.67,260.41Z"/><path class="cls-1" d="M320.07,249.38c-1.81,0-3.62,0-5.43,0-.78,0-1.19.27-1.11,1.07a16.87,16.87,0,0,0,1.34,6.31,5.22,5.22,0,0,0,5.09,3.12,5,5,0,0,0,4.72-3.17,11.08,11.08,0,0,0,.76-2c.14-.57.41-.78,1-.73.72.07.45.59.41.94-.29,2.52-3,5.74-6,5.7-7-.09-10.75-4.72-9.59-12a14.85,14.85,0,0,1,1.77-5.56,7,7,0,0,1,6.83-3.66,6.7,6.7,0,0,1,6.05,4.36c.12.28.24.57.35.86,1.5,4.33,1.21,4.77-3.22,4.77ZM319,248.06h0c1.45,0,2.9,0,4.34,0,1,0,1.28-.35,1.19-1.28a9.43,9.43,0,0,0-1.49-4.64,4.46,4.46,0,0,0-7.36-.17,12.25,12.25,0,0,0-1.88,5c-.18.82.22,1.09,1,1.06C316.2,248,317.6,248.06,319,248.06Z"/><path class="cls-1" d="M253.09,249.18H247.5c-.74,0-1.15.21-1.15,1.06a15.14,15.14,0,0,0,1.2,6.34,5.14,5.14,0,0,0,5.29,3.28,5.39,5.39,0,0,0,4.9-3.67,10.26,10.26,0,0,0,.54-1.62c.14-.65.57-.67,1.05-.56s.35.57.29.89a6.82,6.82,0,0,1-6.69,5.72c-5.58-.2-8.25-2.59-8.92-8.26a16.6,16.6,0,0,1,.79-7.32c1.28-3.78,4.19-5.89,7.75-5.67s6.1,2.69,6.84,6.71c.69,3.79.54,3-2.58,3.09-1.24,0-2.48,0-3.72,0Zm-1.18-1.11h4.35c.6,0,1.21,0,1.05-.9a12.79,12.79,0,0,0-1.45-4.85,4.39,4.39,0,0,0-7.13-.67c-1.44,1.56-1.84,3.55-2.22,5.53-.15.73.3.89.9.89Z"/><path class="cls-1" d="M162,249.18h-5.59c-.7,0-1.3.19-1.21,1,.25,2.09.25,4.23,1.18,6.2a5.29,5.29,0,0,0,5.49,3.46,5.54,5.54,0,0,0,4.89-3.91c.08-.2.13-.4.21-.59.26-.58.07-1.78,1.17-1.33.85.35.28,1.26.08,1.88-1,2.91-3.16,4.63-5.87,4.64-6.22,0-8.78-2.25-9.44-8.8a13.6,13.6,0,0,1,2.08-9.19,6.9,6.9,0,0,1,6.8-3.17,6.72,6.72,0,0,1,5.71,4.19,13.73,13.73,0,0,1,1.05,4.18c.14,1.25-.33,1.48-1.43,1.43-1.71-.08-3.42,0-5.12,0Zm-1.28-1.12h0c1.45,0,2.89,0,4.33,0,.88,0,1.2-.32,1.13-1.19a9.56,9.56,0,0,0-1.45-4.66,4.45,4.45,0,0,0-7.43-.2,12.05,12.05,0,0,0-1.84,5c-.14.74.2,1,.93,1C157.79,248,159.23,248.06,160.67,248.06Z"/><path class="cls-1" d="M212.81,249.18c-1.81,0-3.62,0-5.43,0-.87,0-1.42.29-1.32,1.25a17.61,17.61,0,0,0,1.33,6.32,5.09,5.09,0,0,0,5.07,3.12,5.29,5.29,0,0,0,4.91-3.4c.29-.65.45-1.37.68-2.05.18-.53.62-.5,1-.42s.29.47.27.75a6.55,6.55,0,0,1-6,5.81c-6.36,0-9.14-2.59-9.58-9.16a14.65,14.65,0,0,1,1.53-7.81,7.28,7.28,0,0,1,7.61-4.19,7.38,7.38,0,0,1,6.13,6c.87,3.79.87,3.79-2.93,3.79Zm-1.11-1.13c1.44,0,2.88,0,4.33,0,.68,0,1.08-.19,1-1a9,9,0,0,0-1.76-5.32,4.46,4.46,0,0,0-7,.09,10.19,10.19,0,0,0-2,5c-.13.83.11,1.26,1,1.23C208.81,248,210.25,248.05,211.7,248.05Z"/><path class="cls-1" d="M368,255c-.3,1.67-.6,3.18-.83,4.7-.08.55-.26.86-.85.86H352.68c2.76-4.39,5.36-8.53,7.95-12.68,1.29-2,2.55-4.13,3.84-6.17.54-.85.35-1.2-.64-1.2-1.66,0-3.32-.07-5,0a4.7,4.7,0,0,0-4.12,2.84c-.24.49-.24,1.12-1,1.59.27-1.66.47-3.14.78-4.6.13-.64.76-.53,1.28-.53h12.59c-1.54,2.48-2.92,4.72-4.32,6.95-2.39,3.8-4.8,7.59-7.18,11.4-.26.42-.75.89-.52,1.38s.92.27,1.4.29c1.19,0,2.38,0,3.57,0,3.27,0,4.77-1,6-4.08C367.44,255.5,367.45,255.17,368,255Z"/><path class="cls-1" d="M275.09,239.33v6.11c-.81-.61-.65-1.42-.9-2a4.59,4.59,0,0,0-5.69-3,4.13,4.13,0,0,0-3.15,3.44,3.6,3.6,0,0,0,2.32,3.82c2,.94,4.14,1.63,6.11,2.64a5.06,5.06,0,0,1,1.66,7.9,5.68,5.68,0,0,1-4.52,2.34c-2,0-4.05.28-5.78-1.15-.64-.53-.88,0-1.12.52-.14.27-.31.6-.68.49a.57.57,0,0,1-.3-.46c0-1.93,0-3.87,0-6.21,1,1.13,1,2.21,1.53,3.07a5.65,5.65,0,0,0,7.81,2.43,4.14,4.14,0,0,0,2.31-3.76c.07-1.61-1-2.65-2.33-3.37-2.1-1.11-4.51-1.51-6.52-2.83a5,5,0,0,1-.09-8.55,7.21,7.21,0,0,1,6.22-.87,1.62,1.62,0,0,1,.44.14C273.49,240.63,274.49,241,275.09,239.33Z"/><path class="cls-1" d="M171.44,240.19a20.07,20.07,0,0,0,3.46-.73c1.08-.38,1.51.09,1.55,1.14,0,.75.08,1.5.12,2.36.77-.29.85-.93,1.15-1.36a4.67,4.67,0,0,1,5.69-1.85,2.78,2.78,0,0,1,1.78,3.1c-.12.93-.63,1.66-1.59,1.54a1.45,1.45,0,0,1-1.28-1.79c.15-1.45-.77-2.18-2.16-1.75a3.87,3.87,0,0,0-2.43,2.23,9.58,9.58,0,0,0-.9,3.89c-.06,3.56-.05,7.13,0,10.7,0,1.66.61,2.16,2.83,2.69a45.46,45.46,0,0,0-8.22.26c.16-.59.52-.41.75-.45,1.69-.29,2.19-.86,2.19-2.58,0-4.58,0-9.16,0-13.75C174.34,241.05,174.09,240.74,171.44,240.19Z"/><path class="cls-1" d="M199.67,239.19v6.05c-.61-.05-.53-.49-.64-.8a6.69,6.69,0,0,0-2.29-3.42,4.37,4.37,0,0,0-6.55,1.3c-1.7,2.81-1.91,6-1.76,9.13a14.85,14.85,0,0,0,.75,4.55c.92,2.55,2.38,3.85,4.61,3.87s3.74-1.18,4.65-3.8c.19-.53.34-1.07.5-1.62s.46-.5.85-.46c.6,0,.4.47.37.81a6.05,6.05,0,0,1-6.21,5.76c-4,0-6.26-1.53-7.43-5.38-1.48-4.84-1.33-9.5,2.18-13.53a6.4,6.4,0,0,1,8.42-1.24c.95.67,1.36.66,1.76-.4C199,239.69,199.11,239.3,199.67,239.19Z"/><path class="cls-1" d="M282.73,249.07h-3.1c-.31,0-.67,0-.71-.43s.34-.58.72-.58h6.21c.31,0,.63,0,.61.48s-.29.52-.62.52h-3.11Z"/></svg>