<svg id="Capa_1" data-name="Capa 1" xmlns="http://www.w3.org/2000/svg" viewBox="0 0 486.36 343.89"><defs><style>.cls-1{fill:#fff;}</style></defs><title>Logos</title><path class="cls-1" d="M116,238.63a7.08,7.08,0,0,0-.75-.22,18.26,18.26,0,0,1-7.17-2.85,17.71,17.71,0,0,1-4.87-4.89,28.08,28.08,0,0,1-3.49-8,92.77,92.77,0,0,1-2.45-10.93q-.77-4.47-1.32-9c-.22-1.81-.13-3.66-.37-5.46a63.74,63.74,0,0,1-.17-7.69c0-1.41.14-2.82.23-4.23.05-.87.09-1.74.16-2.61.15-1.74.3-3.47.46-5.21a34.46,34.46,0,0,1,1.33-7c.42-1.32,1-2.61,1.5-3.89a27,27,0,0,1,3.86-6.25A44.47,44.47,0,0,1,108.1,155a56.22,56.22,0,0,1,9.2-6.68,54.68,54.68,0,0,1,7.84-3.93,34.39,34.39,0,0,1,4.11-1.07c.2-.05.41-.08.77-.15a2.07,2.07,0,0,1-.24.31,33.69,33.69,0,0,0-5.86,4.3,31.77,31.77,0,0,0-5.87,7.2,33,33,0,0,0-3.62,8.57,39.87,39.87,0,0,0-1.12,6,43.2,43.2,0,0,0,0,4.41,25,25,0,0,0,1,6.2,40.49,40.49,0,0,0,4.8,11.17,60.23,60.23,0,0,0,15.67,17,66.35,66.35,0,0,0,7,4.66,41.94,41.94,0,0,0,12.55,4.83,35,35,0,0,0,8.3.71c.79,0,1.58,0,2.53,0a5.72,5.72,0,0,1-1.27,1.05c-3.2,2-6.37,4.14-9.61,6.11-2.33,1.41-4.76,2.68-7.15,4a96.09,96.09,0,0,1-12.23,5.55,62.05,62.05,0,0,1-11.67,3.2l-1.15.19Z"/><path class="cls-1" d="M130.19,201.3c.29.13.59.25.86.4a32,32,0,0,0,8.15,3.17,32.63,32.63,0,0,0,11.46.67,34.38,34.38,0,0,0,16.71-6.76,34.09,34.09,0,0,0,4.11-3.86,42,42,0,0,0,5.12-7,53.13,53.13,0,0,0,4-8.27,58.06,58.06,0,0,0,2.66-9c.23-1.14.4-2.3.55-3.46.26-2,.57-4.05.71-6.08s.14-4.15.14-6.23a36.51,36.51,0,0,0-3.05-14.63,40.55,40.55,0,0,0-3.25-6.06,1.94,1.94,0,0,1-.34-.81c.54.23,1.08.44,1.61.69a144.69,144.69,0,0,1,14.91,8.06,105,105,0,0,1,13.13,9.36,75.36,75.36,0,0,1,5.6,5.27,33.53,33.53,0,0,1,4.68,6,21.18,21.18,0,0,1,3,7.66,26.83,26.83,0,0,1,.12,2.7,14.33,14.33,0,0,1-.65,5.08,20.07,20.07,0,0,1-4.07,7.32c-1.5,1.7-3.06,3.36-4.7,4.92-1.9,1.8-3.89,3.51-5.88,5.21a101.43,101.43,0,0,1-10.32,7.79c-2.26,1.48-4.59,2.86-6.94,4.19-2.53,1.41-5.1,2.76-7.7,4a53.36,53.36,0,0,1-11,4.25,22.61,22.61,0,0,1-4.86.61,37.88,37.88,0,0,1-10.07-1A57.05,57.05,0,0,1,137,207.32a49.94,49.94,0,0,1-4.15-3.07,36.21,36.21,0,0,1-2.76-2.78Z"/><path class="cls-1" d="M180.66,172.26c0-.32,0-.63,0-.95a33.52,33.52,0,0,0-2.16-10.94,31.94,31.94,0,0,0-4.7-8.4,38,38,0,0,0-6.24-6.25A30.84,30.84,0,0,0,155,139.83a35.87,35.87,0,0,0-7.36-1c-.92,0-1.85-.16-2.77-.11a65.82,65.82,0,0,0-8.05.75q-3.1.54-6.15,1.31a55.17,55.17,0,0,0-8.18,2.89c-2.06.87-4.08,1.82-6.09,2.82a41.89,41.89,0,0,0-7.62,4.93,38.53,38.53,0,0,0-6.3,6.4,46.3,46.3,0,0,0-4.23,6.72.7.7,0,0,1-.39.36c-.1-1.26-.24-2.52-.31-3.78-.1-2.15-.17-4.31-.22-6.46-.06-2.41-.12-4.81-.11-7.22,0-1.77.07-3.55.2-5.32.17-2.5.36-5,.66-7.49a82.11,82.11,0,0,1,1.6-8.92,40.37,40.37,0,0,1,3.64-10.06,19.63,19.63,0,0,1,7.11-7.75,17.89,17.89,0,0,1,7.76-2.6,22.47,22.47,0,0,1,7.07.56,86,86,0,0,1,10.36,3c3.74,1.38,7.46,2.83,11.13,4.38a84.35,84.35,0,0,1,11.32,6.07c2.42,1.48,4.81,3,7.17,4.6a56.22,56.22,0,0,1,6.65,5,27.22,27.22,0,0,1,4.84,5.85,34.72,34.72,0,0,1,3.8,8.59,46.24,46.24,0,0,1,1.57,7.35c.2,1.59.34,3.2.42,4.8.09,2,.18,3.94.11,5.9a37.26,37.26,0,0,1-.65,6.91c-.3,1.29-.72,2.56-1.09,3.85Z"/><path class="cls-1" d="M176.53,162.88c-.3-.38-.56-.71-.81-1a44.45,44.45,0,0,0-4.74-5.42,27.17,27.17,0,0,0-7.28-5.24,23.14,23.14,0,0,0-6-1.76,32.06,32.06,0,0,0-6.27-.45,11.75,11.75,0,0,0-2.73.43l1,.2a21.87,21.87,0,0,1,7.76,2.69,10,10,0,0,1,3.32,3.1c.28.43.48.91.81,1.55-1.09-.5-2-1-2.92-1.33a15.7,15.7,0,0,0-2.93-.73,16.93,16.93,0,0,0-3.1-.18,22.94,22.94,0,0,0-3,.4,10.61,10.61,0,0,0-3.13,1l2.83.53A19.75,19.75,0,0,1,155,158.5a12.81,12.81,0,0,1,5.38,5.11,8,8,0,0,1,1,3.17c.1,1.39,0,2.79,0,4.18a5.58,5.58,0,0,1-.21,1,20.3,20.3,0,0,0-1.26-4.74,7.14,7.14,0,0,0-3.49-3.95,12.72,12.72,0,0,0-3.2-.91,11,11,0,0,0-8.62,1.9,8.12,8.12,0,0,0-3.17,5.1,10.61,10.61,0,0,0,.71,6.39A8.25,8.25,0,0,0,146,179.8a14.3,14.3,0,0,0,5.45,1.64,43.75,43.75,0,0,0,4.57.26c6.24,0,12.49,0,18.73,0h1.08a3.19,3.19,0,0,1-.08.77,41.85,41.85,0,0,1-5.58,10.07,23.89,23.89,0,0,1-12.22,8.23,40.74,40.74,0,0,1-6.64,1.36,41.47,41.47,0,0,1-5.22.34,25,25,0,0,1-10.62-2.33,44.55,44.55,0,0,1-6-3.29,30.18,30.18,0,0,1-7.34-6.83,31.55,31.55,0,0,1-4.24-7.72,30.8,30.8,0,0,1-1.81-7,24.58,24.58,0,0,1-.17-5.56,34.16,34.16,0,0,1,.6-4.28A28.11,28.11,0,0,1,121,155.1a32.43,32.43,0,0,1,13.28-10.76,28.58,28.58,0,0,1,7.5-2.25c1.07-.17,2.17-.18,3.25-.3a23.75,23.75,0,0,1,6.19.36,34,34,0,0,1,5.87,1.45,35.38,35.38,0,0,1,7.17,3.39,27.44,27.44,0,0,1,6.63,5.81,34.25,34.25,0,0,1,5.41,9.13,5.78,5.78,0,0,1,.24.7A.86.86,0,0,1,176.53,162.88Z"/><path class="cls-1" d="M391,206.76l-.28,1.46c-1.8.22-3.67-.08-5.6,0,.82-.7.6-1.61.61-2.44,0-1.34,0-2.69,0-4,0-.91,0-.91-.91-1.09-.07,0-.12-.08-.2-.13a6.72,6.72,0,0,1,3.36,0l-1.11.23c-.15,2.27-.06,4.55-.06,6.91a12.79,12.79,0,0,0,3.5-.21c.08-.29.16-.6.25-.91s.17-.4.45-.37Z"/><path class="cls-1" d="M236,168.12q0-3.27,0-6.56c0-.89.13-1.06,1-1.12a16.82,16.82,0,0,1,2.13,0c.93.06,1.07.24,1.07,1.17,0,3.8,0,7.6,0,11.41a9.5,9.5,0,0,0,.26,2.19,3.47,3.47,0,0,0,3.13,2.82,7,7,0,0,0,2.19-.06,3.73,3.73,0,0,0,2.89-3.38,13.57,13.57,0,0,0,.07-1.56c0-3.78,0-7.55,0-11.33,0-1.06.11-1.21,1.14-1.26a16.3,16.3,0,0,1,2.21,0c.7.06.84.26.84.94,0,4.25,0,8.49,0,12.73a7.16,7.16,0,0,1-6.57,7.35,12.88,12.88,0,0,1-5.21-.24,6.72,6.72,0,0,1-5.12-6.29,7.67,7.67,0,0,1-.05-.82q0-3,0-6Z"/><path class="cls-1" d="M239.6,130.84a11.43,11.43,0,0,0,.55,3.59,4.66,4.66,0,0,0,4.46,3.37,6.74,6.74,0,0,0,3.78-.88c.38-.22.74-.47,1.13-.67s.77-.11.81.41a17,17,0,0,1,0,2.37c0,.53-.47.84-.9,1.1a8.92,8.92,0,0,1-3.56,1.18,11.46,11.46,0,0,1-4.8-.34,7.66,7.66,0,0,1-5.29-5.18,14.66,14.66,0,0,1,.13-10A8.56,8.56,0,0,1,244,120a9.74,9.74,0,0,1,5.09,1,2.11,2.11,0,0,1,1.3,2.16c0,.47,0,.94-.06,1.39-.13.78-.47.92-1.14.51-.3-.19-.58-.4-.89-.58a6.94,6.94,0,0,0-2.78-.93,4.77,4.77,0,0,0-5,2.71A10.09,10.09,0,0,0,239.6,130.84Z"/><path class="cls-1" d="M260.07,168.2l1-.93a5.88,5.88,0,0,1,4.34-1.59,4.54,4.54,0,0,1,4.25,3.17,6.73,6.73,0,0,1,.37,1.93c0,3.25,0,6.51,0,9.76,0,.61-.09.69-.71.77a2,2,0,0,1-.24,0c-1.57.1-1.69,0-1.69-1.55,0-2.51,0-5,0-7.55a7.66,7.66,0,0,0-.36-2.33,2.73,2.73,0,0,0-3.91-1.65,7.19,7.19,0,0,0-2.64,2.29,1.46,1.46,0,0,0-.17.85q0,4.35,0,8.7c0,1.11-.1,1.21-1.19,1.25-1.41,0-1.5,0-1.5-1.43V167.2c0-.22,0-.44,0-.66a.55.55,0,0,1,.54-.6,4.49,4.49,0,0,1,.73-.06c1,0,1.12.14,1.13,1.13Z"/><path class="cls-1" d="M271.76,128c.67-.57,1.17-1,1.72-1.44a5.42,5.42,0,0,1,4.52-.94,4.27,4.27,0,0,1,3.38,3.11,10.08,10.08,0,0,1,.39,2.67c.05,2.95,0,5.91,0,8.86,0,.72-.14.85-.86.92h-.41c-1.3,0-1.4-.09-1.4-1.36,0-2.63,0-5.26,0-7.88a7.07,7.07,0,0,0-.36-2.25A2.72,2.72,0,0,0,275,128a7.11,7.11,0,0,0-2.78,2.38,1.37,1.37,0,0,0-.14.77c0,2.88,0,5.75,0,8.62v.5c0,.61-.15.76-.75.85a1,1,0,0,1-.24,0c-1.55.09-1.69,0-1.69-1.56V127.14c0-.22,0-.44,0-.66,0-.56.12-.68.66-.73a8.83,8.83,0,0,1,1.15,0,.56.56,0,0,1,.58.64C271.75,126.88,271.76,127.37,271.76,128Z"/><path class="cls-1" d="M287.57,178.4c.67-2,1.29-3.79,1.9-5.6.68-2,1.35-4,2-6,.27-.79.39-.87,1.24-.93,1.67-.11,1.86.15,1.3,1.72q-2.28,6.33-4.55,12.66c-.35,1-.44,1-1.48,1.07-.44,0-.88,0-1.31,0a1.15,1.15,0,0,1-1.19-.91c-.7-2.05-1.45-4.07-2.18-6.11q-1.26-3.51-2.51-7c-.42-1.17-.27-1.38,1-1.39a5.42,5.42,0,0,1,.57,0,1.15,1.15,0,0,1,1.19.9c1.17,3.53,2.39,7,3.6,10.56C287.28,177.65,287.4,178,287.57,178.4Z"/><path class="cls-1" d="M328.6,165.67a6.87,6.87,0,0,1,3.15.66,1.72,1.72,0,0,1,.78,2.22.38.38,0,0,1-.53.23,5.33,5.33,0,0,1-.58-.31,5.59,5.59,0,0,0-3.49-.66,2,2,0,0,0-1.85,2.2,1.56,1.56,0,0,0,.69,1.24,11.5,11.5,0,0,0,1.71,1c.81.39,1.68.67,2.49,1.07a3.83,3.83,0,0,1,2.4,3.84,4.05,4.05,0,0,1-2.62,3.83,8,8,0,0,1-6.76-.24,1.92,1.92,0,0,1-.75-2.41c.12-.22.29-.33.54-.21s.58.3.87.46a5.75,5.75,0,0,0,3.94.77,3.88,3.88,0,0,0,1.29-.49,1.92,1.92,0,0,0,.24-3,8.74,8.74,0,0,0-1.83-1.06c-.86-.41-1.77-.73-2.62-1.16a3.83,3.83,0,0,1-2-2.38,4,4,0,0,1,1.93-4.77A5.79,5.79,0,0,1,328.6,165.67Z"/><path class="cls-1" d="M302.38,129.92V120c0-.22,0-.44,0-.66a.54.54,0,0,1,.54-.6,10.15,10.15,0,0,1,1.56,0,.59.59,0,0,1,.58.66c0,.19,0,.38,0,.57v19.94c0,.19,0,.38,0,.58,0,.37-.2.54-.52.62a2.63,2.63,0,0,1-.49.07c-1.54.09-1.67,0-1.67-1.57Z"/><path class="cls-1" d="M315.77,168.32c.63-.67,1.09-1.21,1.6-1.7a3.63,3.63,0,0,1,3.82-.72.8.8,0,0,1,.64.84,12.91,12.91,0,0,1,0,1.39c-.06.44-.26.53-.7.41a1,1,0,0,1-.23-.08,2.83,2.83,0,0,0-3.49,1,4.84,4.84,0,0,0-1.36,3.61c.14,2.4,0,4.82,0,7.22,0,.87-.11,1-1,1-1.61.11-1.71,0-1.71-1.62V167.08c0-1.07.14-1.21,1.23-1.2a4,4,0,0,1,.49,0c.57.09.67.21.68.81S315.77,167.67,315.77,168.32Z"/><path class="cls-1" d="M267.86,214.55h2.89c-.07.18-.09.35-.17.38a1.51,1.51,0,0,1-.48.06c-.57.09-.64.15-.71.71,0,.22-.05.43-.06.65q0,3.28,0,6.57a5.46,5.46,0,0,0,0,.58c.07.88.07.88.95,1,.23,0,.46,0,.34.43h-4c-.14-.31,0-.42.28-.42.7,0,.89-.15.89-.87,0-2.35,0-4.71,0-7.06,0,0,0,0-.16-.09-1.36,2.88-2.72,5.75-4.13,8.75a11.23,11.23,0,0,1-1.1-2.15c-.37-.7-.69-1.43-1-2.14l-1-2.07a14.61,14.61,0,0,0-1.17-2.1,2.11,2.11,0,0,0-.05.35c0,1.86,0,3.72,0,5.58,0,.25,0,.5,0,.74.09.9.09.9,1,1.06a1.93,1.93,0,0,1,.4.21l-.06.18h-3.44c-.11-.25,0-.35.23-.39,1-.16,1.05-.17,1.06-1.16.05-2.47.05-4.93,0-7.39,0-.79-.13-.87-.91-1l-.47-.09c.23-.41.23-.41,2.79-.34l4,8.24C265.37,220,266.62,217.27,267.86,214.55Z"/><path class="cls-1" d="M339.79,173.61v6.73c0,.84-.1.93-.93,1l-.25,0c-1.4,0-1.48,0-1.48-1.43V167.19c0-.22,0-.44,0-.66a.48.48,0,0,1,.48-.55c.54,0,1.08,0,1.63,0,.4,0,.55.28.55.67,0,.63,0,1.26,0,1.89Z"/><path class="cls-1" d="M274.94,173.56q0-3.31,0-6.65c0-.84.09-.92.92-1l.24,0c1.34-.06,1.51.11,1.51,1.44V180c0,.19,0,.39,0,.58,0,.58-.13.7-.72.77a7.36,7.36,0,0,1-1.15,0c-.71-.06-.8-.16-.8-.86,0-1.59,0-3.17,0-4.76Z"/><path class="cls-1" d="M333.76,206.27c0-2.3,0-4.59,0-6.89,0-.89-.06-.88-1-1.07a4,4,0,0,1-.45-.15.89.89,0,0,1,.06-.27c1.08,0,2.17-.07,3.25-.09.1,0,.2.13.4.28a4.27,4.27,0,0,1-.53.17c-.88.11-.95.17-1,1.07,0,.35,0,.71,0,1.06,0,2.55.07,5.09.1,7.64,0,.1,0,.2,0,.34a1.82,1.82,0,0,1-1.69-.66c-1.67-2.06-3.36-4.11-5.05-6.16l-1.56-1.92a1.77,1.77,0,0,0-.11.36c0,2,0,4.05,0,6.08a4,4,0,0,0,0,.49c.12.77-.12,1.11,1.05,1.21.13,0,.24.16.36.25l-.07.16H324.1c-.1-.4.14-.39.36-.42.83-.08.89-.11.93-.91.06-1.06.06-2.13.07-3.2,0-1.31,0-2.63,0-3.94s-.07-1.26-1.25-1.49c-.05,0-.09-.05-.24-.16.18-.1.31-.24.44-.25.63,0,1.26,0,1.89,0,.42,0,.58.26.77.51,1.15,1.43,2.28,2.87,3.43,4.3.81,1,1.63,2,2.45,3,.22.26.46.51.69.77Z"/><path class="cls-1" d="M244.64,198.38c.05-.11.08-.23.11-.23,1.14,0,2.28,0,3.51,0a1.48,1.48,0,0,1-.2.38c-.06.06-.21,0-.32,0-.64.11-.8.24-.82.91,0,1.06,0,2.13,0,3.2s0,1.91-.09,2.86a3,3,0,0,1-2.4,2.95,6.32,6.32,0,0,1-4.18-.24,2.31,2.31,0,0,1-1.55-1.95,14.52,14.52,0,0,1-.1-1.47c0-1.75,0-3.5,0-5.25,0-.86-.06-.9-.92-1-.22,0-.46,0-.39-.41h4.18c.1.24,0,.36-.22.4-1.17.2-1.18.2-1.19,1.36,0,1.7,0,3.39,0,5.09s.73,2.63,2.7,2.73a6.17,6.17,0,0,0,1.86-.24,2.06,2.06,0,0,0,1.53-2.09c0-.82.07-1.64.07-2.46,0-1.09,0-2.19,0-3.28,0-.94-.09-1-1-1.1a1.73,1.73,0,0,1-.31-.07S244.72,198.45,244.64,198.38Z"/><path class="cls-1" d="M320.1,219.41l.76.08a2.09,2.09,0,0,0,2.44-2,2,2,0,0,0-2-2.42,4,4,0,0,0-2.09.26c0,.24,0,.51,0,.77v7a4,4,0,0,0,0,.49c.06.72.15.82.89.89.41.05.41.05.53.43h-4.3c-.11-.26,0-.38.22-.42s.8,0,1-.24a2,2,0,0,0,.2-1.09q0-3.41,0-6.81a3.71,3.71,0,0,0,0-.58c-.06-.56-.19-.7-.75-.79a1.94,1.94,0,0,1-.49-.05c-.1,0-.15-.21-.29-.43h6.27a2.06,2.06,0,0,1,.32.07,2.39,2.39,0,0,1,1.54,3.94,3.79,3.79,0,0,1-3.68,1.48C320.37,220,320.1,219.89,320.1,219.41Z"/><path class="cls-1" d="M277.47,200.72a3.52,3.52,0,0,1,.51-.1c1,0,2,0,3,0a9.87,9.87,0,0,1,1.22.08,1.61,1.61,0,0,1,1.43,1.07,1.68,1.68,0,0,1-.39,1.83,12,12,0,0,1-1.59,1.1,33.3,33.3,0,0,0,3,3.81H283.1L280,204.33a11,11,0,0,0,1.21-.17,1.58,1.58,0,0,0,1.29-1.58,1.37,1.37,0,0,0-1.27-1.54,10.62,10.62,0,0,0-1.5.07,35.54,35.54,0,0,0,0,6.92c.17,0,.35.08.53.14s.27.1.47.17a8.67,8.67,0,0,1-3.29,0,1,1,0,0,1,.26-.18c.75-.19.77-.19.78-1,0-1.72,0-3.45,0-5.17,0-.87,0-.86-.89-1.13C277.53,200.91,277.52,200.84,277.47,200.72Z"/><path class="cls-1" d="M284.54,221.08a31.07,31.07,0,0,0,3,3.69c-1,.35-1.38.23-1.93-.49l-2.44-3.2a2.54,2.54,0,0,1-.2-.33c.43-.06.8-.09,1.16-.17a1.55,1.55,0,0,0,1.29-1.31,1.43,1.43,0,0,0-1.52-1.84,10.68,10.68,0,0,0-1.29.12,62.82,62.82,0,0,0,0,6.86l1.13.31a9.26,9.26,0,0,1-3.37.06c.19-.1.31-.21.43-.21a.58.58,0,0,0,.65-.66c0-2,0-3.94,0-5.91a1.78,1.78,0,0,0-.12-.48l-.89-.25v-.15a2.35,2.35,0,0,1,.35-.11c1.09,0,2.19,0,3.28,0a8.77,8.77,0,0,1,1.14.1,1.69,1.69,0,0,1,1,2.93A8.92,8.92,0,0,1,284.54,221.08Z"/><path class="cls-1" d="M366.27,200.38c.61,0,1.22,0,1.82,0,.19,0,.38.29.53.48,1.27,1.57,2.53,3.16,3.8,4.73.34.42.69.82,1,1.22l.17-.06V206c0-1.4,0-2.79,0-4.19,0-.81,0-.81-.81-1a.62.62,0,0,1-.22-.1s-.05-.09-.12-.25c.94-.1,1.83,0,2.71-.06l.05.23-1,.33c-.18,2.46-.08,4.94,0,7.42a1.35,1.35,0,0,1-1.45-.61c-1.41-1.74-2.83-3.47-4.25-5.21l-.61-.72c0,.3-.07.48-.08.65,0,1.34,0,2.68,0,4,0,.25,0,.49,0,.74,0,.4.17.68.63.7a1.47,1.47,0,0,1,.38.15,5.09,5.09,0,0,1-2.64.07c.05-.06.08-.16.14-.17.82-.17.87-.17.88-.94,0-1.81,0-3.61,0-5.42,0-.63-.09-.67-.75-.87a1.78,1.78,0,0,1-.3-.17Z"/><path class="cls-1" d="M248.89,208.36s0-.12.08-.13c.89-.28.9-.28.91-1.22,0-1.64,0-3.29,0-4.93,0-.87,0-.87-.9-1.15,0,0,0-.09-.09-.2a4.11,4.11,0,0,1,1.81,0c.26,0,.48.41.69.66,1.38,1.69,2.74,3.4,4.12,5.1.17.21.36.4.61.67a2.67,2.67,0,0,0,.1-.47c0-1.51,0-3,0-4.52,0-1,0-1.08-.95-1.17,0,0-.06-.08-.08-.12a4.48,4.48,0,0,1,2.57,0s0,.12-.07.13c-.89.24-.9.24-.89,1.19,0,2,0,4,0,6.08,0,.13,0,.26,0,.38a1.35,1.35,0,0,1-1.37-.6c-1.41-1.74-2.84-3.47-4.26-5.21l-.53-.63a21.18,21.18,0,0,0,0,5.84l.93.31A4.68,4.68,0,0,1,248.89,208.36Z"/><path class="cls-1" d="M299.63,224.74l1-.32a5.3,5.3,0,0,0,.1-.74c0-1.78,0-3.56,0-5.34,0-.76-.06-.76-.8-.93a.59.59,0,0,1-.2-.12s0,0-.06-.17.1-.08.17-.08h5.89a7.55,7.55,0,0,1-.27,1.72h-.22l-.17-1a7.11,7.11,0,0,0-3.1-.17v2.92a7,7,0,0,0,2.42,0l.22-1c.49.25.24.61.27.89a6.76,6.76,0,0,1,0,.9c0,.29.13.62-.12.85l-.18-.06c-.27-1-.26-1-1.29-1-.43,0-.86,0-1.35,0v3.18a8.89,8.89,0,0,0,3,0c.4,0,.37-.42.48-.68s0-.58.48-.6c-.05.61-.1,1.2-.16,1.87-1.9.19-3.78-.12-5.66,0C300,224.94,299.86,224.85,299.63,224.74Z"/><path class="cls-1" d="M276.51,200.69l-.25,1.68c-.31-.31-.31-.31-.44-1a7.94,7.94,0,0,0-3.09-.18v3a7,7,0,0,0,2.42,0l.25-.9a4.06,4.06,0,0,1,.07,2.73c-.1-.34-.16-.52-.21-.7s-.18-.46-.48-.46h-2.06v3.13a9.42,9.42,0,0,0,2.95,0c.3,0,.4-.25.46-.5a3.4,3.4,0,0,1,.31-.8c.39.6,0,1.18.1,1.75a28,28,0,0,1-5.93,0s0-.14.05-.15c.82-.05.9-.62.89-1.27,0-1.47.06-2.95,0-4.43s.24-1.22-1.08-1.7a.19.19,0,0,0,0-.08s0-.06,0-.06l5.23-.09C276,200.61,276.22,200.66,276.51,200.69Z"/><path class="cls-1" d="M284.93,208.21c.05-.63.09-1.16.14-1.72.39.07.32.33.33.52a.91.91,0,0,0,.63.87,3.29,3.29,0,0,0,2.41.07,1.55,1.55,0,0,0,1.08-1.57,1.18,1.18,0,0,0-1-1.25c-.4-.09-.81-.13-1.22-.18-.22,0-.44,0-.65-.06-1.15-.19-1.67-.62-1.8-1.49a2.34,2.34,0,0,1,1.15-2.51,3.5,3.5,0,0,1,2.15-.37c.59.07,1.17.22,1.78.35a3,3,0,0,1-.31,1.75,2.16,2.16,0,0,1-.17-.53c0-.54-.28-.78-.74-.93a2.73,2.73,0,0,0-2.08.06,1.47,1.47,0,0,0-.81,1.57A1.21,1.21,0,0,0,287,203.9c.59.11,1.19.15,1.79.23a1.85,1.85,0,0,1,1.44,3,2.84,2.84,0,0,1-1.63,1.31A5.32,5.32,0,0,1,284.93,208.21Z"/><path class="cls-1" d="M352.89,207.31c0,.31-.16.48-.46.61A5.58,5.58,0,0,1,348,208a4,4,0,0,1,.39-7.48,7.4,7.4,0,0,1,4.55.23c-.25.54,0,1.14-.49,1.69-.08-.17-.17-.26-.16-.34.1-.66-.31-.92-.84-1.1a4,4,0,0,0-2.65,0,2.64,2.64,0,0,0-1.66,1.49c-1.1,2.59.5,5.56,3.56,5.32A16.66,16.66,0,0,0,352.89,207.31Z"/><path class="cls-1" d="M262.05,200.84a6.71,6.71,0,0,1,3.15,0l-1.05.27a4.92,4.92,0,0,0,.57,1.9c.22.68.51,1.33.77,2l.78,1.93a19.9,19.9,0,0,0,2.12-5.82l-.88-.23,0-.19a9.22,9.22,0,0,1,2.4.06c-.75.27-.86.95-1.1,1.53-.8,1.94-1.58,3.9-2.35,5.86-.1.23-.14.47-.47.47s-.37-.28-.46-.5q-1.24-3.12-2.48-6.25C262.88,201.37,262.72,200.88,262.05,200.84Z"/><path class="cls-1" d="M341.3,217.05h6.49c-.05.62-.11,1.18-.16,1.83-.55-.34-.21-.91-.63-1.27h-1.93c-.1,2.27-.08,4.53,0,6.8l1.07.27v.17a4.52,4.52,0,0,1-1.6,0,7.58,7.58,0,0,1-1.65,0l0-.2,1-.27a64.19,64.19,0,0,0,0-6.8h-2.1l-.32,1.33A2.93,2.93,0,0,1,341.3,217.05Z"/><path class="cls-1" d="M331.85,222.93l-.19,1.92c-1.87.31-3.76-.13-5.59.15a1.06,1.06,0,0,1-.07-.22,1.78,1.78,0,0,0,.58-1.61c0-1.53,0-3.06,0-4.59,0-.35-.06-.7-.09-1.07l-1.11-.25a6.84,6.84,0,0,1,3.48,0l-1.13.21c-.19,2.25,0,4.53-.08,6.86a12.57,12.57,0,0,0,3.49-.16l.43-1.33Z"/><path class="cls-1" d="M306.92,224.84a1.5,1.5,0,0,0,.76-1.57c0-1.58,0-3.17,0-4.75,0-.35-.07-.69-.1-1l-1-.19c.51-.42,1.08-.23,1.61-.24a6.43,6.43,0,0,1,1.64,0l0,.21-1,.18a3.61,3.61,0,0,0-.12.67c0,2,0,3.94,0,5.9a1.17,1.17,0,0,0,.08.29,13.6,13.6,0,0,0,3,0c.36,0,.48-.27.57-.59s0-.65.48-.87c.15.73-.16,1.34-.1,1.95A31.59,31.59,0,0,1,306.92,224.84Z"/><path class="cls-1" d="M258.45,200.9a6.07,6.07,0,0,1,3.08-.11c0,.07-.1.16-.15.17-.82.15-.83.15-.84.94v4.92c0,1.13,0,1.13,1,1.5-.24.19-.24.19-1.47.19h-1.59l0-.18a1.82,1.82,0,0,1,.44-.17.59.59,0,0,0,.55-.67v-5.9c0-.4-.16-.61-.58-.61A1.72,1.72,0,0,1,258.45,200.9Z"/><path class="cls-1" d="M353.56,208.15c.05-.09.06-.13.07-.13.91-.28.92-.28.93-1.27q0-2.5,0-5c0-.83,0-.83-.86-1.05-.05,0-.08-.07-.12-.11a6.61,6.61,0,0,1,3.15,0,1.24,1.24,0,0,1-.27.18c-.75.16-.77.15-.77.86q0,2.67,0,5.34c0,.84,0,.84.87,1,0,0,.06.08.09.12A7.42,7.42,0,0,1,353.56,208.15Z"/><path class="cls-1" d="M290.89,200.86a8.4,8.4,0,0,1,3.27-.14c-.24.25-.24.25-.79.33a26.27,26.27,0,0,0,0,7l1,.28a8.77,8.77,0,0,1-3.4,0l1-.36a5.48,5.48,0,0,0,.12-.84c0-1.75,0-3.5,0-5.24,0-.78,0-.78-.86-1Z"/><path class="cls-1" d="M338.64,159.94c.41,0,1,0,1.26.61a2.27,2.27,0,0,1-.09,2.12,1,1,0,0,1-.53.35,2.32,2.32,0,0,1-.65.1c-1.42.09-1.9-.38-1.83-1.8C336.86,160.29,337.3,159.93,338.64,159.94Z"/><path class="cls-1" d="M276.24,159.93a5.44,5.44,0,0,1,.57,0c.65.11.93.35,1,1s.22,1.43-.4,1.89a2.48,2.48,0,0,1-2.13.17.61.61,0,0,1-.28-.16,2.18,2.18,0,0,1-.31-2.09c.11-.57.6-.73,1.11-.8a2.8,2.8,0,0,1,.41,0Z"/><path class="cls-1" d="M291.13,190.46a1,1,0,0,1,1-1,1,1,0,0,1,.95.94,1,1,0,1,1-1.95,0Z"/><path class="cls-1" d="M265.15,190.5a1,1,0,0,1,1-1,1,1,0,0,1,1,1,1,1,0,0,1-.92,1A1,1,0,0,1,265.15,190.5Z"/><path class="cls-1" d="M252.16,190.5a.94.94,0,0,1,1-1,1,1,0,0,1,1,1,1.06,1.06,0,0,1-.94,1A1,1,0,0,1,252.16,190.5Z"/><path class="cls-1" d="M239.17,190.46a.94.94,0,0,1,1-1,1,1,0,0,1,1,.92,1.05,1.05,0,0,1-1,1A1,1,0,0,1,239.17,190.46Z"/><path class="cls-1" d="M388.57,190.5a1,1,0,0,1,1-1,.94.94,0,0,1,1,.89,1,1,0,0,1-.91,1.06A1,1,0,0,1,388.57,190.5Z"/><path class="cls-1" d="M363.57,189.5a1,1,0,0,1,1,1,1,1,0,0,1-1,1,1,1,0,0,1-1-1A.94.94,0,0,1,363.57,189.5Z"/><path class="cls-1" d="M349.6,190.46a.93.93,0,0,1,1-1,1,1,0,0,1,1,.93,1,1,0,0,1-1,1A1,1,0,0,1,349.6,190.46Z"/><path class="cls-1" d="M336.61,190.46a.93.93,0,0,1,1-1,1,1,0,0,1,1,.93,1,1,0,0,1-1,1A1,1,0,0,1,336.61,190.46Z"/><path class="cls-1" d="M332,190.48a1,1,0,0,1-1,1,1.05,1.05,0,0,1-1-1,1,1,0,0,1,1-.91A.93.93,0,0,1,332,190.48Z"/><path class="cls-1" d="M319.05,190.43a1,1,0,0,1-.95,1,1,1,0,0,1-1-1,1,1,0,0,1,.93-1A.94.94,0,0,1,319.05,190.43Z"/><path class="cls-1" d="M377.53,190.55a1,1,0,1,1-1.95-.21,1,1,0,0,1,1-.84A1,1,0,0,1,377.53,190.55Z"/><path class="cls-1" d="M305.11,189.5a.94.94,0,0,1,.95,1,1,1,0,0,1-.94.95,1,1,0,0,1-1-1A1,1,0,0,1,305.11,189.5Z"/><path class="cls-1" d="M279.09,189.5a1,1,0,0,1,1,1,1,1,0,0,1-1.95,0A1,1,0,0,1,279.09,189.5Z"/><path class="cls-1" d="M323.62,190.48a.94.94,0,0,1,1-1,1,1,0,0,1,1,1,1,1,0,0,1-.95,1A1,1,0,0,1,323.62,190.48Z"/><path class="cls-1" d="M344,189.5a.92.92,0,0,1,1,.95,1,1,0,0,1-1,1,1,1,0,0,1-1-.93A1,1,0,0,1,344,189.5Z"/><path class="cls-1" d="M260.59,190.48a1,1,0,0,1-1,1,1,1,0,0,1-.94-1,1,1,0,0,1,1-.91A.94.94,0,0,1,260.59,190.48Z"/><path class="cls-1" d="M246.61,189.5a.93.93,0,0,1,1,1,1,1,0,0,1-.9,1,1.05,1.05,0,0,1-1.05-.95A1,1,0,0,1,246.61,189.5Z"/><path class="cls-1" d="M370.07,189.5a.94.94,0,0,1,.95,1,1,1,0,0,1-1.94,0A1,1,0,0,1,370.07,189.5Z"/><path class="cls-1" d="M272.6,189.5a.94.94,0,0,1,1,1,1,1,0,0,1-.91,1,1,1,0,0,1-1-.95A1,1,0,0,1,272.6,189.5Z"/><path class="cls-1" d="M358,190.47a1,1,0,0,1-1,1,1,1,0,0,1-1-1,1,1,0,0,1,1-.92A.93.93,0,0,1,358,190.47Z"/><path class="cls-1" d="M382.08,190.46a.94.94,0,0,1,1-1,.92.92,0,0,1,.93.93,1,1,0,0,1-.95,1A1,1,0,0,1,382.08,190.46Z"/><path class="cls-1" d="M312.57,190.46a1,1,0,0,1-1,1,1,1,0,0,1-.95-1,.93.93,0,0,1,.94-.93A1,1,0,0,1,312.57,190.46Z"/><path class="cls-1" d="M284.64,190.44a1,1,0,0,1,1.93,0,1,1,0,0,1-1,1A1,1,0,0,1,284.64,190.44Z"/><path class="cls-1" d="M299.57,190.48a1,1,0,1,1-1.93-.07.93.93,0,0,1,1-.91A.94.94,0,0,1,299.57,190.48Z"/><path class="cls-1" d="M388.35,158.94c-.82.06-.94.17-.94,1v7c0,.23,0,.46-.06.79l-.84-.69a5.54,5.54,0,0,0-2.14-1.17,5.65,5.65,0,0,0-6.68,3.17,11.42,11.42,0,0,0-.92,5.12,10.12,10.12,0,0,0,1,4.46,5.08,5.08,0,0,0,4.09,2.91,6,6,0,0,0,4.91-1.6c.29-.25.56-.51,1-.9,0,.67,0,1.14,0,1.6s.16.67.6.7a4,4,0,0,0,.49,0c1.15,0,1.26-.07,1.26-1.23V160.56C390.07,159,389.94,158.84,388.35,158.94Zm-1,17.05a1.22,1.22,0,0,1-.25.74,20.24,20.24,0,0,1-2,1.86,3.4,3.4,0,0,1-1.33.58,3,3,0,0,1-3.51-1.59,7.08,7.08,0,0,1-.73-2.67,10.08,10.08,0,0,1,.23-3.83,6,6,0,0,1,.55-1.36,3.2,3.2,0,0,1,4.57-1.27,8.15,8.15,0,0,1,2.24,2,1.29,1.29,0,0,1,.19.68c0,.82,0,1.64,0,2.46S387.43,175.2,387.4,176Z"/><path class="cls-1" d="M355.36,158.94c-.87.05-1,.16-1,1q0,3.41,0,6.82v.93l-.8-.65a5.61,5.61,0,0,0-8.9,1.9,11.51,11.51,0,0,0-.91,5.37,10.1,10.1,0,0,0,.93,4.22,5,5,0,0,0,3.35,2.79,5.61,5.61,0,0,0,4.72-.77c.62-.43,1.2-.94,1.93-1.51,0,.6,0,1.09,0,1.57a.56.56,0,0,0,.57.65,5.46,5.46,0,0,0,.58,0c1.1,0,1.2-.07,1.2-1.2V160.51C357.05,159,356.93,158.85,355.36,158.94Zm-1.3,17.91a17.61,17.61,0,0,1-1.8,1.66,4.24,4.24,0,0,1-1.71.71,2.73,2.73,0,0,1-2.93-1.21,5.19,5.19,0,0,1-.75-1.62,10.36,10.36,0,0,1,0-5.36,5.81,5.81,0,0,1,.65-1.49,3.13,3.13,0,0,1,4.14-1.25,7.3,7.3,0,0,1,2.59,2.22,1.31,1.31,0,0,1,.16.69c0,.4,0,.8,0,1.19s0,.8,0,1.19v1.19c0,.4,0,.8,0,1.19A1.11,1.11,0,0,1,354.06,176.85Z"/><path class="cls-1" d="M307.58,174.16h.58c.86,0,1.2-.36,1.19-1.22a14.18,14.18,0,0,0-.2-2.44,5.45,5.45,0,0,0-4-4.54,8.25,8.25,0,0,0-2.27-.27,6.3,6.3,0,0,0-6.33,4.64,11.42,11.42,0,0,0,0,6.87,5.61,5.61,0,0,0,3.94,4,11.57,11.57,0,0,0,7.48-.51,1.11,1.11,0,0,0,.75-1.14c0-1.22-.16-1.39-1.29-.93a10,10,0,0,1-4.73.74,3.83,3.83,0,0,1-3-1.61,6,6,0,0,1-.86-3.55h8.74Zm-6.91-5.74a4,4,0,0,1,4.29-.15,3.87,3.87,0,0,1,1.67,3.89h-7.78A4.46,4.46,0,0,1,300.67,168.42Z"/><path class="cls-1" d="M264.51,130.9c0-.32,0-.65,0-1a4.34,4.34,0,0,0-4-4.31c-.43-.06-.87-.1-1.3-.12a9.89,9.89,0,0,0-5,1.14,1.52,1.52,0,0,0-.85,1.92c.13.54.39.68.89.46s.73-.37,1.1-.56a7.17,7.17,0,0,1,3.89-.74,2.48,2.48,0,0,1,2.49,2.18,22.54,22.54,0,0,1,.17,2.29c-.53,0-.88,0-1.24,0-.95,0-1.91.06-2.86.16a7.19,7.19,0,0,0-3.18,1,4.09,4.09,0,0,0-2,4.36,3.84,3.84,0,0,0,2.78,3.33,6.12,6.12,0,0,0,6-1.06l.61-.49c.06.06.09.07.09.09,0,.27,0,.54,0,.82,0,.56.16.71.72.78a3.62,3.62,0,0,0,.57,0c.88,0,1-.13,1-1ZM261.87,137a.6.6,0,0,1-.11.3c-1.14,1.26-2.41,2.23-4.26,2a2.25,2.25,0,0,1-2.07-1.8,2.39,2.39,0,0,1,1.16-2.73,5.45,5.45,0,0,1,2.2-.58c.3,0,.6,0,.9,0h2.18Z"/><path class="cls-1" d="M297.53,130.77c0-.25,0-.49,0-.74a4.35,4.35,0,0,0-3.87-4.4,10.3,10.3,0,0,0-1.47-.14,10.13,10.13,0,0,0-5.05,1.21,1.57,1.57,0,0,0-.68,2c.1.42.35.53.75.37s.59-.29.88-.44a7.23,7.23,0,0,1,4.27-.89,2.46,2.46,0,0,1,2.28,1.6,6.09,6.09,0,0,1,.22,2.86c-.43,0-.81,0-1.19,0-1,0-1.92.06-2.87.16a7.28,7.28,0,0,0-3.1,1,4.1,4.1,0,0,0-2,4.35,3.83,3.83,0,0,0,2.83,3.37,6,6,0,0,0,5.62-.82c.33-.23.64-.49,1.09-.84v.73c0,.95.13,1.06,1.1,1.07h.24c.82,0,.95-.16.95-1Zm-2.64,6.08a.66.66,0,0,1-.14.44c-1.14,1.26-2.42,2.22-4.27,2a2.23,2.23,0,0,1-2-1.83,2.36,2.36,0,0,1,1.12-2.66,4.63,4.63,0,0,1,2.2-.6c1-.05,2,0,3.13,0C294.9,135.11,294.91,136,294.89,136.85Z"/><path class="cls-1" d="M372.85,171.18a12,12,0,0,0-.09-1.47,4.07,4.07,0,0,0-3.26-3.77,9.63,9.63,0,0,0-6.92.87,1.45,1.45,0,0,0-.87,1.83c.12.65.37.79,1,.51s1.07-.55,1.62-.78a6.28,6.28,0,0,1,3.78-.41,2.36,2.36,0,0,1,1.73,1.25,6.49,6.49,0,0,1,.37,3.21c-1.17,0-2.24,0-3.3,0a8.21,8.21,0,0,0-3.84,1,4.06,4.06,0,0,0-2.05,4.25,3.9,3.9,0,0,0,3,3.54,6.13,6.13,0,0,0,5.81-1.07l.76-.63c0,.39,0,.63.05.87,0,.76.11.85.84.91h.41c.92,0,1-.13,1-1.05Q372.87,175.75,372.85,171.18Zm-2.66,5.9a.7.7,0,0,1-.16.44,5.22,5.22,0,0,1-3.06,1.9,4.27,4.27,0,0,1-1.38,0,2.18,2.18,0,0,1-1.86-1.91,2.35,2.35,0,0,1,1.27-2.6,3.73,3.73,0,0,1,.84-.32,15.42,15.42,0,0,1,4.36-.22C370.2,175.29,370.21,176.18,370.19,177.08Z"/><path class="cls-1" d="M317.11,200.65c-1.44-.11-2.9,0-4.34,0-.1,0-.2.11-.48.29,1.24,0,1.2.74,1.19,1.48q0,2.29,0,4.59a1.53,1.53,0,0,1-.52,1.45c1.48-.06,2.91.29,4.34,0a4.2,4.2,0,0,0,2.63-1.81A3.67,3.67,0,0,0,317.11,200.65Zm1.7,6.07c-.78,1.16-2.28,1.59-4.16,1.14v-6.55a3.82,3.82,0,0,1,4.17,1A4.43,4.43,0,0,1,318.81,206.72Z"/><path class="cls-1" d="M295.57,217.07c-1.52-.07-3.05,0-4.58,0-.08,0-.16.1-.23.15s.07.17.1.18c.88.3.9.3.91,1.23,0,1.59,0,3.17,0,4.76,0,.54,0,1.1-.59,1.41l.09.21h2.92a5.62,5.62,0,0,0,.58,0,4.18,4.18,0,0,0,3.93-3.05C299.48,218.9,297.76,217.16,295.57,217.07Zm1.56,6c-.75,1.2-2.17,1.62-4.19,1.22v-6.65c1.57-.2,3.07-.35,4.16,1.05A4.31,4.31,0,0,1,297.13,223.07Z"/><path class="cls-1" d="M302.93,204a3.32,3.32,0,0,0-3-3.26,8.35,8.35,0,0,0-1.22-.09c-1.15,0-2.3,0-3.45,0a4.85,4.85,0,0,0-.49.11v.15l.92.32a7.81,7.81,0,0,1,.1,1c0,1.48,0,3,0,4.43a2.18,2.18,0,0,1-.56,1.89,25.23,25.23,0,0,0,4.18-.08A4.1,4.1,0,0,0,302.93,204Zm-1.81,2.77c-.78,1.16-2.29,1.59-4.17,1.13-.11-2.2-.08-4.38,0-6.52,1.77-.52,3.45-.12,4.22.94A4.45,4.45,0,0,1,301.12,206.72Z"/><path class="cls-1" d="M365.72,203.67a3.37,3.37,0,0,0-2.36-3.12,6.6,6.6,0,0,0-2.34-.23,3.81,3.81,0,0,0-3.71,4.3,3.71,3.71,0,0,0,4,3.78A4.28,4.28,0,0,0,365.72,203.67Zm-1.62,2.79a2.86,2.86,0,0,1-4.8.32,4.59,4.59,0,0,1-.87-2.78,9.12,9.12,0,0,1,.12-1.05,2.6,2.6,0,0,1,2.2-2.13A2.94,2.94,0,0,1,364,202.2,4.47,4.47,0,0,1,364.1,206.46Z"/><path class="cls-1" d="M310.65,206.63c-.78-1.81-1.55-3.62-2.34-5.42-.11-.26-.27-.49-.51-.92l-.43.9c-.87,2-1.75,3.95-2.61,5.93-.24.53-.49,1-1.12,1.16a.58.58,0,0,0,0,.15,5.83,5.83,0,0,0,2.63-.12l-.95-.33a3.65,3.65,0,0,1,.7-2h3.19a7.89,7.89,0,0,1,.66,2c-.28.22-.71,0-.86.44a7.6,7.6,0,0,0,3.05-.11C311.09,208.1,310.94,207.31,310.65,206.63Zm-4.45-1.3c.44-1,.85-2,1.27-3h.19c.41,1,.81,2,1.26,3Z"/><path class="cls-1" d="M383,206.88l-2.49-5.8a4,4,0,0,0-.28-.59c-.16-.23-.36-.22-.51,0a3.62,3.62,0,0,0-.2.45L377,206.74c-.26.57-.44,1.22-1.32,1.31a3.88,3.88,0,0,0,2.66,0l-1-.31.81-2.05h3.2a9.76,9.76,0,0,1,.76,2.1,2.47,2.47,0,0,0-.85.41,6.16,6.16,0,0,0,3-.15C383.4,208,383.2,207.41,383,206.88Zm-4.64-1.78,1.27-3h.17c.41,1,.83,2,1.27,3Z"/><path class="cls-1" d="M355.19,222.83c-.76-1.75-1.51-3.51-2.27-5.27-.11-.23-.12-.55-.61-.62-.11.25-.23.49-.34.74q-1.37,3.07-2.72,6.15c-.17.38-.35.74-.86.75-.07,0-.13.16-.23.28a5.84,5.84,0,0,0,2.71-.17l-1-.3a5.43,5.43,0,0,1,.73-2.08h3.17a10.14,10.14,0,0,1,.75,2.07c-.34.25-.76,0-1,.39a8.18,8.18,0,0,0,3,0C355.74,224.11,355.74,224.11,355.19,222.83Zm-4.32-1.07c.38-1.09.83-2.08,1.33-3.25.49,1.16.9,2.15,1.36,3.25Z"/><path class="cls-1" d="M343.81,207,341.25,201c-.11-.25-.26-.5-.38-.75l-.27,0c-.11.24-.23.48-.33.72-.9,2-1.81,4-2.69,6.08a1.27,1.27,0,0,1-1,.91s0,.09,0,.14a4.27,4.27,0,0,0,2.54-.12l-1-.33c.25-.64.46-1.23.72-1.79a.57.57,0,0,1,.44-.27c.93,0,1.85,0,2.75,0a5.14,5.14,0,0,1,.79,2.18l-1,.26a4.88,4.88,0,0,0,3.16-.13C344.16,208,344,207.46,343.81,207Zm-4.68-1.89,1.35-3.23,1.35,3.23Z"/><path class="cls-1" d="M276.79,224.86h3c0-.12,0-.21,0-.22-.63-.12-.84-.61-1.06-1.12-.83-2-1.68-3.93-2.52-5.89-.1-.24-.23-.47-.34-.7h-.27c-.11.23-.23.45-.34.68-.87,2-1.75,4-2.62,5.93-.23.54-.47,1-1.12,1.15,0,0,0,.09,0,.14a5,5,0,0,0,2.59-.14l-1.06-.36c.24-.62.44-1.18.7-1.71a.64.64,0,0,1,.49-.32c.92,0,1.85,0,2.81,0a9.84,9.84,0,0,1,.75,2.1C277.4,224.64,277,224.36,276.79,224.86ZM274,221.75c.45-1.07.86-2.06,1.27-3.05l.17,0,1.27,3.07Z"/><path class="cls-1" d="M339.54,223.31c-.8-1.89-1.61-3.77-2.43-5.66-.11-.25-.26-.49-.39-.74h-.21c-.12.23-.25.44-.35.68-.9,2-1.79,4-2.68,6.07-.22.49-.45.94-1.06,1,0,0,0,.09,0,.14a5.48,5.48,0,0,0,2.63-.1l-1.09-.38.8-2h3.2a11.09,11.09,0,0,1,.78,2.08l-.94.3,0,.17h2.91l.08-.19C340,224.53,339.8,223.9,339.54,223.31ZM335,221.74c.45-1.08.88-2.09,1.36-3.25.49,1.17.9,2.17,1.36,3.25Z"/><path class="cls-1" d="M244.55,216.46l-1,.28c-.27.08-.61,0-.86.33l.84.22c-.11.71-.23,1.39-.34,2.07-1.33-.12-2,0-2.69.83a5.07,5.07,0,0,0-1.1,4.14c.07.52.44.69.91.39a11.93,11.93,0,0,0,1.52-1.24,9.39,9.39,0,0,0,.65-.74c0,.77-.46,1.42,0,2.14a3,3,0,0,0,1.71-1.27l-1.09.51C243.41,221.45,244.11,219,244.55,216.46Zm-4.37,7.5a6.29,6.29,0,0,1,.82-3.68,1.08,1.08,0,0,1,.65-.41,1.6,1.6,0,0,1,1.31.22C242.89,222.06,241.55,224,240.18,224Z"/><path class="cls-1" d="M247.86,219.3a3.25,3.25,0,0,0-2.29,1.58,5.08,5.08,0,0,0-.63,2.6,1.28,1.28,0,0,0,1.68,1.35,4,4,0,0,0,1.92-1.12l-.11-.16-.33.17a8,8,0,0,1-1.11.52.83.83,0,0,1-1.17-.76,6.82,6.82,0,0,1,.06-1.11c.43-.13.77-.22,1.1-.34a7.77,7.77,0,0,0,1-.41,1.76,1.76,0,0,0,1-1.06C249.16,219.77,248.67,219.13,247.86,219.3Zm-.25,2a12.68,12.68,0,0,1-1.42.73l-.21-.19a14.41,14.41,0,0,1,.53-1.43,1.19,1.19,0,0,1,1.14-.66.59.59,0,0,1,.41.33A1,1,0,0,1,247.61,221.33Z"/></svg>