<svg id="Capa_1" data-name="Capa 1" xmlns="http://www.w3.org/2000/svg" viewBox="0 0 486.36 343.89"><defs><style>.cls-1{fill:#fff;}</style></defs><title>Logos</title><path class="cls-1" d="M333.86,248.33c-1.12-.82-2.37-1.47-3.07-2.78-1.26-2.35-.75-4.77,1.6-6.88a113.56,113.56,0,0,1,15.56-12c.26-.17.5-.36.91-.66a118.25,118.25,0,0,1-16.41-12.61c-1.74-1.54-2.78-3.34-2.1-5.79,1-3.42,4.72-5.13,7.57-3.06,3.8,2.74,7.28,5.92,11,8.78,5.21,4,10.83,7.1,17.67,7.27a23.93,23.93,0,0,0,12.35-3.09c5.64-3.08,10.32-7.41,15.2-11.49,1.5-1.25,3-2.51,5.1-2.33a5.05,5.05,0,0,1,4.62,3.53,5.12,5.12,0,0,1-1.63,5.75,116.68,116.68,0,0,1-15.28,12c-.48.31-.95.64-1.6,1.07a123,123,0,0,1,15.87,12c4.31,3.73,4,7.36-.95,10.2h-2.7a20.8,20.8,0,0,1-4.18-3A100.67,100.67,0,0,0,381,235.82c-5.36-3.37-11.12-5.13-17.55-4.15a27.66,27.66,0,0,0-10.76,4.42c-5.61,3.61-10.3,8.42-15.75,12.24Z"/><path class="cls-1" d="M225,248.33c-2.87-1.51-3.84-3.85-3.8-7.09.15-10.61.05-21.23.06-31.84a5.43,5.43,0,0,1,3.36-5.34,5.37,5.37,0,0,1,6.11,1.59,5.24,5.24,0,0,1,1.2,3.57c0,3.28.06,6.56,0,9.84,0,1.26.37,1.62,1.63,1.62q23.73-.06,47.46,0c1.29,0,1.63-.42,1.6-1.65-.07-3.15-.05-6.31,0-9.46,0-3.43,2.24-5.85,5.31-5.89s5.4,2.4,5.4,6c0,10.55-.08,21.09.06,31.64,0,3.24-1,5.58-3.87,7.05h-3.09c-2.89-1.48-4-3.84-3.85-7.07.16-2.82,0-5.65.05-8.48,0-1-.17-1.48-1.34-1.48q-24,.06-48,0c-1,0-1.33.32-1.31,1.32.06,2.89-.13,5.79.06,8.67.23,3.28-.94,5.6-3.89,7Z"/><path class="cls-1" d="M82.14,241.38c7.6-10.51,15.23-21,23.15-31.24,4.29-5.54,9.76-8.21,16.88-6.59,4.07.93,6.91,3.64,9.3,6.8Q142.64,225.1,153.63,240a5.09,5.09,0,0,1-1.35,7.43c-.46.32-.95.6-1.42.91h-3.09a13.48,13.48,0,0,1-4.25-4c-1.74-2.3-3.62-4.5-5.36-6.81a2.69,2.69,0,0,0-2.41-1.18q-17.34.06-34.69,0a2.55,2.55,0,0,0-2.27,1.07c-2,2.57-4.17,5-6.17,7.64a10.85,10.85,0,0,1-3.92,3.3H86a7.9,7.9,0,0,1-3.86-3.87Zm25.06-15.86h22.39c-2.62-3.53-5-6.85-7.51-10.07s-4.77-3.12-7.22,0S109.9,221.94,107.2,225.52Z"/><path class="cls-1" d="M176.73,248.33c-2.89-1.37-4-3.59-3.91-6.82.17-8.42,0-16.85.09-25.28,0-1.47-.32-1.95-1.88-1.93-7.65.09-15.31,0-23,0-3.38,0-5.87-2.21-6-5.25s2.34-5.41,5.76-5.41q30.3,0,60.59,0a5.33,5.33,0,0,1,5.67,5.5c-.08,3-2.44,5.15-5.78,5.15-7.65,0-15.31,0-23,0-1.57,0-2.07.37-2,2,.08,8.49,0,17,.08,25.47,0,3.15-1.1,5.32-4,6.55Z"/><path class="cls-1" d="M311.47,248.33c-2.87-1.48-4-3.74-3.91-7,.16-10.67.07-21.35.05-32a5.24,5.24,0,0,1,3.17-5.08,5.12,5.12,0,0,1,5.61.72,5.47,5.47,0,0,1,1.88,4.66c0,10.93,0,21.86,0,32.79a6.28,6.28,0,0,1-3.75,6Z"/><path class="cls-1" d="M303.45,181.7c-8.64-3.06-16.72-5.95-24.82-8.79A103.8,103.8,0,0,0,233,167.27c-9.89,1-19.34,3.94-28.62,7.44-5.64,2.12-11.34,4.09-17,6.13-.36.13-.68.38-1.22.11,2.62-3.88,5.21-7.77,7.83-11.62s2.57-3.75-1.15-6.49a35.71,35.71,0,0,1-9.81-10.2A22.05,22.05,0,0,1,184,127.35c4.67-6.42,11-10.65,18-14.06a85.82,85.82,0,0,1,31.09-8.19c1-.08,2-.32,3.06-.33a2.17,2.17,0,0,0,2-1.15c1.49-2.33,3.12-4.57,4.56-6.93.82-1.33,1.31-1.62,2.26-.1,1.46,2.35,3.14,4.56,4.64,6.87a2.73,2.73,0,0,0,2.34,1.33c9.83.76,19.47,2.46,28.69,6.12a61,61,0,0,1,18.77,11.16c5,4.54,8.4,10.12,9.11,16.92a21.92,21.92,0,0,1-4.41,15.21,39.28,39.28,0,0,1-10.61,10c-1.3.86-1.12,1.46-.36,2.56C296.56,171.54,299.83,176.39,303.45,181.7Zm-59.33-66.22-31.25,45.28c21.23-7.58,42.08-7.16,63-.35ZM229,117.17a3.31,3.31,0,0,0-.82-.13c-8.7,1.5-17.21,3.63-24.76,8.43-3.35,2.13-6.62,4.41-8.87,7.87-2.55,3.92-3.42,8-1.51,12.39,1.66,3.86,4.76,6.46,7.88,9.05,1.42,1.18,2.18.92,3.22-.63,6.78-10.22,13.68-20.36,20.55-30.53C226.13,121.51,227.53,119.39,229,117.17Zm30-.29,5.73,8.38c6.61,9.64,13.26,19.26,19.81,29,.93,1.39,1.5,1.33,2.73.41a37.34,37.34,0,0,0,4.69-4.28c5.49-5.75,5.32-13.56-.24-19.29-4.49-4.63-10-7.57-15.87-9.88A85.86,85.86,0,0,0,259,116.88Z"/></svg>