<svg id="Capa_1" data-name="Capa 1" xmlns="http://www.w3.org/2000/svg" viewBox="0 0 486.36 343.89"><defs><style>.cls-1{fill:#fff;}</style></defs><title>Logos</title><path class="cls-1" d="M124.24,233.44h5.4v3.32h-9.22V217.19h3.82Z"/><path class="cls-1" d="M141.76,232.64l-1.61,4.12h-4l7.63-20.08h3l7.42,20.08h-4.08l-1.5-4.12Zm3.3-10.23H145l-2.15,7.11h4.65Z"/><path class="cls-1" d="M161.36,217.19h4.75c3.63,0,5.86,1.43,5.86,5.32a4.46,4.46,0,0,1-1.71,3.79c2.31.42,3.35,2.75,3.35,4.91,0,3.84-2.7,5.55-6.26,5.55h-6Zm3.81,8.15h.47c1.87,0,2.78-.54,2.78-2.57s-1.15-2.51-2.75-2.51h-.5Zm0,8.36H166c2.05,0,3.81-.26,3.81-2.8s-2.07-2.65-4-2.65h-.63Z"/><path class="cls-1" d="M190.29,237.28c-6,0-9.68-4.57-9.68-10.33s3.84-10.27,9.68-10.27S200,221.14,200,227,196.26,237.28,190.29,237.28Zm0-16.84c-3.6,0-5.73,3.19-5.73,6.36,0,3,1.5,6.72,5.73,6.72s5.74-3.71,5.74-6.72C196,223.63,193.9,220.44,190.29,220.44Z"/><path class="cls-1" d="M221.2,236.76h-4.61l-4.75-7.89h-.06v7.89H208V217.19h5.16c3.87,0,6.54,1.72,6.54,5.9,0,2.49-1.37,5-4,5.42Zm-9.42-10.56h.5c2.1,0,3.58-.62,3.58-3s-1.53-2.88-3.56-2.88h-.52Z"/><path class="cls-1" d="M233.35,232.64l-1.6,4.12h-4l7.63-20.08h3l7.42,20.08h-4.07l-1.51-4.12Zm3.3-10.23h-.05l-2.16,7.11h4.65Z"/><path class="cls-1" d="M257.9,236.76h-3.82V220.52h-3.94v-3.33h11.7v3.33H257.9Z"/><path class="cls-1" d="M277.44,237.28c-6,0-9.68-4.57-9.68-10.33s3.84-10.27,9.68-10.27,9.68,4.46,9.68,10.27S283.41,237.28,277.44,237.28Zm0-16.84c-3.61,0-5.73,3.19-5.73,6.36,0,3,1.5,6.72,5.73,6.72s5.74-3.71,5.74-6.72C283.18,223.63,281.05,220.44,277.44,220.44Z"/><path class="cls-1" d="M308.35,236.76h-4.62L299,228.87h-.05v7.89h-3.81V217.19h5.16c3.87,0,6.54,1.72,6.54,5.9,0,2.49-1.37,5-4,5.42Zm-9.42-10.56h.5c2.1,0,3.58-.62,3.58-3s-1.53-2.88-3.56-2.88h-.52Z"/><path class="cls-1" d="M319.41,236.76h-3.82V217.19h3.82Z"/><path class="cls-1" d="M337.06,237.28c-6,0-9.68-4.57-9.68-10.33s3.84-10.27,9.68-10.27,9.68,4.46,9.68,10.27S343,237.28,337.06,237.28Zm0-16.84c-3.61,0-5.74,3.19-5.74,6.36,0,3,1.51,6.72,5.74,6.72s5.73-3.71,5.73-6.72C342.79,223.63,340.66,220.44,337.06,220.44Z"/><path class="cls-1" d="M363.35,221.5a3.54,3.54,0,0,0-2.93-1.61A2.34,2.34,0,0,0,358,222.1c0,3.29,7.76,1.92,7.76,8.49,0,3.91-2.44,6.69-6.44,6.69-2.7,0-4.67-1.56-6-3.81l2.47-2.42a4,4,0,0,0,3.53,2.86,2.62,2.62,0,0,0,2.51-2.83c0-2-1.86-2.6-3.39-3.19-2.52-1-4.36-2.31-4.36-5.35a5.69,5.69,0,0,1,5.7-5.86,8,8,0,0,1,5.35,2.18Z"/><path class="cls-1" d="M153,153.55a11.29,11.29,0,0,0-7.23-20H120.41v41.79H147.5A11.61,11.61,0,0,0,153,153.55Zm-20.11-10.48h8.48a3.19,3.19,0,1,1,0,6.38h-8.48Zm9.94,22.82h-9.94v-7.51h9.94a3.76,3.76,0,1,1,0,7.51Z"/><path class="cls-1" d="M165.5,133.59H178v41.79H165.5Z"/><path class="cls-1" d="M185.08,154.37c0-10.17,7.31-22.14,22.51-22.14s22.52,12,22.52,22.21-7.3,22.22-22.52,22.22-22.51-12-22.51-22.22Zm12.5.15a10.6,10.6,0,1,0,0-.08Z"/><path class="cls-1" d="M288.85,158.81c.52,4.45,4.74,7.38,9.63,7.38a8.43,8.43,0,0,0,7.61-3.92h12.8a24.45,24.45,0,0,1-8.51,10.7,20.32,20.32,0,0,1-11.9,3.76,22.17,22.17,0,0,1-22.14-22.13c0-11.68,9.19-22.44,21.92-22.44a21.38,21.38,0,0,1,15.81,6.62c5.27,5.65,6.85,12.35,5.87,20Zm18.82-9.48c-.3-2-2.86-6.63-9.34-6.63s-9,4.66-9.34,6.63Z"/><path class="cls-1" d="M327.24,133.59h11.68V138c1.43-2,4.07-5.87,11.52-5.87,14.08,0,15.51,11.44,15.51,17.09v26.13h-12.5V152.56c0-4.59-1-8.66-6.55-8.66-6.18,0-7.15,4.44-7.15,8.74v22.74H327.24Z"/><path class="cls-1" d="M298.28,189.33h0a34.89,34.89,0,1,1,0-69.77,6.48,6.48,0,0,0,0-13h0a47.87,47.87,0,0,0-45.06,31.75,47.85,47.85,0,0,0-45.06-31.75,6.48,6.48,0,0,0,0,13,34.89,34.89,0,1,1,0,69.77,6.48,6.48,0,0,0,0,13h0a47.87,47.87,0,0,0,45.05-31.76,47.87,47.87,0,0,0,45.07,31.76,6.48,6.48,0,0,0,0-13Z"/></svg>