<svg id="Capa_1" data-name="Capa 1" xmlns="http://www.w3.org/2000/svg" viewBox="0 0 486.36 343.89"><defs><style>.cls-1,.cls-2{fill:#fff;}.cls-1{fill-rule:evenodd;}</style></defs><title>Logos</title><path class="cls-1" d="M162.8,243.57h2v15.25h-2V243.57Zm146.23,2h3.08v-2h-3.19a4.25,4.25,0,0,0-3.8,4.51c0,2.07.93,3.45,2,3.78s3.74,1,3.9,2.8a2.21,2.21,0,0,1-1.86,2.43h-4v1.73h4.16c2.31-.22,3.62-1.46,3.66-4s-.92-3.24-2-3.81c-1.36-.91-3.9-.39-3.9-2.83a2.11,2.11,0,0,1,1.88-2.59Zm-13.54-2h-3.68a3.69,3.69,0,0,0-3.68,3.68v7.89a3.69,3.69,0,0,0,3.68,3.68h3.68v-1.66h-2.82a2.72,2.72,0,0,1-2.71-2.7v-2.17h5.53v-1.91H290V248.3a2.72,2.72,0,0,1,2.71-2.7h2.82v-2Zm-22.92,0h5.93v2h-4v13.29h-2V245.53h-4v-2Zm-20.86,0h4a3.36,3.36,0,0,1,1.27.28h0l0,0h0l.05,0h0l.05,0,.05,0h0l0,0h0l0,0,0,0h0l0,0h0l.05,0h0l0,0h0l.05,0h0l.05,0h0l0,0h0l.05,0,0,0h0l.05,0h0l0,0h0l0,0h0l0,0a3.75,3.75,0,0,1,.51.61h0a3.23,3.23,0,0,1,.52,1.77h0v12h-2V246.76a1.36,1.36,0,0,0-1.25-1.23h-3v1.39h0v11.9h-2V243.57Zm-19,15.25h2v-5.61h4.46v5.61h2v-11.5a3.76,3.76,0,0,0-3.74-3.75h-.9a3.76,3.76,0,0,0-3.75,3.75v11.5Zm2-7.56v-3.5a2,2,0,0,1,2-2h.48a2,2,0,0,1,2,2v3.5Zm-17.88-7.69h2V255a2,2,0,0,0,1.87,1.86h2.46v2H220.8a4,4,0,0,1-4-3.89V243.57Zm-14,8.49h-2.31v6.76h-2V243.57h4.43a4.25,4.25,0,0,1,0,8.5Zm-.34-6.62h-2v4.75h2a2.38,2.38,0,0,0-.06-4.75Zm-28.05-1.87h5a3.27,3.27,0,0,1,1.26.28h0l.05,0h0l.05,0h0l0,0,.05,0h0l.05,0h0l0,0,.05,0h0l.05,0h0l0,0h0l.05,0h0l0,0h0l.05,0h0l0,0h0l0,0,0,0h0l0,0h0l0,0h0l0,0h0l0,0,0,0v-.92h4a3.36,3.36,0,0,1,1.27.28h0l0,0h0l.05,0h0l.05,0,0,0h0l0,0h0l.05,0,0,0h0l0,0h0l0,0h0l.05,0h0l0,0h0l.05,0h0l0,0h0l.05,0,0,0h0l.05,0h0l0,0h0l0,0h0l0,0a3.75,3.75,0,0,1,.51.61h0a3.23,3.23,0,0,1,.52,1.77h0v12h-2V246.76a1.36,1.36,0,0,0-1.25-1.23h-3v1.39h0v11.9h-2V246.76a1.34,1.34,0,0,0-1.24-1.23h-3.07v13.29h-2V243.57Z"/><path class="cls-2" d="M181.86,89c-19.21.27-34.68,15-34.68,34.52,0,28.73,0,45.77,0,86.2,0,15.57,23.37,12.83,22.76-.78,0-8.41,0-17.1,0-26a9.83,9.83,0,0,1,8.36-9.72c1.4-.09,14.17,0,14.17,0a11.49,11.49,0,0,0,11-11.48V150.16H178.66c-5.38-.16-7.67-4-8.74-9.13,0-9.63.21-16.73.27-17.34.42-4.62,4.75-11.4,11-11.68,0,0,18.09,0,19.76,0a11.5,11.5,0,0,0,11.48-11c0-4,0-6,0-10A192.55,192.55,0,0,0,181.86,89Z"/><path class="cls-2" d="M248.74,125.68c0-5.22-1.47-7.28-4-11h0a34.78,34.78,0,0,0-27.21.08l1.35,28.77a12.88,12.88,0,0,1-5.17,1.7,13.15,13.15,0,0,0,5.31,1.22l1,20.4a13.07,13.07,0,0,1-5.17,1.69,13,13,0,0,0,5.3,1.22l.87,18.48a13.08,13.08,0,0,1-5.2,1.71,13,13,0,0,0,5.34,1.22l1.06,20.62a9.07,9.07,0,0,0,18.12-.39c0-7.78.62-15.59,1-23.37,2.55-2.93,4.1-9.12,4.1-13s-1.16-4.91-3.13-7.65l0-.43c3.14-3.37,4.61-10.33,4.61-14.85s-1.29-6-3.49-9.2v-.34C246.76,138.51,248.74,130.89,248.74,125.68Zm-6,48.06a14.54,14.54,0,0,1,.24,2.66,14.38,14.38,0,0,1-17.3,14C233.17,190.48,241.09,183,242.7,173.74ZM244,151.37a15.65,15.65,0,0,1,.26,2.85,15.37,15.37,0,0,1-15.37,15.37,15,15,0,0,1-3.16-.33C234.15,169,242.25,161,244,151.37Zm-15.3-5.7a17.5,17.5,0,0,1-3.57-.36c9.22-.87,18.71-9.74,20.61-20.19a17.91,17.91,0,0,1,.3,3.21A17.34,17.34,0,0,1,228.69,145.67Z"/><path class="cls-2" d="M245,110,246,90.83a34.78,34.78,0,0,0-29.64.09l.94,19.2A34.76,34.76,0,0,1,245,110Z"/><path class="cls-2" d="M328.12,122.85c0-19.57-15.48-34.25-34.69-34.52a192.24,192.24,0,0,0-26.32,1.48c-4.89.35-9.89.77-15.17,1.23V209.35h0a11.5,11.5,0,0,0,23,0h0V173.41h.09v-.87c5.7,0,20.81,0,21.94,0a9.83,9.83,0,0,1,8.37,9.72c-.05,8.89,0,18.49,0,26.91-.61,13.6,22.75,16.34,22.75.77C328.13,169.53,328.12,151.58,328.12,122.85ZM296.63,149.5H275V112.17l0-.86c3.61,0,19.12,0,19.12,0,6.23.28,10.55,7.05,11,11.68.06.61.28,7.7.28,17.34C304.31,145.48,302,149.34,296.63,149.5Z"/><path class="cls-1" d="M238.17,223.55c-40.81-7.2-70.35-3.13-90.13,10.7,10.43-3.7,35.36-3.4,89.37,4.93,56.29,6.64,77.59-3.47,89.87-17.89C311.47,230.65,280.64,230.71,238.17,223.55Zm-18.64,8.76c-2.35-.22-4.11-1.89-3.94-3.73s2.23-3.15,4.58-2.92,4.11,1.9,3.94,3.73S221.88,232.54,219.53,232.31Zm20.93-.72c-.26,2.78-3.37,4.76-6.93,4.42s-6.24-2.87-6-5.66,3.37-4.77,6.93-4.42S240.73,228.8,240.46,231.59Zm7.11,4.69c-2.35-.23-4.11-1.9-3.94-3.74s2.23-3.14,4.58-2.91,4.11,1.89,3.93,3.73S249.92,236.5,247.57,236.28Z"/><path class="cls-2" d="M330.24,103a9,9,0,1,1,8.95-9A9,9,0,0,1,330.24,103Zm0-14.55A5.59,5.59,0,1,0,335.83,94,5.6,5.6,0,0,0,330.24,88.44Z"/><path class="cls-1" d="M326.69,98.8V89.26h4.23a5.65,5.65,0,0,1,1.94.26,2.15,2.15,0,0,1,1.06.9,2.7,2.7,0,0,1,.4,1.44,2.38,2.38,0,0,1-.66,1.71,3.34,3.34,0,0,1-2,.89,3.13,3.13,0,0,1,.76.48,6.44,6.44,0,0,1,1.05,1.26l1.66,2.6h-1.59l-1.26-2a15.83,15.83,0,0,0-.92-1.32,2.66,2.66,0,0,0-.64-.63,1.63,1.63,0,0,0-.57-.26,3.93,3.93,0,0,0-.7,0H328V98.8ZM328,93.47h2.72a4.07,4.07,0,0,0,1.35-.18,1.43,1.43,0,0,0,.74-.57,1.54,1.54,0,0,0,.25-.86,1.41,1.41,0,0,0-.49-1.11,2.28,2.28,0,0,0-1.55-.44h-3Z"/></svg>