<?xml version="1.0" encoding="utf-8"?>
<!-- Generator: Adobe Illustrator 24.0.2, SVG Export Plug-In . SVG Version: 6.00 Build 0)  -->
<svg version="1.1" xmlns="http://www.w3.org/2000/svg" xmlns:xlink="http://www.w3.org/1999/xlink" x="0px" y="0px"
	 viewBox="0 0 176.2 52.4" enable-background="new 0 0 176.2 52.4" xml:space="preserve">
<g id="Capa_1">
	<g opacity="0.1">
		<g>
			<defs>
				<rect id="SVGID_27_" x="419.6" y="1.9" width="1110" height="3306"/>
			</defs>
			<clipPath id="SVGID_1_">
				<use xlink:href="#SVGID_27_"  overflow="visible"/>
			</clipPath>
			<line clip-path="url(#SVGID_1_)" fill="#E42320" x1="604.6" y1="1.9" x2="604.6" y2="3307.9"/>
			<line clip-path="url(#SVGID_1_)" fill="#E42320" x1="619.6" y1="1.9" x2="619.6" y2="3307.9"/>
			<line clip-path="url(#SVGID_1_)" fill="#E42320" x1="589.6" y1="1.9" x2="589.6" y2="3307.9"/>
			<line clip-path="url(#SVGID_1_)" fill="#E42320" x1="1252.1" y1="1.9" x2="1252.1" y2="3307.9"/>
			<line clip-path="url(#SVGID_1_)" fill="#E42320" x1="1267.1" y1="1.9" x2="1267.1" y2="3307.9"/>
			<line clip-path="url(#SVGID_1_)" fill="#E42320" x1="1237.1" y1="1.9" x2="1237.1" y2="3307.9"/>
			<line clip-path="url(#SVGID_1_)" fill="#E42320" x1="1529.6" y1="1.9" x2="1529.6" y2="3307.9"/>
			<line clip-path="url(#SVGID_1_)" fill="#E42320" x1="1514.6" y1="1.9" x2="1514.6" y2="3307.9"/>
			<line clip-path="url(#SVGID_1_)" fill="#E42320" x1="974.6" y1="1.9" x2="974.6" y2="3307.9"/>
			<line clip-path="url(#SVGID_1_)" fill="#E42320" x1="989.6" y1="1.9" x2="989.6" y2="3307.9"/>
			<line clip-path="url(#SVGID_1_)" fill="#E42320" x1="959.6" y1="1.9" x2="959.6" y2="3307.9"/>
			<line clip-path="url(#SVGID_1_)" fill="#E42320" x1="512.1" y1="1.9" x2="512.1" y2="3307.9"/>
			<line clip-path="url(#SVGID_1_)" fill="#E42320" x1="527.1" y1="1.9" x2="527.1" y2="3307.9"/>
			<line clip-path="url(#SVGID_1_)" fill="#E42320" x1="497.1" y1="1.9" x2="497.1" y2="3307.9"/>
			<line clip-path="url(#SVGID_1_)" fill="#E42320" x1="1159.6" y1="1.9" x2="1159.6" y2="3307.9"/>
			<line clip-path="url(#SVGID_1_)" fill="#E42320" x1="1174.6" y1="1.9" x2="1174.6" y2="3307.9"/>
			<line clip-path="url(#SVGID_1_)" fill="#E42320" x1="1144.6" y1="1.9" x2="1144.6" y2="3307.9"/>
			<line clip-path="url(#SVGID_1_)" fill="#E42320" x1="1437.1" y1="1.9" x2="1437.1" y2="3307.9"/>
			<line clip-path="url(#SVGID_1_)" fill="#E42320" x1="1452.1" y1="1.9" x2="1452.1" y2="3307.9"/>
			<line clip-path="url(#SVGID_1_)" fill="#E42320" x1="1422.1" y1="1.9" x2="1422.1" y2="3307.9"/>
			<line clip-path="url(#SVGID_1_)" fill="#E42320" x1="882.1" y1="1.9" x2="882.1" y2="3307.9"/>
			<line clip-path="url(#SVGID_1_)" fill="#E42320" x1="897.1" y1="1.9" x2="897.1" y2="3307.9"/>
			<line clip-path="url(#SVGID_1_)" fill="#E42320" x1="867.1" y1="1.9" x2="867.1" y2="3307.9"/>
			<line clip-path="url(#SVGID_1_)" fill="#E42320" x1="419.6" y1="1.9" x2="419.6" y2="3307.9"/>
			<line clip-path="url(#SVGID_1_)" fill="#E42320" x1="434.6" y1="1.9" x2="434.6" y2="3307.9"/>
			<line clip-path="url(#SVGID_1_)" fill="#E42320" x1="1067.1" y1="1.9" x2="1067.1" y2="3307.9"/>
			<line clip-path="url(#SVGID_1_)" fill="#E42320" x1="1082.1" y1="1.9" x2="1082.1" y2="3307.9"/>
			<line clip-path="url(#SVGID_1_)" fill="#E42320" x1="1052.1" y1="1.9" x2="1052.1" y2="3307.9"/>
			<line clip-path="url(#SVGID_1_)" fill="#E42320" x1="1344.6" y1="1.9" x2="1344.6" y2="3307.9"/>
			<line clip-path="url(#SVGID_1_)" fill="#E42320" x1="1359.6" y1="1.9" x2="1359.6" y2="3307.9"/>
			<line clip-path="url(#SVGID_1_)" fill="#E42320" x1="1329.6" y1="1.9" x2="1329.6" y2="3307.9"/>
			<line clip-path="url(#SVGID_1_)" fill="#E42320" x1="697.1" y1="1.9" x2="697.1" y2="3307.9"/>
			<line clip-path="url(#SVGID_1_)" fill="#E42320" x1="712.1" y1="1.9" x2="712.1" y2="3307.9"/>
			<line clip-path="url(#SVGID_1_)" fill="#E42320" x1="682.1" y1="1.9" x2="682.1" y2="3307.9"/>
			<line clip-path="url(#SVGID_1_)" fill="#E42320" x1="789.6" y1="1.9" x2="789.6" y2="3307.9"/>
			<line clip-path="url(#SVGID_1_)" fill="#E42320" x1="804.6" y1="1.9" x2="804.6" y2="3307.9"/>
			<line clip-path="url(#SVGID_1_)" fill="#E42320" x1="774.6" y1="1.9" x2="774.6" y2="3307.9"/>
		</g>
	</g>
	<g opacity="0.1">
		<g>
			<defs>
				<rect id="SVGID_29_" x="434.1" y="218.2" width="62.5" height="3089.7"/>
			</defs>
			<clipPath id="SVGID_2_">
				<use xlink:href="#SVGID_29_"  overflow="visible"/>
			</clipPath>
			<rect x="434.1" y="218.2" clip-path="url(#SVGID_2_)" fill="#E42320" width="62.5" height="3089.7"/>
		</g>
	</g>
	<g opacity="0.1">
		<g>
			<defs>
				<rect id="SVGID_31_" x="526.6" y="218.2" width="62.5" height="3089.7"/>
			</defs>
			<clipPath id="SVGID_3_">
				<use xlink:href="#SVGID_31_"  overflow="visible"/>
			</clipPath>
			<rect x="526.6" y="218.2" clip-path="url(#SVGID_3_)" fill="#E42320" width="62.5" height="3089.7"/>
		</g>
	</g>
	<g opacity="0.1">
		<g>
			<defs>
				<rect id="SVGID_33_" x="619.1" y="218.2" width="62.5" height="3089.7"/>
			</defs>
			<clipPath id="SVGID_4_">
				<use xlink:href="#SVGID_33_"  overflow="visible"/>
			</clipPath>
			<rect x="619.1" y="218.2" clip-path="url(#SVGID_4_)" fill="#E42320" width="62.5" height="3089.7"/>
		</g>
	</g>
	<g opacity="0.1">
		<g>
			<defs>
				<rect id="SVGID_35_" x="711.6" y="218.2" width="62.5" height="3089.7"/>
			</defs>
			<clipPath id="SVGID_5_">
				<use xlink:href="#SVGID_35_"  overflow="visible"/>
			</clipPath>
			<rect x="711.6" y="218.2" clip-path="url(#SVGID_5_)" fill="#E42320" width="62.5" height="3089.7"/>
		</g>
	</g>
	<g opacity="0.1">
		<g>
			<defs>
				<rect id="SVGID_37_" x="804.1" y="218.2" width="62.5" height="3089.7"/>
			</defs>
			<clipPath id="SVGID_6_">
				<use xlink:href="#SVGID_37_"  overflow="visible"/>
			</clipPath>
			<rect x="804.1" y="218.2" clip-path="url(#SVGID_6_)" fill="#E42320" width="62.5" height="3089.7"/>
		</g>
	</g>
	<g opacity="0.1">
		<g>
			<defs>
				<rect id="SVGID_39_" x="896.6" y="218.2" width="62.5" height="3089.7"/>
			</defs>
			<clipPath id="SVGID_7_">
				<use xlink:href="#SVGID_39_"  overflow="visible"/>
			</clipPath>
			<rect x="896.6" y="218.2" clip-path="url(#SVGID_7_)" fill="#E42320" width="62.5" height="3089.7"/>
		</g>
	</g>
	<g opacity="0.1">
		<g>
			<defs>
				<rect id="SVGID_41_" x="989.1" y="218.2" width="62.5" height="3089.7"/>
			</defs>
			<clipPath id="SVGID_8_">
				<use xlink:href="#SVGID_41_"  overflow="visible"/>
			</clipPath>
			<rect x="989.1" y="218.2" clip-path="url(#SVGID_8_)" fill="#E42320" width="62.5" height="3089.7"/>
		</g>
	</g>
	<g opacity="0.1">
		<g>
			<defs>
				<rect id="SVGID_43_" x="1081.6" y="218.2" width="62.5" height="3089.7"/>
			</defs>
			<clipPath id="SVGID_9_">
				<use xlink:href="#SVGID_43_"  overflow="visible"/>
			</clipPath>
			<rect x="1081.6" y="218.2" clip-path="url(#SVGID_9_)" fill="#E42320" width="62.5" height="3089.7"/>
		</g>
	</g>
	<g opacity="0.1">
		<g>
			<defs>
				<rect id="SVGID_45_" x="1174.1" y="218.2" width="62.5" height="3089.7"/>
			</defs>
			<clipPath id="SVGID_10_">
				<use xlink:href="#SVGID_45_"  overflow="visible"/>
			</clipPath>
			<rect x="1174.1" y="218.2" clip-path="url(#SVGID_10_)" fill="#E42320" width="62.5" height="3089.7"/>
		</g>
	</g>
	<g opacity="0.1">
		<g>
			<defs>
				<rect id="SVGID_47_" x="1266.6" y="218.2" width="62.5" height="3089.7"/>
			</defs>
			<clipPath id="SVGID_11_">
				<use xlink:href="#SVGID_47_"  overflow="visible"/>
			</clipPath>
			<rect x="1266.6" y="218.2" clip-path="url(#SVGID_11_)" fill="#E42320" width="62.5" height="3089.7"/>
		</g>
	</g>
	<g opacity="0.1">
		<g>
			<defs>
				<rect id="SVGID_49_" x="1359.1" y="218.2" width="62.5" height="3089.7"/>
			</defs>
			<clipPath id="SVGID_12_">
				<use xlink:href="#SVGID_49_"  overflow="visible"/>
			</clipPath>
			<rect x="1359.1" y="218.2" clip-path="url(#SVGID_12_)" fill="#E42320" width="62.5" height="3089.7"/>
		</g>
	</g>
	<g opacity="0.1">
		<g>
			<defs>
				<rect id="SVGID_51_" x="1451.6" y="218.2" width="62.5" height="3089.7"/>
			</defs>
			<clipPath id="SVGID_13_">
				<use xlink:href="#SVGID_51_"  overflow="visible"/>
			</clipPath>
			<rect x="1451.6" y="218.2" clip-path="url(#SVGID_13_)" fill="#E42320" width="62.5" height="3089.7"/>
		</g>
	</g>
	<rect x="14.6" y="218.2" fill="none" width="1920" height="3089.7"/>
	<rect x="14.6" y="218.2" fill="none" width="1920" height="3089.7"/>
	<rect x="14.6" y="218.2" fill="none" width="1920" height="3089.7"/>
</g>
<g id="Menu">
	<linearGradient id="SVGID_14_" gradientUnits="userSpaceOnUse" x1="-1200.7904" y1="7870.2495" x2="3149.9587" y2="1165.5997">
		<stop  offset="6.230033e-08" style="stop-color:#29323C"/>
		<stop  offset="1" style="stop-color:#485563"/>
	</linearGradient>
	<rect x="14.6" y="376.9" fill="url(#SVGID_14_)" width="1920" height="8282"/>
	<rect x="14.6" y="374.9" fill="#29323C" width="1920" height="90"/>
	<g>
		<text transform="matrix(1 0 0 1 1229.0627 426.9516)" fill="#FFFFFF" font-family="'Kanit-Regular'" font-size="21.308px">SERVICIOS</text>
		<text transform="matrix(1 0 0 1 1356.0627 426.9516)" fill="#FFFFFF" font-family="'Kanit-Regular'" font-size="21.308px">NOSOTROS</text>
		<text transform="matrix(1 0 0 1 1491.0627 426.9516)" fill="#FFFFFF" font-family="'Kanit-Regular'" font-size="21.308px">EMPLEOS</text>
		<text transform="matrix(1 0 0 1 1608.0627 426.9516)" fill="#FFFFFF" font-family="'Kanit-Regular'" font-size="21.308px">CONTACTO</text>
	</g>
	<g>
		<g>
			<g>
				<linearGradient id="SVGID_15_" gradientUnits="userSpaceOnUse" x1="162.7004" y1="399.8865" x2="162.7004" y2="450.0729">
					<stop  offset="0" style="stop-color:#E41E36"/>
					<stop  offset="1" style="stop-color:#731D23"/>
				</linearGradient>
				<circle fill="url(#SVGID_15_)" cx="162.7" cy="419.9" r="25.1"/>
				<linearGradient id="SVGID_16_" gradientUnits="userSpaceOnUse" x1="140.0299" y1="406.8447" x2="185.371" y2="433.0224">
					<stop  offset="0" style="stop-color:#F5F5F5"/>
					<stop  offset="1" style="stop-color:#868686"/>
				</linearGradient>
				<path fill="url(#SVGID_16_)" d="M162.7,446.1c-14.4,0-26.2-11.7-26.2-26.2s11.7-26.2,26.2-26.2s26.2,11.7,26.2,26.2
					S177.1,446.1,162.7,446.1z M162.7,395.9c-13.2,0-24,10.8-24,24s10.8,24,24,24c13.2,0,24-10.8,24-24S175.9,395.9,162.7,395.9z"/>
			</g>
			<linearGradient id="SVGID_17_" gradientUnits="userSpaceOnUse" x1="158.5435" y1="413.2156" x2="179.4277" y2="447.2658">
				<stop  offset="0" style="stop-color:#F5F5F5"/>
				<stop  offset="1" style="stop-color:#868686"/>
			</linearGradient>
			<path fill="url(#SVGID_17_)" d="M150.6,413.3c0.6-1.2,1.1-2.4,1.9-3.5c0.8-1.1,1.8-2,3.1-2.4c1.1-0.4,2.3-0.4,3.5-0.4
				c2.9,0,5.7,0,8.6,0c1.5,0,2.9,0,4.4,0c1.4,0,3-0.2,4.4,0c-0.3,0.8-1.1,1.5-1.5,2.2c-0.5,0.7-1.1,1.5-1.6,2.2
				c-1.1,1.5-2.1,2.9-3.2,4.4c-2.1,2.9-4.3,5.9-6.4,8.8c-0.8,1.1-1.6,2.2-2.4,3.3c0.1-0.2,1.4,0,1.6,0c0.6,0,1.2,0,1.8,0
				c1.2,0,2.5,0,3.7-0.1c2.2-0.2,4.6-0.9,6-2.7c0.1,1.8-0.8,3.5-1.8,5c-0.6,1-1.3,2-2.4,2.5c-0.9,0.4-1.9,0.4-2.9,0.4
				c-6.1,0-12.1,0-18.2,0c5.3-6.9,10.5-13.9,15.8-20.8c-0.1,0.1-1.4-0.1-1.6-0.1c-0.6,0-1.2,0-1.8,0
				C157.8,412,154.1,412.2,150.6,413.3z"/>
		</g>
		<g>
			<g>
				<path fill="#FFFFFF" d="M271.6,426.7c-0.5,0.6-1.3,1-2.4,1c-1.2,0-2.1-0.5-2.6-1.4c-0.5-0.9-0.7-2.1-0.7-3.6
					c0-0.9,0.1-1.8,0.2-2.5c0.2-0.7,0.5-1.3,1-1.8c0.5-0.5,1.2-0.7,2.1-0.7c1,0,1.7,0.3,2.2,0.9c0.5,0.6,0.8,1.4,1,2.5h4.6
					c0-2.8-0.8-4.7-2.3-5.7c-1.6-1-3.4-1.5-5.5-1.5c-1.5,0-2.9,0.2-4,0.6c-1.2,0.4-2.1,1.2-2.9,2.4c-0.7,1.2-1.1,2.9-1.1,5v1.3
					c0,1.6,0.2,2.9,0.6,4c0,0,0,0-0.1,0c-0.4,0.2-0.7,0.3-1.2,0.3c-0.4,0-0.8-0.1-1-0.4c-0.2-0.2-0.4-0.6-0.4-1.1
					c-0.1-0.5-0.1-1.3-0.1-2.2v-3.1c0-2.2-0.4-4-1.3-5.1c-0.9-1.2-2.3-1.7-4.3-1.7c-0.8,0-1.6,0.2-2.3,0.5c-0.7,0.3-1.4,0.7-1.9,1.1
					c-0.5,0.4-0.8,0.6-0.8,0.7v-2l-4.7,0.4V427c-0.2,0.1-0.5,0.2-0.8,0.4c-0.5,0.2-1,0.3-1.5,0.3c-0.4,0-0.8-0.1-1-0.4
					c-0.2-0.3-0.4-0.7-0.5-1.3c-0.1-0.6-0.1-1.3-0.1-2.3l0-9.2h-4.7l0,9.7c0,0.9,0,1.6,0,2c-0.4,0.3-0.7,0.6-0.9,0.7
					c-0.2,0.2-0.5,0.3-0.9,0.5c-0.4,0.2-0.9,0.3-1.4,0.3c-0.7,0-1.2-0.2-1.6-0.5c-0.4-0.3-0.7-0.8-0.8-1.4s-0.2-1.4-0.2-2.4v-8.8
					l-2.9,1.7c-1.1,0.6-1.8,1.8-1.8,3.1v5.3c0,0.2,0,0.4,0,0.6c-1.2,0.8-2.6,1.2-4,1.3c-1.1,0.1-2.1,0.1-3.2,0.1c-0.5,0-1.1,0-1.6,0
					c-0.2,0-1.3-0.1-1.4,0c0.7-1,1.4-1.9,2.1-2.9c1.9-2.6,3.7-5.1,5.6-7.7c0.9-1.3,1.9-2.6,2.8-3.8c0.5-0.6,0.9-1.3,1.4-1.9
					c0.4-0.6,1.1-1.2,1.3-1.9c-1.2-0.2-2.6,0-3.8,0c-1.3,0-2.5,0-3.8,0c-2.5,0-5,0-7.5,0c-1,0-2.1,0-3,0.3c-1.1,0.4-2,1.2-2.7,2.1
					c-0.7,0.9-1.2,2-1.7,3c3-1,6.2-1.1,9.4-1.1c0.5,0,1.1,0,1.6,0c0.2,0,1.3,0.2,1.4,0.1c-4.6,6-9.2,12.1-13.8,18.1
					c5.3,0,10.6,0,15.8,0c0.9,0,1.7,0,2.5-0.4c0.9-0.4,1.5-1.3,2.1-2.2c0.2-0.3,0.4-0.7,0.6-1.1c0.2,0.9,0.6,1.7,1,2.3
					c0.9,1.2,2.3,1.7,4.3,1.7c1,0,1.9-0.2,2.8-0.5c0.8-0.3,1.5-0.7,2-1.1c0.5-0.4,0.8-0.7,1-0.9c0.3,0.6,0.8,1.2,1.4,1.5
					c0.6,0.4,1.2,0.6,2,0.8c0.3,0.1,0.6,0.1,0.9,0.1c0.2,0,0.5,0,0.7,0c0.8-0.1,1.6-0.4,2.3-0.8c0.2-0.1,0.3-0.2,0.5-0.3v0.8h4.7
					v-11.8c0,0,0.2-0.2,0.5-0.4c0.3-0.3,0.7-0.5,1.2-0.7c0.5-0.2,1-0.3,1.5-0.3c1,0,1.7,0.3,2.1,1c0.4,0.7,0.6,1.8,0.6,3.2v3.4
					c0,1.8,0.3,3.3,1,4.4c0.7,1.1,1.9,1.7,3.7,1.7c0.8,0,1.5-0.2,2.2-0.5c0.7-0.3,1.2-0.7,1.6-1.1c0.1-0.1,0.2-0.2,0.3-0.3
					c0.7,0.7,1.4,1.2,2.2,1.4c1.1,0.3,2.4,0.5,3.8,0.5c5.3,0,7.9-2.4,7.9-7.3l-4.7,0C272.4,425.3,272.1,426.1,271.6,426.7z"/>
				<path fill="#FFFFFF" d="M311.5,416.8c-0.8-1.2-1.8-2-2.9-2.3c-1.1-0.3-2.4-0.5-3.8-0.5c-1.5,0-2.9,0.2-4,0.6
					c-1.2,0.4-2.1,1.2-2.8,2.4c-0.7,1.2-1.1,2.9-1.1,5v1.3c0,1.4,0.1,2.6,0.4,3.5c-0.2,0.1-0.4,0.3-0.6,0.4
					c-0.4,0.2-0.8,0.3-1.2,0.3c-0.4,0-0.8-0.1-1-0.4c-0.2-0.3-0.4-0.7-0.4-1.3c-0.1-0.6-0.1-1.3-0.1-2.3v-2.9c0-2.2-0.4-4-1.3-5.1
					c-0.9-1.2-2.3-1.7-4.3-1.7c-0.8,0-1.6,0.2-2.3,0.5c-0.7,0.3-1.4,0.6-1.9,1c-0.5,0.4-0.8,0.6-0.8,0.6v-7.7l-2.3,0.8
					c-1.4,0.5-2.4,1.8-2.4,3.2l0,18.8h4.7l0-11.8c0,0,0.3-0.3,0.8-0.7c0.5-0.5,1.3-0.7,2.4-0.7c1,0,1.7,0.4,2.1,1.1
					c0.4,0.7,0.6,1.8,0.6,3.2v3.4c0,1.8,0.3,3.3,1,4.4c0.7,1.1,1.9,1.7,3.7,1.7c0.8,0,1.5-0.2,2.2-0.6c0.7-0.4,1.2-0.8,1.7-1.2
					c0.3-0.3,0.4-0.4,0.6-0.6c0.8,0.9,1.6,1.6,2.6,1.8c1.1,0.3,2.4,0.5,3.8,0.5c1.5,0,2.9-0.2,4-0.6c1.2-0.4,2.1-1.2,2.8-2.4
					c0.7-1.2,1.1-2.9,1.1-5v-1.4C312.7,419.7,312.3,418,311.5,416.8z M307.4,426.3c-0.4,0.9-1.3,1.4-2.6,1.4c-1.2,0-2.1-0.5-2.6-1.4
					c-0.5-0.9-0.7-2.1-0.7-3.6c0-1.5,0.2-2.6,0.7-3.6c0.4-0.9,1.3-1.4,2.6-1.4c1.2,0,2.1,0.4,2.6,1.3c0.5,0.9,0.7,2.1,0.7,3.6
					C308.1,424.2,307.8,425.4,307.4,426.3z"/>
			</g>
		</g>
	</g>
	
		<image overflow="visible" width="2400" height="2000" xlink:href="../../zuncho-web/drive-download-20210601T210438Z-001/Gradiente/3/100 Vicious Stance.png"  transform="matrix(1 0 0 1 -3674.4158 4733.9248)">
	</image>
	<rect x="15.6" y="463.9" fill="#383838" width="1920" height="1080"/>
	<rect x="14.6" y="1541.9" opacity="0.3" fill="#282828" width="1920" height="800"/>
	<rect x="14.6" y="2341.9" opacity="0.3" fill="#282828" width="1920" height="800"/>
	<rect x="14.6" y="3141.9" opacity="0.3" fill="#282828" width="1920" height="800"/>
	<rect x="14.6" y="3941.9" opacity="0.3" fill="#282828" width="1920" height="800"/>
	<rect x="14.6" y="4741.9" opacity="0.3" fill="#282828" width="1920" height="800"/>
	<rect x="14.6" y="5541.9" opacity="0.3" fill="#282828" width="1920" height="800"/>
	<rect x="14.6" y="6341.9" opacity="0.3" fill="#282828" width="1920" height="800"/>
	<rect x="14.6" y="7141.9" opacity="0.3" fill="#282828" width="1920" height="800"/>
	
		<text transform="matrix(1 0 0 1 561.2422 1996.3622)" fill="#FFFFFF" font-family="'Kanit-SemiBold'" font-size="156.0974px" letter-spacing="3">PRODUCTO</text>
	
		<text transform="matrix(1 0 0 1 271.998 2794.3623)" fill="#FFFFFF" font-family="'Kanit-SemiBold'" font-size="156.0974px" letter-spacing="3">MEDICINA Y SALUD</text>
	
		<text transform="matrix(1 0 0 1 619.7012 4395.3623)" fill="#FFFFFF" font-family="'Kanit-SemiBold'" font-size="156.0974px" letter-spacing="3">ARCH VIZ</text>
	
		<text transform="matrix(1 0 0 1 818.0969 5182.2319)" fill="#FFFFFF" font-family="'Kanit-SemiBold'" font-size="156.0974px" letter-spacing="3">VFX</text>
	
		<text transform="matrix(1 0 0 1 488.8929 5976.2319)" fill="#FFFFFF" font-family="'Kanit-SemiBold'" font-size="156.0974px" letter-spacing="3">INTERACTIVE</text>
	
		<text transform="matrix(1 0 0 1 283.8617 6807.2319)" fill="#FFFFFF" font-family="'Kanit-SemiBold'" font-size="156.0974px" letter-spacing="3">MOTION GRAPHICS</text>
	
		<text transform="matrix(1 0 0 1 598.4725 7601.2319)" fill="#FFFFFF" font-family="'Kanit-SemiBold'" font-size="156.0974px" letter-spacing="3">GRAPHICS</text>
	
		<text transform="matrix(1 0 0 1 522.4517 3606.3623)" fill="#FFFFFF" font-family="'Kanit-SemiBold'" font-size="156.0974px" letter-spacing="3">CHARACTER</text>
	<g>
		<g>
			<g>
				<linearGradient id="SVGID_18_" gradientUnits="userSpaceOnUse" x1="26.1828" y1="6.1357" x2="26.1828" y2="56.3221">
					<stop  offset="0" style="stop-color:#E41E36"/>
					<stop  offset="1" style="stop-color:#731D23"/>
				</linearGradient>
				<circle fill="url(#SVGID_18_)" cx="26.2" cy="26.2" r="25.1"/>
				<linearGradient id="SVGID_19_" gradientUnits="userSpaceOnUse" x1="3.5123" y1="13.094" x2="48.8533" y2="39.2716">
					<stop  offset="0" style="stop-color:#F5F5F5"/>
					<stop  offset="1" style="stop-color:#868686"/>
				</linearGradient>
				<path fill="url(#SVGID_19_)" d="M26.2,52.4C11.7,52.4,0,40.6,0,26.2S11.7,0,26.2,0s26.2,11.7,26.2,26.2S40.6,52.4,26.2,52.4z
					 M26.2,2.2c-13.2,0-24,10.8-24,24s10.8,24,24,24s24-10.8,24-24S39.4,2.2,26.2,2.2z"/>
			</g>
			<linearGradient id="SVGID_20_" gradientUnits="userSpaceOnUse" x1="22.0259" y1="19.4648" x2="42.91" y2="53.515">
				<stop  offset="0" style="stop-color:#F5F5F5"/>
				<stop  offset="1" style="stop-color:#868686"/>
			</linearGradient>
			<path fill="url(#SVGID_20_)" d="M14.1,19.6c0.6-1.2,1.1-2.4,1.9-3.5c0.8-1.1,1.8-2,3.1-2.4c1.1-0.4,2.3-0.4,3.5-0.4
				c2.9,0,5.7,0,8.6,0c1.5,0,2.9,0,4.4,0c1.4,0,3-0.2,4.4,0c-0.3,0.8-1.1,1.5-1.5,2.2c-0.5,0.7-1.1,1.5-1.6,2.2
				c-1.1,1.5-2.1,2.9-3.2,4.4c-2.1,2.9-4.3,5.9-6.4,8.8c-0.8,1.1-1.6,2.2-2.4,3.3c0.1-0.2,1.4,0,1.6,0c0.6,0,1.2,0,1.8,0
				c1.2,0,2.5,0,3.7-0.1c2.2-0.2,4.6-0.9,6-2.7c0.1,1.8-0.8,3.5-1.8,5c-0.6,1-1.3,2-2.4,2.5c-0.9,0.4-1.9,0.4-2.9,0.4
				c-6.1,0-12.1,0-18.2,0c5.3-6.9,10.5-13.9,15.8-20.8c-0.1,0.1-1.4-0.1-1.6-0.1c-0.6,0-1.2,0-1.8,0C21.2,18.3,17.6,18.4,14.1,19.6z
				"/>
		</g>
		<g>
			<g>
				<path fill="#FFFFFF" d="M135.1,33c-0.5,0.6-1.3,1-2.4,1c-1.2,0-2.1-0.5-2.6-1.4c-0.5-0.9-0.7-2.1-0.7-3.6c0-0.9,0.1-1.8,0.2-2.5
					c0.2-0.7,0.5-1.3,1-1.8c0.5-0.5,1.2-0.7,2.1-0.7c1,0,1.7,0.3,2.2,0.9c0.5,0.6,0.8,1.4,1,2.5h4.6c0-2.8-0.8-4.7-2.3-5.7
					c-1.6-1-3.4-1.5-5.5-1.5c-1.5,0-2.9,0.2-4,0.6c-1.2,0.4-2.1,1.2-2.9,2.4c-0.7,1.2-1.1,2.9-1.1,5v1.3c0,1.6,0.2,2.9,0.6,4
					c0,0,0,0-0.1,0c-0.4,0.2-0.7,0.3-1.2,0.3c-0.4,0-0.8-0.1-1-0.4c-0.2-0.2-0.4-0.6-0.4-1.1c-0.1-0.5-0.1-1.3-0.1-2.2v-3.1
					c0-2.2-0.4-4-1.3-5.1c-0.9-1.2-2.3-1.7-4.3-1.7c-0.8,0-1.6,0.2-2.3,0.5c-0.7,0.3-1.4,0.7-1.9,1.1c-0.5,0.4-0.8,0.6-0.8,0.7v-2
					l-4.7,0.4v12.4c-0.2,0.1-0.5,0.2-0.8,0.4c-0.5,0.2-1,0.3-1.5,0.3c-0.4,0-0.8-0.1-1-0.4c-0.2-0.3-0.4-0.7-0.5-1.3
					c-0.1-0.6-0.1-1.3-0.1-2.3l0-9.2h-4.7l0,9.7c0,0.9,0,1.6,0,2c-0.4,0.3-0.7,0.6-0.9,0.7c-0.2,0.2-0.5,0.3-0.9,0.5
					c-0.4,0.2-0.9,0.3-1.4,0.3c-0.7,0-1.2-0.2-1.6-0.5c-0.4-0.3-0.7-0.8-0.8-1.4c-0.2-0.6-0.2-1.4-0.2-2.4v-8.8L90,22.5
					c-1.1,0.6-1.8,1.8-1.8,3.1v5.3c0,0.2,0,0.4,0,0.6c-1.2,0.8-2.6,1.2-4,1.3c-1.1,0.1-2.1,0.1-3.2,0.1c-0.5,0-1.1,0-1.6,0
					c-0.2,0-1.3-0.1-1.4,0c0.7-1,1.4-1.9,2.1-2.9c1.9-2.6,3.7-5.1,5.6-7.7c0.9-1.3,1.9-2.6,2.8-3.8c0.5-0.6,0.9-1.3,1.4-1.9
					c0.4-0.6,1.1-1.2,1.3-1.9c-1.2-0.2-2.6,0-3.8,0c-1.3,0-2.5,0-3.8,0c-2.5,0-5,0-7.5,0c-1,0-2.1,0-3,0.3c-1.1,0.4-2,1.2-2.7,2.1
					c-0.7,0.9-1.2,2-1.7,3c3-1,6.2-1.1,9.4-1.1c0.5,0,1.1,0,1.6,0c0.2,0,1.3,0.2,1.4,0.1c-4.6,6-9.2,12.1-13.8,18.1
					c5.3,0,10.6,0,15.8,0c0.9,0,1.7,0,2.5-0.4c0.9-0.4,1.5-1.3,2.1-2.2c0.2-0.3,0.4-0.7,0.6-1.1c0.2,0.9,0.6,1.7,1,2.3
					c0.9,1.2,2.3,1.7,4.3,1.7c1,0,1.9-0.2,2.8-0.5c0.8-0.3,1.5-0.7,2-1.1c0.5-0.4,0.8-0.7,1-0.9c0.3,0.6,0.8,1.2,1.4,1.5
					c0.6,0.4,1.2,0.6,2,0.8c0.3,0.1,0.6,0.1,0.9,0.1c0.2,0,0.5,0,0.7,0c0.8-0.1,1.6-0.4,2.3-0.8c0.2-0.1,0.3-0.2,0.5-0.3v0.8h4.7
					V25.5c0,0,0.2-0.2,0.5-0.4c0.3-0.3,0.7-0.5,1.2-0.7c0.5-0.2,1-0.3,1.5-0.3c1,0,1.7,0.3,2.1,1c0.4,0.7,0.6,1.8,0.6,3.2v3.4
					c0,1.8,0.3,3.3,1,4.4c0.7,1.1,1.9,1.7,3.7,1.7c0.8,0,1.5-0.2,2.2-0.5c0.7-0.3,1.2-0.7,1.6-1.1c0.1-0.1,0.2-0.2,0.3-0.3
					c0.7,0.7,1.4,1.2,2.2,1.4c1.1,0.3,2.4,0.5,3.8,0.5c5.3,0,7.9-2.4,7.9-7.3l-4.7,0C135.9,31.5,135.6,32.3,135.1,33z"/>
				<path fill="#FFFFFF" d="M175,23c-0.8-1.2-1.8-2-2.9-2.3c-1.1-0.3-2.4-0.5-3.8-0.5c-1.5,0-2.9,0.2-4,0.6s-2.1,1.2-2.8,2.4
					c-0.7,1.2-1.1,2.9-1.1,5v1.3c0,1.4,0.1,2.6,0.4,3.5c-0.2,0.1-0.4,0.3-0.6,0.4c-0.4,0.2-0.8,0.3-1.2,0.3c-0.4,0-0.8-0.1-1-0.4
					c-0.2-0.3-0.4-0.7-0.4-1.3c-0.1-0.6-0.1-1.3-0.1-2.3v-2.9c0-2.2-0.4-4-1.3-5.1c-0.9-1.2-2.3-1.7-4.3-1.7c-0.8,0-1.6,0.2-2.3,0.5
					c-0.7,0.3-1.4,0.6-1.9,1c-0.5,0.4-0.8,0.6-0.8,0.6v-7.7l-2.3,0.8c-1.4,0.5-2.4,1.8-2.4,3.2l0,18.8h4.7l0-11.8
					c0,0,0.3-0.3,0.8-0.7c0.5-0.5,1.3-0.7,2.4-0.7c1,0,1.7,0.4,2.1,1.1c0.4,0.7,0.6,1.8,0.6,3.2v3.4c0,1.8,0.3,3.3,1,4.4
					c0.7,1.1,1.9,1.7,3.7,1.7c0.8,0,1.5-0.2,2.2-0.6c0.7-0.4,1.2-0.8,1.7-1.2c0.3-0.3,0.4-0.4,0.6-0.6c0.8,0.9,1.6,1.6,2.6,1.8
					c1.1,0.3,2.4,0.5,3.8,0.5c1.5,0,2.9-0.2,4-0.6c1.2-0.4,2.1-1.2,2.8-2.4c0.7-1.2,1.1-2.9,1.1-5v-1.4C176.2,26,175.8,24.2,175,23z
					 M170.9,32.6c-0.4,0.9-1.3,1.4-2.6,1.4c-1.2,0-2.1-0.5-2.6-1.4c-0.5-0.9-0.7-2.1-0.7-3.6c0-1.5,0.2-2.6,0.7-3.6
					c0.4-0.9,1.3-1.4,2.6-1.4c1.2,0,2.1,0.4,2.6,1.3c0.5,0.9,0.7,2.1,0.7,3.6C171.5,30.5,171.3,31.6,170.9,32.6z"/>
			</g>
		</g>
	</g>
</g>
</svg>
