<?xml version="1.0" encoding="utf-8"?>
<!-- Generator: Adobe Illustrator 24.0.2, SVG Export Plug-In . SVG Version: 6.00 Build 0)  -->
<svg version="1.1" id="Capa_1" xmlns="http://www.w3.org/2000/svg" xmlns:xlink="http://www.w3.org/1999/xlink" x="0px" y="0px" viewBox="0 0 41.6 41.5" enable-background="new 0 0 41.6 41.5" xml:space="preserve">
    <path fill="#7A368B" d="M35.5,6c7.2,7.2,8.1,19,2.1,27c-6.5,8.6-17.9,11-27.1,5.8C5.8,36.1,2.7,32.3,1,27.3
	c-0.2-0.6-0.3-1.1,0.3-1.6c0.6-0.5,1.4-0.2,1.7,0.7c0.6,1.7,1.4,3.4,2.4,4.9c5.7,8.6,18.1,10.7,26.4,4.5c8.1-6.1,10-17,4.5-25.4
	C31.9,3.8,23.8,0.7,16,2.7C8.5,4.6,2.9,11.3,2.2,19.1c0,0.2,0,0.3,0,0.5c0,0.8-0.3,1.4-1.2,1.3c-0.9-0.1-1-0.8-1-1.5
	C0.6,8.2,10.6-0.8,21.7,0.1c1.6,0.1,3.3,0.2,4.9,0.7C30,1.8,33,3.5,35.5,6z" />
    <path fill="#7A368B" d="M30.5,19.2c-2.1-2.1-4-4-5.9-5.9c-0.2-0.2-0.4-0.4-0.5-0.6c-0.4-0.5-0.5-1.1,0-1.6c0.5-0.4,1-0.4,1.5,0.1
	c0.1,0.1,0.2,0.2,0.4,0.3c2.6,2.6,5.2,5.1,7.7,7.7c0.8,0.8,0.8,1.3,0,2.1c-2.6,2.6-5.2,5.2-7.8,7.8c-0.7,0.7-1.4,0.8-1.9,0.3
	c-0.5-0.7-0.2-1.2,0.3-1.8c1.8-1.8,3.5-3.5,5.3-5.3c0.2-0.2,0.5-0.5,0.7-0.8c-0.4-0.3-0.8-0.2-1.2-0.2c-6.5,0-13,0-19.5,0
	c-0.1,0-0.2,0-0.3,0c-0.7,0-1.3-0.2-1.3-1.1c0-0.8,0.6-1.1,1.3-1.1c2.4,0,4.9,0,7.3,0c4.2,0,8.4,0,12.7,0
	C29.6,19.3,29.9,19.3,30.5,19.2z" />
</svg>
