<?xml version="1.0" encoding="utf-8"?>
<!-- Generator: Adobe Illustrator 24.0.2, SVG Export Plug-In . SVG Version: 6.00 Build 0)  -->
<svg version="1.1" id="Capa_1" xmlns="http://www.w3.org/2000/svg" xmlns:xlink="http://www.w3.org/1999/xlink" x="0px" y="0px" viewBox="0 0 41.6 41.5" enable-background="new 0 0 41.6 41.5" xml:space="preserve">
    <path fill="#FFFFFF" d="M4.1,8.5c-6,8.3-5.1,20,2.1,27c7.8,7.5,19.4,8.1,27.7,1.5c4.1-3.3,6.6-7.6,7.5-12.8c0.1-0.6,0.1-1.2-0.5-1.5
	c-0.7-0.4-1.4,0-1.6,1c-0.3,1.8-0.8,3.5-1.6,5.2c-4.3,9.4-16.3,13.4-25.4,8.5C3.5,32.5-0.2,22,4,12.9C7.3,5.7,14.8,1.4,22.8,2.2
	c7.8,0.7,14.3,6.4,16.2,14c0,0.2,0.1,0.3,0.1,0.5c0.2,0.7,0.5,1.3,1.4,1.1c0.9-0.2,0.9-0.9,0.7-1.6C38.9,5.2,27.6-2.1,16.8,0.5
	c-1.6,0.4-3.2,0.7-4.7,1.5C8.9,3.5,6.2,5.6,4.1,8.5z" />
    <path fill="#FFFFFF" d="M11.2,19.2c2.1-2.1,4-4,5.9-5.9c0.2-0.2,0.4-0.4,0.5-0.6c0.4-0.5,0.5-1.1,0-1.6c-0.5-0.4-1-0.4-1.5,0.1
	c-0.1,0.1-0.2,0.2-0.4,0.3c-2.6,2.6-5.2,5.1-7.7,7.7c-0.8,0.8-0.8,1.3,0,2.1c2.6,2.6,5.2,5.2,7.8,7.8c0.7,0.7,1.4,0.8,1.9,0.3
	c0.5-0.7,0.2-1.2-0.3-1.8c-1.8-1.8-3.5-3.5-5.3-5.3c-0.2-0.2-0.5-0.5-0.7-0.8c0.4-0.3,0.8-0.2,1.2-0.2c6.5,0,13,0,19.5,0
	c0.1,0,0.2,0,0.3,0c0.7,0,1.3-0.2,1.3-1.1c0-0.8-0.6-1.1-1.3-1.1c-2.4,0-4.9,0-7.3,0c-4.2,0-8.4,0-12.7,0
	C12.1,19.3,11.8,19.3,11.2,19.2z" />
</svg>
