<?xml version="1.0" encoding="utf-8"?>
<!-- Generator: Adobe Illustrator 24.0.2, SVG Export Plug-In . SVG Version: 6.00 Build 0)  -->
<svg version="1.1" id="Capa_1" xmlns="http://www.w3.org/2000/svg" xmlns:xlink="http://www.w3.org/1999/xlink" x="0px" y="0px"
	 viewBox="0 0 160.8 52.4" style="enable-background:new 0 0 160.8 52.4;" xml:space="preserve">
<g id="brand_zuncho_text">
	<path style="fill:#FFFFFF;" d="M124.2,32.2c-0.4,0.6-1.1,0.9-2.1,0.9c-1.1,0-1.9-0.4-2.3-1.2c-0.4-0.8-0.6-1.9-0.6-3.2
		c0-0.8,0.1-1.6,0.2-2.2c0.1-0.6,0.4-1.2,0.9-1.6c0.4-0.4,1.1-0.6,1.9-0.6c0.9,0,1.6,0.3,2,0.8c0.4,0.5,0.7,1.3,0.9,2.2h4.1
		c0-2.5-0.7-4.2-2.1-5.1c-1.4-0.9-3-1.3-4.9-1.3c-1.4,0-2.6,0.2-3.6,0.6s-1.9,1.1-2.5,2.2c-0.7,1.1-1,2.6-1,4.5v1.2
		c0,1.4,0.2,2.6,0.5,3.5c0,0,0,0,0,0c-0.3,0.2-0.7,0.3-1,0.3c-0.4,0-0.7-0.1-0.9-0.3c-0.2-0.2-0.3-0.6-0.4-1c-0.1-0.5-0.1-1.1-0.1-2
		V27c0-2-0.4-3.5-1.2-4.5c-0.8-1-2.1-1.5-3.9-1.5c-0.7,0-1.4,0.1-2.1,0.4c-0.7,0.3-1.2,0.6-1.7,1c-0.5,0.3-0.7,0.5-0.7,0.6v-1.8
		l-4.2,0.4v11c-0.2,0.1-0.4,0.2-0.7,0.3c-0.5,0.2-0.9,0.3-1.3,0.3c-0.4,0-0.7-0.1-0.9-0.4c-0.2-0.3-0.3-0.6-0.4-1.1
		s-0.1-1.2-0.1-2.1l0-8.2h-4.2l0,8.6c0,0.8,0,1.4,0,1.8c-0.4,0.3-0.6,0.5-0.8,0.7c-0.2,0.1-0.5,0.3-0.8,0.4
		c-0.4,0.2-0.8,0.2-1.2,0.2c-0.6,0-1.1-0.1-1.5-0.4c-0.4-0.3-0.6-0.7-0.8-1.2c-0.1-0.6-0.2-1.3-0.2-2.2v-7.8l-2.6,1.5
		c-1,0.6-1.6,1.6-1.6,2.8v4.7c0,0.2,0,0.4,0,0.5c-1,0.7-2.4,1-3.6,1.2c-0.9,0.1-1.9,0.1-2.8,0.1c-0.5,0-0.9,0-1.4,0
		c-0.2,0-1.2-0.1-1.3,0c0.6-0.9,1.3-1.7,1.9-2.6c1.7-2.3,3.3-4.5,5-6.8c0.8-1.1,1.7-2.3,2.5-3.4c0.4-0.6,0.8-1.1,1.2-1.7
		c0.4-0.5,0.9-1.1,1.2-1.7c-1.1-0.2-2.3,0-3.4,0c-1.1,0-2.2,0-3.4,0c-2.2,0-4.4,0-6.7,0c-0.9,0-1.8,0-2.7,0.3
		c-1,0.3-1.8,1.1-2.4,1.9c-0.6,0.8-1,1.8-1.5,2.7c2.7-0.9,5.5-1,8.3-0.9c0.5,0,1,0,1.4,0c0.2,0,1.2,0.1,1.3,0
		c-4.1,5.4-8.2,10.7-12.3,16.1c4.7,0,9.4,0,14.1,0c0.8,0,1.6,0,2.2-0.3c0.8-0.4,1.4-1.2,1.9-2c0.2-0.3,0.4-0.6,0.6-0.9
		c0.2,0.8,0.5,1.5,0.9,2.1c0.8,1,2.1,1.5,3.9,1.5c0.9,0,1.7-0.2,2.5-0.4c0.7-0.3,1.3-0.6,1.7-1c0.4-0.3,0.7-0.6,0.9-0.8
		c0.3,0.6,0.7,1,1.2,1.4c0.5,0.3,1.1,0.6,1.7,0.7c0.3,0.1,0.5,0.1,0.8,0.1c0.2,0,0.4,0,0.7,0c0.7-0.1,1.4-0.4,2-0.7
		c0.2-0.1,0.3-0.2,0.4-0.3v0.8h4.2V25.6c0,0,0.1-0.2,0.4-0.4c0.3-0.2,0.6-0.4,1-0.6c0.4-0.2,0.9-0.3,1.4-0.3c0.9,0,1.5,0.3,1.9,0.9
		c0.4,0.6,0.5,1.6,0.5,2.9v3c0,1.6,0.3,2.9,0.9,3.9c0.6,1,1.7,1.5,3.3,1.5c0.7,0,1.4-0.2,1.9-0.5c0.6-0.3,1.1-0.7,1.5-1
		c0.1-0.1,0.2-0.2,0.2-0.2c0.6,0.6,1.3,1,2,1.3c1,0.3,2.1,0.5,3.4,0.5c4.7,0,7-2.2,7-6.5l-4.1,0C124.9,30.9,124.7,31.7,124.2,32.2z"
		/>
	<path style="fill:#FFFFFF;" d="M159.7,23.4c-0.7-1.1-1.6-1.7-2.6-2c-1-0.3-2.1-0.5-3.4-0.5c-1.4,0-2.6,0.2-3.6,0.6
		c-1,0.4-1.9,1.1-2.5,2.2c-0.7,1.1-1,2.6-1,4.5v1.2c0,1.2,0.1,2.3,0.4,3.2c-0.1,0.1-0.3,0.3-0.5,0.4c-0.3,0.2-0.7,0.3-1.1,0.3
		c-0.4,0-0.7-0.1-0.9-0.4c-0.2-0.3-0.3-0.6-0.4-1.1c-0.1-0.5-0.1-1.2-0.1-2V27c0-2-0.4-3.5-1.2-4.5c-0.8-1-2.1-1.5-3.9-1.5
		c-0.7,0-1.4,0.1-2.1,0.4c-0.7,0.3-1.2,0.6-1.7,0.9c-0.5,0.3-0.7,0.5-0.7,0.5v-6.9l-2.1,0.7c-1.2,0.4-2.1,1.6-2.1,2.9l0,16.7h4.2
		l0-10.5c0,0,0.3-0.2,0.7-0.7c0.4-0.4,1.1-0.6,2.1-0.7c0.9,0,1.5,0.3,1.9,0.9c0.4,0.6,0.5,1.6,0.5,2.9v3c0,1.6,0.3,2.9,0.9,3.9
		c0.6,1,1.7,1.5,3.3,1.5c0.7,0,1.4-0.2,2-0.5c0.6-0.3,1.1-0.7,1.5-1.1c0.2-0.2,0.4-0.4,0.5-0.5c0.7,0.8,1.4,1.4,2.3,1.6
		c1,0.3,2.1,0.5,3.4,0.5c1.4,0,2.6-0.2,3.6-0.6c1-0.4,1.9-1.1,2.5-2.1c0.7-1.1,1-2.5,1-4.5v-1.2C160.8,26,160.5,24.4,159.7,23.4z
		 M156.1,31.9c-0.4,0.8-1.2,1.2-2.4,1.2c-1.1,0-1.9-0.4-2.3-1.2c-0.4-0.8-0.6-1.9-0.6-3.2c0-1.3,0.2-2.4,0.6-3.2
		c0.4-0.8,1.2-1.2,2.4-1.2c1.1,0,1.9,0.4,2.3,1.2c0.4,0.8,0.6,1.9,0.6,3.2C156.7,30,156.5,31,156.1,31.9z"/>
</g>
<g>
	<g>
		<linearGradient id="SVGID_1_" gradientUnits="userSpaceOnUse" x1="26.1828" y1="6.1357" x2="26.1828" y2="56.3221">
			<stop  offset="0" style="stop-color:#E41E36"/>
			<stop  offset="1" style="stop-color:#731D23"/>
		</linearGradient>
		<circle style="fill:url(#SVGID_1_);" cx="26.2" cy="26.2" r="25.1"/>
		<linearGradient id="SVGID_2_" gradientUnits="userSpaceOnUse" x1="3.5123" y1="13.094" x2="48.8533" y2="39.2716">
			<stop  offset="0" style="stop-color:#F5F5F5"/>
			<stop  offset="1" style="stop-color:#868686"/>
		</linearGradient>
		<path style="fill:url(#SVGID_2_);" d="M26.2,52.4C11.7,52.4,0,40.6,0,26.2S11.7,0,26.2,0s26.2,11.7,26.2,26.2S40.6,52.4,26.2,52.4
			z M26.2,2.2c-13.2,0-24,10.8-24,24s10.8,24,24,24s24-10.8,24-24S39.4,2.2,26.2,2.2z"/>
	</g>
	<linearGradient id="SVGID_3_" gradientUnits="userSpaceOnUse" x1="22.0259" y1="19.4648" x2="42.91" y2="53.515">
		<stop  offset="0" style="stop-color:#F5F5F5"/>
		<stop  offset="1" style="stop-color:#868686"/>
	</linearGradient>
	<path style="fill:url(#SVGID_3_);" d="M14.1,19.6c0.6-1.2,1.1-2.4,1.9-3.5c0.8-1.1,1.8-2,3.1-2.4c1.1-0.4,2.3-0.4,3.5-0.4
		c2.9,0,5.7,0,8.6,0c1.5,0,2.9,0,4.4,0c1.4,0,3-0.2,4.4,0c-0.3,0.8-1.1,1.5-1.5,2.2c-0.5,0.7-1.1,1.5-1.6,2.2
		c-1.1,1.5-2.1,2.9-3.2,4.4c-2.1,2.9-4.3,5.9-6.4,8.8c-0.8,1.1-1.6,2.2-2.4,3.3c0.1-0.2,1.4,0,1.6,0c0.6,0,1.2,0,1.8,0
		c1.2,0,2.5,0,3.7-0.1c2.2-0.2,4.6-0.9,6-2.7c0.1,1.8-0.8,3.5-1.8,5c-0.6,1-1.3,2-2.4,2.5c-0.9,0.4-1.9,0.4-2.9,0.4
		c-6.1,0-12.1,0-18.2,0c5.3-6.9,10.5-13.9,15.8-20.8c-0.1,0.1-1.4-0.1-1.6-0.1c-0.6,0-1.2,0-1.8,0C21.2,18.3,17.6,18.4,14.1,19.6z"
		/>
</g>
</svg>
